<svg width="40" height="40" viewBox="0 0 40 40" fill="none" xmlns="http://www.w3.org/2000/svg">
<g id="Frame" clip-path="url(#clip0_378_495)">
<g id="Group">
<g id="Group_2">
<path id="Vector" d="M20.003 0C8.975 0 0 8.96909 0 19.997C0 31.0309 8.975 40 20.003 40C31.0309 40 40.0059 31.0309 40.0059 19.997C40.0059 8.96909 31.0309 0 20.003 0ZM25.5524 11.8621C25.5524 12.0278 25.4164 12.1639 25.2507 12.1639H22.8428C22.2511 12.1639 21.7719 12.6431 21.7719 13.2347V15.7491H25.1975C25.3749 15.7491 25.511 15.903 25.4992 16.0805L25.1975 19.6302C25.1856 19.7841 25.0555 19.9024 24.8957 19.9024H21.7719V31.6876C21.7719 31.8533 21.6418 31.9893 21.4702 31.9893H17.1691C17.0034 31.9893 16.8673 31.8533 16.8673 31.6876V19.9024H14.7138C14.5481 19.9024 14.4121 19.7722 14.4121 19.6007V16.0509C14.4121 15.8852 14.5481 15.7491 14.7138 15.7491H16.8673V12.3295C16.8673 9.94527 18.802 8.01065 21.1862 8.01065H25.2507C25.4164 8.01065 25.5524 8.14672 25.5524 8.31238V11.8621Z" fill="white"/>
</g>
</g>
</g>
<defs>
<clipPath id="clip0_378_495">
<rect width="40.0059" height="40" fill="white"/>
</clipPath>
</defs>
</svg>
