<svg width="41" height="40" viewBox="0 0 41 40" fill="none" xmlns="http://www.w3.org/2000/svg">
<g id="Frame" clip-path="url(#clip0_378_515)">
<g id="Group">
<path id="Vector" d="M24.4854 19.9975C24.4854 22.1949 22.6989 23.9814 20.5015 23.9814C18.3041 23.9814 16.5176 22.1949 16.5176 19.9975C16.5176 17.806 18.3041 16.0195 20.5015 16.0195C22.6989 16.0195 24.4854 17.806 24.4854 19.9975Z" fill="white"/>
<path id="Vector_2" d="M25.4632 9.62305H15.4528C12.5765 9.62305 10.248 11.9574 10.248 14.8337V24.8382C10.248 27.7204 12.5765 30.0488 15.4528 30.0488H25.4632C28.3395 30.0488 30.6738 27.7204 30.6738 24.8382V14.8337C30.6738 11.9574 28.3395 9.62305 25.4632 9.62305ZM20.5026 26.2138C17.0725 26.2138 14.2856 23.4268 14.2856 19.9967C14.2856 16.5726 17.0725 13.7797 20.5026 13.7797C23.9327 13.7797 26.7197 16.5726 26.7197 19.9967C26.7197 23.4268 23.9327 26.2138 20.5026 26.2138ZM27.0829 14.8456C26.2671 14.8456 25.6001 14.1787 25.6001 13.3628C25.6001 12.547 26.2671 11.886 27.0829 11.886C27.8988 11.886 28.5598 12.547 28.5598 13.3628C28.5598 14.1787 27.8988 14.8456 27.0829 14.8456ZM25.4632 9.62305H15.4528C12.5765 9.62305 10.248 11.9574 10.248 14.8337V24.8382C10.248 27.7204 12.5765 30.0488 15.4528 30.0488H25.4632C28.3395 30.0488 30.6738 27.7204 30.6738 24.8382V14.8337C30.6738 11.9574 28.3395 9.62305 25.4632 9.62305ZM20.5026 26.2138C17.0725 26.2138 14.2856 23.4268 14.2856 19.9967C14.2856 16.5726 17.0725 13.7797 20.5026 13.7797C23.9327 13.7797 26.7197 16.5726 26.7197 19.9967C26.7197 23.4268 23.9327 26.2138 20.5026 26.2138ZM27.0829 14.8456C26.2671 14.8456 25.6001 14.1787 25.6001 13.3628C25.6001 12.547 26.2671 11.886 27.0829 11.886C27.8988 11.886 28.5598 12.547 28.5598 13.3628C28.5598 14.1787 27.8988 14.8456 27.0829 14.8456ZM25.4632 9.62305H15.4528C12.5765 9.62305 10.248 11.9574 10.248 14.8337V24.8382C10.248 27.7204 12.5765 30.0488 15.4528 30.0488H25.4632C28.3395 30.0488 30.6738 27.7204 30.6738 24.8382V14.8337C30.6738 11.9574 28.3395 9.62305 25.4632 9.62305ZM20.5026 26.2138C17.0725 26.2138 14.2856 23.4268 14.2856 19.9967C14.2856 16.5726 17.0725 13.7797 20.5026 13.7797C23.9327 13.7797 26.7197 16.5726 26.7197 19.9967C26.7197 23.4268 23.9327 26.2138 20.5026 26.2138ZM27.0829 14.8456C26.2671 14.8456 25.6001 14.1787 25.6001 13.3628C25.6001 12.547 26.2671 11.886 27.0829 11.886C27.8988 11.886 28.5598 12.547 28.5598 13.3628C28.5598 14.1787 27.8988 14.8456 27.0829 14.8456Z" fill="white"/>
<path id="Vector_3" d="M20.5026 16.0188C18.3052 16.0188 16.5187 17.8053 16.5187 19.9967C16.5187 22.1941 18.3052 23.9806 20.5026 23.9806C22.7 23.9806 24.4865 22.1941 24.4865 19.9967C24.4865 17.8053 22.7 16.0188 20.5026 16.0188ZM20.5026 16.0188C18.3052 16.0188 16.5187 17.8053 16.5187 19.9967C16.5187 22.1941 18.3052 23.9806 20.5026 23.9806C22.7 23.9806 24.4865 22.1941 24.4865 19.9967C24.4865 17.8053 22.7 16.0188 20.5026 16.0188ZM20.5026 16.0188C18.3052 16.0188 16.5187 17.8053 16.5187 19.9967C16.5187 22.1941 18.3052 23.9806 20.5026 23.9806C22.7 23.9806 24.4865 22.1941 24.4865 19.9967C24.4865 17.8053 22.7 16.0188 20.5026 16.0188ZM20.5026 16.0188C18.3052 16.0188 16.5187 17.8053 16.5187 19.9967C16.5187 22.1941 18.3052 23.9806 20.5026 23.9806C22.7 23.9806 24.4865 22.1941 24.4865 19.9967C24.4865 17.8053 22.7 16.0188 20.5026 16.0188ZM20.5026 16.0188C18.3052 16.0188 16.5187 17.8053 16.5187 19.9967C16.5187 22.1941 18.3052 23.9806 20.5026 23.9806C22.7 23.9806 24.4865 22.1941 24.4865 19.9967C24.4865 17.8053 22.7 16.0188 20.5026 16.0188ZM20.5026 16.0188C18.3052 16.0188 16.5187 17.8053 16.5187 19.9967C16.5187 22.1941 18.3052 23.9806 20.5026 23.9806C22.7 23.9806 24.4865 22.1941 24.4865 19.9967C24.4865 17.8053 22.7 16.0188 20.5026 16.0188ZM20.5026 16.0188C18.3052 16.0188 16.5187 17.8053 16.5187 19.9967C16.5187 22.1941 18.3052 23.9806 20.5026 23.9806C22.7 23.9806 24.4865 22.1941 24.4865 19.9967C24.4865 17.8053 22.7 16.0188 20.5026 16.0188ZM20.5026 16.0188C18.3052 16.0188 16.5187 17.8053 16.5187 19.9967C16.5187 22.1941 18.3052 23.9806 20.5026 23.9806C22.7 23.9806 24.4865 22.1941 24.4865 19.9967C24.4865 17.8053 22.7 16.0188 20.5026 16.0188ZM20.5026 16.0188C18.3052 16.0188 16.5187 17.8053 16.5187 19.9967C16.5187 22.1941 18.3052 23.9806 20.5026 23.9806C22.7 23.9806 24.4865 22.1941 24.4865 19.9967C24.4865 17.8053 22.7 16.0188 20.5026 16.0188ZM20.5026 16.0188C18.3052 16.0188 16.5187 17.8053 16.5187 19.9967C16.5187 22.1941 18.3052 23.9806 20.5026 23.9806C22.7 23.9806 24.4865 22.1941 24.4865 19.9967C24.4865 17.8053 22.7 16.0188 20.5026 16.0188ZM25.4632 9.62305H15.4528C12.5765 9.62305 10.248 11.9574 10.248 14.8337V24.8382C10.248 27.7204 12.5765 30.0488 15.4528 30.0488H25.4632C28.3395 30.0488 30.6738 27.7204 30.6738 24.8382V14.8337C30.6738 11.9574 28.3395 9.62305 25.4632 9.62305ZM20.5026 26.2138C17.0725 26.2138 14.2856 23.4268 14.2856 19.9967C14.2856 16.5726 17.0725 13.7797 20.5026 13.7797C23.9327 13.7797 26.7197 16.5726 26.7197 19.9967C26.7197 23.4268 23.9327 26.2138 20.5026 26.2138ZM27.0829 14.8456C26.2671 14.8456 25.6001 14.1787 25.6001 13.3628C25.6001 12.547 26.2671 11.886 27.0829 11.886C27.8988 11.886 28.5598 12.547 28.5598 13.3628C28.5598 14.1787 27.8988 14.8456 27.0829 14.8456ZM20.5026 16.0188C18.3052 16.0188 16.5187 17.8053 16.5187 19.9967C16.5187 22.1941 18.3052 23.9806 20.5026 23.9806C22.7 23.9806 24.4865 22.1941 24.4865 19.9967C24.4865 17.8053 22.7 16.0188 20.5026 16.0188ZM20.5026 16.0188C18.3052 16.0188 16.5187 17.8053 16.5187 19.9967C16.5187 22.1941 18.3052 23.9806 20.5026 23.9806C22.7 23.9806 24.4865 22.1941 24.4865 19.9967C24.4865 17.8053 22.7 16.0188 20.5026 16.0188ZM20.5026 16.0188C18.3052 16.0188 16.5187 17.8053 16.5187 19.9967C16.5187 22.1941 18.3052 23.9806 20.5026 23.9806C22.7 23.9806 24.4865 22.1941 24.4865 19.9967C24.4865 17.8053 22.7 16.0188 20.5026 16.0188ZM20.5026 16.0188C18.3052 16.0188 16.5187 17.8053 16.5187 19.9967C16.5187 22.1941 18.3052 23.9806 20.5026 23.9806C22.7 23.9806 24.4865 22.1941 24.4865 19.9967C24.4865 17.8053 22.7 16.0188 20.5026 16.0188ZM20.5026 16.0188C18.3052 16.0188 16.5187 17.8053 16.5187 19.9967C16.5187 22.1941 18.3052 23.9806 20.5026 23.9806C22.7 23.9806 24.4865 22.1941 24.4865 19.9967C24.4865 17.8053 22.7 16.0188 20.5026 16.0188ZM20.5026 16.0188C18.3052 16.0188 16.5187 17.8053 16.5187 19.9967C16.5187 22.1941 18.3052 23.9806 20.5026 23.9806C22.7 23.9806 24.4865 22.1941 24.4865 19.9967C24.4865 17.8053 22.7 16.0188 20.5026 16.0188ZM20.5026 16.0188C18.3052 16.0188 16.5187 17.8053 16.5187 19.9967C16.5187 22.1941 18.3052 23.9806 20.5026 23.9806C22.7 23.9806 24.4865 22.1941 24.4865 19.9967C24.4865 17.8053 22.7 16.0188 20.5026 16.0188ZM20.5026 16.0188C18.3052 16.0188 16.5187 17.8053 16.5187 19.9967C16.5187 22.1941 18.3052 23.9806 20.5026 23.9806C22.7 23.9806 24.4865 22.1941 24.4865 19.9967C24.4865 17.8053 22.7 16.0188 20.5026 16.0188ZM20.5026 16.0188C18.3052 16.0188 16.5187 17.8053 16.5187 19.9967C16.5187 22.1941 18.3052 23.9806 20.5026 23.9806C22.7 23.9806 24.4865 22.1941 24.4865 19.9967C24.4865 17.8053 22.7 16.0188 20.5026 16.0188ZM20.5026 16.0188C18.3052 16.0188 16.5187 17.8053 16.5187 19.9967C16.5187 22.1941 18.3052 23.9806 20.5026 23.9806C22.7 23.9806 24.4865 22.1941 24.4865 19.9967C24.4865 17.8053 22.7 16.0188 20.5026 16.0188ZM20.5026 16.0188C18.3052 16.0188 16.5187 17.8053 16.5187 19.9967C16.5187 22.1941 18.3052 23.9806 20.5026 23.9806C22.7 23.9806 24.4865 22.1941 24.4865 19.9967C24.4865 17.8053 22.7 16.0188 20.5026 16.0188ZM20.5026 16.0188C18.3052 16.0188 16.5187 17.8053 16.5187 19.9967C16.5187 22.1941 18.3052 23.9806 20.5026 23.9806C22.7 23.9806 24.4865 22.1941 24.4865 19.9967C24.4865 17.8053 22.7 16.0188 20.5026 16.0188ZM20.5026 16.0188C18.3052 16.0188 16.5187 17.8053 16.5187 19.9967C16.5187 22.1941 18.3052 23.9806 20.5026 23.9806C22.7 23.9806 24.4865 22.1941 24.4865 19.9967C24.4865 17.8053 22.7 16.0188 20.5026 16.0188ZM20.5026 16.0188C18.3052 16.0188 16.5187 17.8053 16.5187 19.9967C16.5187 22.1941 18.3052 23.9806 20.5026 23.9806C22.7 23.9806 24.4865 22.1941 24.4865 19.9967C24.4865 17.8053 22.7 16.0188 20.5026 16.0188ZM20.5026 16.0188C18.3052 16.0188 16.5187 17.8053 16.5187 19.9967C16.5187 22.1941 18.3052 23.9806 20.5026 23.9806C22.7 23.9806 24.4865 22.1941 24.4865 19.9967C24.4865 17.8053 22.7 16.0188 20.5026 16.0188ZM20.5026 16.0188C18.3052 16.0188 16.5187 17.8053 16.5187 19.9967C16.5187 22.1941 18.3052 23.9806 20.5026 23.9806C22.7 23.9806 24.4865 22.1941 24.4865 19.9967C24.4865 17.8053 22.7 16.0188 20.5026 16.0188ZM20.5026 16.0188C18.3052 16.0188 16.5187 17.8053 16.5187 19.9967C16.5187 22.1941 18.3052 23.9806 20.5026 23.9806C22.7 23.9806 24.4865 22.1941 24.4865 19.9967C24.4865 17.8053 22.7 16.0188 20.5026 16.0188ZM20.5026 16.0188C18.3052 16.0188 16.5187 17.8053 16.5187 19.9967C16.5187 22.1941 18.3052 23.9806 20.5026 23.9806C22.7 23.9806 24.4865 22.1941 24.4865 19.9967C24.4865 17.8053 22.7 16.0188 20.5026 16.0188ZM20.5026 16.0188C18.3052 16.0188 16.5187 17.8053 16.5187 19.9967C16.5187 22.1941 18.3052 23.9806 20.5026 23.9806C22.7 23.9806 24.4865 22.1941 24.4865 19.9967C24.4865 17.8053 22.7 16.0188 20.5026 16.0188ZM20.5026 16.0188C18.3052 16.0188 16.5187 17.8053 16.5187 19.9967C16.5187 22.1941 18.3052 23.9806 20.5026 23.9806C22.7 23.9806 24.4865 22.1941 24.4865 19.9967C24.4865 17.8053 22.7 16.0188 20.5026 16.0188ZM20.5026 16.0188C18.3052 16.0188 16.5187 17.8053 16.5187 19.9967C16.5187 22.1941 18.3052 23.9806 20.5026 23.9806C22.7 23.9806 24.4865 22.1941 24.4865 19.9967C24.4865 17.8053 22.7 16.0188 20.5026 16.0188ZM25.4632 9.62305H15.4528C12.5765 9.62305 10.248 11.9574 10.248 14.8337V24.8382C10.248 27.7204 12.5765 30.0488 15.4528 30.0488H25.4632C28.3395 30.0488 30.6738 27.7204 30.6738 24.8382V14.8337C30.6738 11.9574 28.3395 9.62305 25.4632 9.62305ZM20.5026 26.2138C17.0725 26.2138 14.2856 23.4268 14.2856 19.9967C14.2856 16.5726 17.0725 13.7797 20.5026 13.7797C23.9327 13.7797 26.7197 16.5726 26.7197 19.9967C26.7197 23.4268 23.9327 26.2138 20.5026 26.2138ZM27.0829 14.8456C26.2671 14.8456 25.6001 14.1787 25.6001 13.3628C25.6001 12.547 26.2671 11.886 27.0829 11.886C27.8988 11.886 28.5598 12.547 28.5598 13.3628C28.5598 14.1787 27.8988 14.8456 27.0829 14.8456ZM20.5026 16.0188C18.3052 16.0188 16.5187 17.8053 16.5187 19.9967C16.5187 22.1941 18.3052 23.9806 20.5026 23.9806C22.7 23.9806 24.4865 22.1941 24.4865 19.9967C24.4865 17.8053 22.7 16.0188 20.5026 16.0188ZM20.5026 16.0188C18.3052 16.0188 16.5187 17.8053 16.5187 19.9967C16.5187 22.1941 18.3052 23.9806 20.5026 23.9806C22.7 23.9806 24.4865 22.1941 24.4865 19.9967C24.4865 17.8053 22.7 16.0188 20.5026 16.0188ZM20.5026 16.0188C18.3052 16.0188 16.5187 17.8053 16.5187 19.9967C16.5187 22.1941 18.3052 23.9806 20.5026 23.9806C22.7 23.9806 24.4865 22.1941 24.4865 19.9967C24.4865 17.8053 22.7 16.0188 20.5026 16.0188ZM20.5026 16.0188C18.3052 16.0188 16.5187 17.8053 16.5187 19.9967C16.5187 22.1941 18.3052 23.9806 20.5026 23.9806C22.7 23.9806 24.4865 22.1941 24.4865 19.9967C24.4865 17.8053 22.7 16.0188 20.5026 16.0188ZM20.5026 16.0188C18.3052 16.0188 16.5187 17.8053 16.5187 19.9967C16.5187 22.1941 18.3052 23.9806 20.5026 23.9806C22.7 23.9806 24.4865 22.1941 24.4865 19.9967C24.4865 17.8053 22.7 16.0188 20.5026 16.0188ZM20.5026 16.0188C18.3052 16.0188 16.5187 17.8053 16.5187 19.9967C16.5187 22.1941 18.3052 23.9806 20.5026 23.9806C22.7 23.9806 24.4865 22.1941 24.4865 19.9967C24.4865 17.8053 22.7 16.0188 20.5026 16.0188ZM20.5026 16.0188C18.3052 16.0188 16.5187 17.8053 16.5187 19.9967C16.5187 22.1941 18.3052 23.9806 20.5026 23.9806C22.7 23.9806 24.4865 22.1941 24.4865 19.9967C24.4865 17.8053 22.7 16.0188 20.5026 16.0188ZM20.5026 16.0188C18.3052 16.0188 16.5187 17.8053 16.5187 19.9967C16.5187 22.1941 18.3052 23.9806 20.5026 23.9806C22.7 23.9806 24.4865 22.1941 24.4865 19.9967C24.4865 17.8053 22.7 16.0188 20.5026 16.0188ZM20.5026 16.0188C18.3052 16.0188 16.5187 17.8053 16.5187 19.9967C16.5187 22.1941 18.3052 23.9806 20.5026 23.9806C22.7 23.9806 24.4865 22.1941 24.4865 19.9967C24.4865 17.8053 22.7 16.0188 20.5026 16.0188ZM20.5026 16.0188C18.3052 16.0188 16.5187 17.8053 16.5187 19.9967C16.5187 22.1941 18.3052 23.9806 20.5026 23.9806C22.7 23.9806 24.4865 22.1941 24.4865 19.9967C24.4865 17.8053 22.7 16.0188 20.5026 16.0188ZM20.5026 16.0188C18.3052 16.0188 16.5187 17.8053 16.5187 19.9967C16.5187 22.1941 18.3052 23.9806 20.5026 23.9806C22.7 23.9806 24.4865 22.1941 24.4865 19.9967C24.4865 17.8053 22.7 16.0188 20.5026 16.0188ZM20.5026 16.0188C18.3052 16.0188 16.5187 17.8053 16.5187 19.9967C16.5187 22.1941 18.3052 23.9806 20.5026 23.9806C22.7 23.9806 24.4865 22.1941 24.4865 19.9967C24.4865 17.8053 22.7 16.0188 20.5026 16.0188ZM20.5026 16.0188C18.3052 16.0188 16.5187 17.8053 16.5187 19.9967C16.5187 22.1941 18.3052 23.9806 20.5026 23.9806C22.7 23.9806 24.4865 22.1941 24.4865 19.9967C24.4865 17.8053 22.7 16.0188 20.5026 16.0188ZM20.5026 16.0188C18.3052 16.0188 16.5187 17.8053 16.5187 19.9967C16.5187 22.1941 18.3052 23.9806 20.5026 23.9806C22.7 23.9806 24.4865 22.1941 24.4865 19.9967C24.4865 17.8053 22.7 16.0188 20.5026 16.0188ZM20.5026 16.0188C18.3052 16.0188 16.5187 17.8053 16.5187 19.9967C16.5187 22.1941 18.3052 23.9806 20.5026 23.9806C22.7 23.9806 24.4865 22.1941 24.4865 19.9967C24.4865 17.8053 22.7 16.0188 20.5026 16.0188ZM20.5026 16.0188C18.3052 16.0188 16.5187 17.8053 16.5187 19.9967C16.5187 22.1941 18.3052 23.9806 20.5026 23.9806C22.7 23.9806 24.4865 22.1941 24.4865 19.9967C24.4865 17.8053 22.7 16.0188 20.5026 16.0188ZM20.5026 16.0188C18.3052 16.0188 16.5187 17.8053 16.5187 19.9967C16.5187 22.1941 18.3052 23.9806 20.5026 23.9806C22.7 23.9806 24.4865 22.1941 24.4865 19.9967C24.4865 17.8053 22.7 16.0188 20.5026 16.0188ZM20.5026 16.0188C18.3052 16.0188 16.5187 17.8053 16.5187 19.9967C16.5187 22.1941 18.3052 23.9806 20.5026 23.9806C22.7 23.9806 24.4865 22.1941 24.4865 19.9967C24.4865 17.8053 22.7 16.0188 20.5026 16.0188ZM20.5026 16.0188C18.3052 16.0188 16.5187 17.8053 16.5187 19.9967C16.5187 22.1941 18.3052 23.9806 20.5026 23.9806C22.7 23.9806 24.4865 22.1941 24.4865 19.9967C24.4865 17.8053 22.7 16.0188 20.5026 16.0188ZM20.5026 16.0188C18.3052 16.0188 16.5187 17.8053 16.5187 19.9967C16.5187 22.1941 18.3052 23.9806 20.5026 23.9806C22.7 23.9806 24.4865 22.1941 24.4865 19.9967C24.4865 17.8053 22.7 16.0188 20.5026 16.0188ZM20.5026 16.0188C18.3052 16.0188 16.5187 17.8053 16.5187 19.9967C16.5187 22.1941 18.3052 23.9806 20.5026 23.9806C22.7 23.9806 24.4865 22.1941 24.4865 19.9967C24.4865 17.8053 22.7 16.0188 20.5026 16.0188ZM20.5026 16.0188C18.3052 16.0188 16.5187 17.8053 16.5187 19.9967C16.5187 22.1941 18.3052 23.9806 20.5026 23.9806C22.7 23.9806 24.4865 22.1941 24.4865 19.9967C24.4865 17.8053 22.7 16.0188 20.5026 16.0188ZM20.5026 16.0188C18.3052 16.0188 16.5187 17.8053 16.5187 19.9967C16.5187 22.1941 18.3052 23.9806 20.5026 23.9806C22.7 23.9806 24.4865 22.1941 24.4865 19.9967C24.4865 17.8053 22.7 16.0188 20.5026 16.0188ZM25.4632 9.62305H15.4528C12.5765 9.62305 10.248 11.9574 10.248 14.8337V24.8382C10.248 27.7204 12.5765 30.0488 15.4528 30.0488H25.4632C28.3395 30.0488 30.6738 27.7204 30.6738 24.8382V14.8337C30.6738 11.9574 28.3395 9.62305 25.4632 9.62305ZM20.5026 26.2138C17.0725 26.2138 14.2856 23.4268 14.2856 19.9967C14.2856 16.5726 17.0725 13.7797 20.5026 13.7797C23.9327 13.7797 26.7197 16.5726 26.7197 19.9967C26.7197 23.4268 23.9327 26.2138 20.5026 26.2138ZM27.0829 14.8456C26.2671 14.8456 25.6001 14.1787 25.6001 13.3628C25.6001 12.547 26.2671 11.886 27.0829 11.886C27.8988 11.886 28.5598 12.547 28.5598 13.3628C28.5598 14.1787 27.8988 14.8456 27.0829 14.8456ZM20.5026 16.0188C18.3052 16.0188 16.5187 17.8053 16.5187 19.9967C16.5187 22.1941 18.3052 23.9806 20.5026 23.9806C22.7 23.9806 24.4865 22.1941 24.4865 19.9967C24.4865 17.8053 22.7 16.0188 20.5026 16.0188ZM20.5026 16.0188C18.3052 16.0188 16.5187 17.8053 16.5187 19.9967C16.5187 22.1941 18.3052 23.9806 20.5026 23.9806C22.7 23.9806 24.4865 22.1941 24.4865 19.9967C24.4865 17.8053 22.7 16.0188 20.5026 16.0188ZM20.5026 16.0188C18.3052 16.0188 16.5187 17.8053 16.5187 19.9967C16.5187 22.1941 18.3052 23.9806 20.5026 23.9806C22.7 23.9806 24.4865 22.1941 24.4865 19.9967C24.4865 17.8053 22.7 16.0188 20.5026 16.0188ZM20.5026 16.0188C18.3052 16.0188 16.5187 17.8053 16.5187 19.9967C16.5187 22.1941 18.3052 23.9806 20.5026 23.9806C22.7 23.9806 24.4865 22.1941 24.4865 19.9967C24.4865 17.8053 22.7 16.0188 20.5026 16.0188ZM20.5026 16.0188C18.3052 16.0188 16.5187 17.8053 16.5187 19.9967C16.5187 22.1941 18.3052 23.9806 20.5026 23.9806C22.7 23.9806 24.4865 22.1941 24.4865 19.9967C24.4865 17.8053 22.7 16.0188 20.5026 16.0188ZM20.5026 16.0188C18.3052 16.0188 16.5187 17.8053 16.5187 19.9967C16.5187 22.1941 18.3052 23.9806 20.5026 23.9806C22.7 23.9806 24.4865 22.1941 24.4865 19.9967C24.4865 17.8053 22.7 16.0188 20.5026 16.0188ZM20.5026 16.0188C18.3052 16.0188 16.5187 17.8053 16.5187 19.9967C16.5187 22.1941 18.3052 23.9806 20.5026 23.9806C22.7 23.9806 24.4865 22.1941 24.4865 19.9967C24.4865 17.8053 22.7 16.0188 20.5026 16.0188ZM20.5026 16.0188C18.3052 16.0188 16.5187 17.8053 16.5187 19.9967C16.5187 22.1941 18.3052 23.9806 20.5026 23.9806C22.7 23.9806 24.4865 22.1941 24.4865 19.9967C24.4865 17.8053 22.7 16.0188 20.5026 16.0188ZM20.5026 16.0188C18.3052 16.0188 16.5187 17.8053 16.5187 19.9967C16.5187 22.1941 18.3052 23.9806 20.5026 23.9806C22.7 23.9806 24.4865 22.1941 24.4865 19.9967C24.4865 17.8053 22.7 16.0188 20.5026 16.0188ZM20.5026 16.0188C18.3052 16.0188 16.5187 17.8053 16.5187 19.9967C16.5187 22.1941 18.3052 23.9806 20.5026 23.9806C22.7 23.9806 24.4865 22.1941 24.4865 19.9967C24.4865 17.8053 22.7 16.0188 20.5026 16.0188ZM20.5026 16.0188C18.3052 16.0188 16.5187 17.8053 16.5187 19.9967C16.5187 22.1941 18.3052 23.9806 20.5026 23.9806C22.7 23.9806 24.4865 22.1941 24.4865 19.9967C24.4865 17.8053 22.7 16.0188 20.5026 16.0188ZM20.5026 16.0188C18.3052 16.0188 16.5187 17.8053 16.5187 19.9967C16.5187 22.1941 18.3052 23.9806 20.5026 23.9806C22.7 23.9806 24.4865 22.1941 24.4865 19.9967C24.4865 17.8053 22.7 16.0188 20.5026 16.0188ZM20.5026 16.0188C18.3052 16.0188 16.5187 17.8053 16.5187 19.9967C16.5187 22.1941 18.3052 23.9806 20.5026 23.9806C22.7 23.9806 24.4865 22.1941 24.4865 19.9967C24.4865 17.8053 22.7 16.0188 20.5026 16.0188ZM20.5026 16.0188C18.3052 16.0188 16.5187 17.8053 16.5187 19.9967C16.5187 22.1941 18.3052 23.9806 20.5026 23.9806C22.7 23.9806 24.4865 22.1941 24.4865 19.9967C24.4865 17.8053 22.7 16.0188 20.5026 16.0188ZM20.5026 16.0188C18.3052 16.0188 16.5187 17.8053 16.5187 19.9967C16.5187 22.1941 18.3052 23.9806 20.5026 23.9806C22.7 23.9806 24.4865 22.1941 24.4865 19.9967C24.4865 17.8053 22.7 16.0188 20.5026 16.0188ZM20.5026 16.0188C18.3052 16.0188 16.5187 17.8053 16.5187 19.9967C16.5187 22.1941 18.3052 23.9806 20.5026 23.9806C22.7 23.9806 24.4865 22.1941 24.4865 19.9967C24.4865 17.8053 22.7 16.0188 20.5026 16.0188ZM20.5026 16.0188C18.3052 16.0188 16.5187 17.8053 16.5187 19.9967C16.5187 22.1941 18.3052 23.9806 20.5026 23.9806C22.7 23.9806 24.4865 22.1941 24.4865 19.9967C24.4865 17.8053 22.7 16.0188 20.5026 16.0188ZM25.4632 9.62305H15.4528C12.5765 9.62305 10.248 11.9574 10.248 14.8337V24.8382C10.248 27.7204 12.5765 30.0488 15.4528 30.0488H25.4632C28.3395 30.0488 30.6738 27.7204 30.6738 24.8382V14.8337C30.6738 11.9574 28.3395 9.62305 25.4632 9.62305ZM20.5026 26.2138C17.0725 26.2138 14.2856 23.4268 14.2856 19.9967C14.2856 16.5726 17.0725 13.7797 20.5026 13.7797C23.9327 13.7797 26.7197 16.5726 26.7197 19.9967C26.7197 23.4268 23.9327 26.2138 20.5026 26.2138ZM27.0829 14.8456C26.2671 14.8456 25.6001 14.1787 25.6001 13.3628C25.6001 12.547 26.2671 11.886 27.0829 11.886C27.8988 11.886 28.5598 12.547 28.5598 13.3628C28.5598 14.1787 27.8988 14.8456 27.0829 14.8456ZM20.5026 16.0188C18.3052 16.0188 16.5187 17.8053 16.5187 19.9967C16.5187 22.1941 18.3052 23.9806 20.5026 23.9806C22.7 23.9806 24.4865 22.1941 24.4865 19.9967C24.4865 17.8053 22.7 16.0188 20.5026 16.0188ZM20.5026 16.0188C18.3052 16.0188 16.5187 17.8053 16.5187 19.9967C16.5187 22.1941 18.3052 23.9806 20.5026 23.9806C22.7 23.9806 24.4865 22.1941 24.4865 19.9967C24.4865 17.8053 22.7 16.0188 20.5026 16.0188ZM20.5026 16.0188C18.3052 16.0188 16.5187 17.8053 16.5187 19.9967C16.5187 22.1941 18.3052 23.9806 20.5026 23.9806C22.7 23.9806 24.4865 22.1941 24.4865 19.9967C24.4865 17.8053 22.7 16.0188 20.5026 16.0188ZM20.5026 16.0188C18.3052 16.0188 16.5187 17.8053 16.5187 19.9967C16.5187 22.1941 18.3052 23.9806 20.5026 23.9806C22.7 23.9806 24.4865 22.1941 24.4865 19.9967C24.4865 17.8053 22.7 16.0188 20.5026 16.0188ZM20.5026 16.0188C18.3052 16.0188 16.5187 17.8053 16.5187 19.9967C16.5187 22.1941 18.3052 23.9806 20.5026 23.9806C22.7 23.9806 24.4865 22.1941 24.4865 19.9967C24.4865 17.8053 22.7 16.0188 20.5026 16.0188ZM20.5026 16.0188C18.3052 16.0188 16.5187 17.8053 16.5187 19.9967C16.5187 22.1941 18.3052 23.9806 20.5026 23.9806C22.7 23.9806 24.4865 22.1941 24.4865 19.9967C24.4865 17.8053 22.7 16.0188 20.5026 16.0188ZM20.5026 16.0188C18.3052 16.0188 16.5187 17.8053 16.5187 19.9967C16.5187 22.1941 18.3052 23.9806 20.5026 23.9806C22.7 23.9806 24.4865 22.1941 24.4865 19.9967C24.4865 17.8053 22.7 16.0188 20.5026 16.0188ZM20.5026 16.0188C18.3052 16.0188 16.5187 17.8053 16.5187 19.9967C16.5187 22.1941 18.3052 23.9806 20.5026 23.9806C22.7 23.9806 24.4865 22.1941 24.4865 19.9967C24.4865 17.8053 22.7 16.0188 20.5026 16.0188ZM20.5026 16.0188C18.3052 16.0188 16.5187 17.8053 16.5187 19.9967C16.5187 22.1941 18.3052 23.9806 20.5026 23.9806C22.7 23.9806 24.4865 22.1941 24.4865 19.9967C24.4865 17.8053 22.7 16.0188 20.5026 16.0188ZM20.5026 16.0188C18.3052 16.0188 16.5187 17.8053 16.5187 19.9967C16.5187 22.1941 18.3052 23.9806 20.5026 23.9806C22.7 23.9806 24.4865 22.1941 24.4865 19.9967C24.4865 17.8053 22.7 16.0188 20.5026 16.0188ZM20.5026 16.0188C18.3052 16.0188 16.5187 17.8053 16.5187 19.9967C16.5187 22.1941 18.3052 23.9806 20.5026 23.9806C22.7 23.9806 24.4865 22.1941 24.4865 19.9967C24.4865 17.8053 22.7 16.0188 20.5026 16.0188ZM20.5026 16.0188C18.3052 16.0188 16.5187 17.8053 16.5187 19.9967C16.5187 22.1941 18.3052 23.9806 20.5026 23.9806C22.7 23.9806 24.4865 22.1941 24.4865 19.9967C24.4865 17.8053 22.7 16.0188 20.5026 16.0188ZM20.5026 16.0188C18.3052 16.0188 16.5187 17.8053 16.5187 19.9967C16.5187 22.1941 18.3052 23.9806 20.5026 23.9806C22.7 23.9806 24.4865 22.1941 24.4865 19.9967C24.4865 17.8053 22.7 16.0188 20.5026 16.0188ZM20.5026 16.0188C18.3052 16.0188 16.5187 17.8053 16.5187 19.9967C16.5187 22.1941 18.3052 23.9806 20.5026 23.9806C22.7 23.9806 24.4865 22.1941 24.4865 19.9967C24.4865 17.8053 22.7 16.0188 20.5026 16.0188ZM20.5026 16.0188C18.3052 16.0188 16.5187 17.8053 16.5187 19.9967C16.5187 22.1941 18.3052 23.9806 20.5026 23.9806C22.7 23.9806 24.4865 22.1941 24.4865 19.9967C24.4865 17.8053 22.7 16.0188 20.5026 16.0188ZM20.5026 16.0188C18.3052 16.0188 16.5187 17.8053 16.5187 19.9967C16.5187 22.1941 18.3052 23.9806 20.5026 23.9806C22.7 23.9806 24.4865 22.1941 24.4865 19.9967C24.4865 17.8053 22.7 16.0188 20.5026 16.0188ZM20.5026 16.0188C18.3052 16.0188 16.5187 17.8053 16.5187 19.9967C16.5187 22.1941 18.3052 23.9806 20.5026 23.9806C22.7 23.9806 24.4865 22.1941 24.4865 19.9967C24.4865 17.8053 22.7 16.0188 20.5026 16.0188ZM25.4632 9.62305H15.4528C12.5765 9.62305 10.248 11.9574 10.248 14.8337V24.8382C10.248 27.7204 12.5765 30.0488 15.4528 30.0488H25.4632C28.3395 30.0488 30.6738 27.7204 30.6738 24.8382V14.8337C30.6738 11.9574 28.3395 9.62305 25.4632 9.62305ZM20.5026 26.2138C17.0725 26.2138 14.2856 23.4268 14.2856 19.9967C14.2856 16.5726 17.0725 13.7797 20.5026 13.7797C23.9327 13.7797 26.7197 16.5726 26.7197 19.9967C26.7197 23.4268 23.9327 26.2138 20.5026 26.2138ZM27.0829 14.8456C26.2671 14.8456 25.6001 14.1787 25.6001 13.3628C25.6001 12.547 26.2671 11.886 27.0829 11.886C27.8988 11.886 28.5598 12.547 28.5598 13.3628C28.5598 14.1787 27.8988 14.8456 27.0829 14.8456ZM20.5026 16.0188C18.3052 16.0188 16.5187 17.8053 16.5187 19.9967C16.5187 22.1941 18.3052 23.9806 20.5026 23.9806C22.7 23.9806 24.4865 22.1941 24.4865 19.9967C24.4865 17.8053 22.7 16.0188 20.5026 16.0188ZM20.5026 16.0188C18.3052 16.0188 16.5187 17.8053 16.5187 19.9967C16.5187 22.1941 18.3052 23.9806 20.5026 23.9806C22.7 23.9806 24.4865 22.1941 24.4865 19.9967C24.4865 17.8053 22.7 16.0188 20.5026 16.0188ZM20.5026 16.0188C18.3052 16.0188 16.5187 17.8053 16.5187 19.9967C16.5187 22.1941 18.3052 23.9806 20.5026 23.9806C22.7 23.9806 24.4865 22.1941 24.4865 19.9967C24.4865 17.8053 22.7 16.0188 20.5026 16.0188ZM20.5026 16.0188C18.3052 16.0188 16.5187 17.8053 16.5187 19.9967C16.5187 22.1941 18.3052 23.9806 20.5026 23.9806C22.7 23.9806 24.4865 22.1941 24.4865 19.9967C24.4865 17.8053 22.7 16.0188 20.5026 16.0188ZM20.5026 16.0188C18.3052 16.0188 16.5187 17.8053 16.5187 19.9967C16.5187 22.1941 18.3052 23.9806 20.5026 23.9806C22.7 23.9806 24.4865 22.1941 24.4865 19.9967C24.4865 17.8053 22.7 16.0188 20.5026 16.0188ZM20.5026 16.0188C18.3052 16.0188 16.5187 17.8053 16.5187 19.9967C16.5187 22.1941 18.3052 23.9806 20.5026 23.9806C22.7 23.9806 24.4865 22.1941 24.4865 19.9967C24.4865 17.8053 22.7 16.0188 20.5026 16.0188ZM20.5026 16.0188C18.3052 16.0188 16.5187 17.8053 16.5187 19.9967C16.5187 22.1941 18.3052 23.9806 20.5026 23.9806C22.7 23.9806 24.4865 22.1941 24.4865 19.9967C24.4865 17.8053 22.7 16.0188 20.5026 16.0188ZM20.5026 16.0188C18.3052 16.0188 16.5187 17.8053 16.5187 19.9967C16.5187 22.1941 18.3052 23.9806 20.5026 23.9806C22.7 23.9806 24.4865 22.1941 24.4865 19.9967C24.4865 17.8053 22.7 16.0188 20.5026 16.0188ZM20.5026 16.0188C18.3052 16.0188 16.5187 17.8053 16.5187 19.9967C16.5187 22.1941 18.3052 23.9806 20.5026 23.9806C22.7 23.9806 24.4865 22.1941 24.4865 19.9967C24.4865 17.8053 22.7 16.0188 20.5026 16.0188ZM20.5026 16.0188C18.3052 16.0188 16.5187 17.8053 16.5187 19.9967C16.5187 22.1941 18.3052 23.9806 20.5026 23.9806C22.7 23.9806 24.4865 22.1941 24.4865 19.9967C24.4865 17.8053 22.7 16.0188 20.5026 16.0188ZM20.5026 16.0188C18.3052 16.0188 16.5187 17.8053 16.5187 19.9967C16.5187 22.1941 18.3052 23.9806 20.5026 23.9806C22.7 23.9806 24.4865 22.1941 24.4865 19.9967C24.4865 17.8053 22.7 16.0188 20.5026 16.0188ZM20.5026 16.0188C18.3052 16.0188 16.5187 17.8053 16.5187 19.9967C16.5187 22.1941 18.3052 23.9806 20.5026 23.9806C22.7 23.9806 24.4865 22.1941 24.4865 19.9967C24.4865 17.8053 22.7 16.0188 20.5026 16.0188ZM20.5026 16.0188C18.3052 16.0188 16.5187 17.8053 16.5187 19.9967C16.5187 22.1941 18.3052 23.9806 20.5026 23.9806C22.7 23.9806 24.4865 22.1941 24.4865 19.9967C24.4865 17.8053 22.7 16.0188 20.5026 16.0188ZM25.4632 9.62305H15.4528C12.5765 9.62305 10.248 11.9574 10.248 14.8337V24.8382C10.248 27.7204 12.5765 30.0488 15.4528 30.0488H25.4632C28.3395 30.0488 30.6738 27.7204 30.6738 24.8382V14.8337C30.6738 11.9574 28.3395 9.62305 25.4632 9.62305ZM20.5026 26.2138C17.0725 26.2138 14.2856 23.4268 14.2856 19.9967C14.2856 16.5726 17.0725 13.7797 20.5026 13.7797C23.9327 13.7797 26.7197 16.5726 26.7197 19.9967C26.7197 23.4268 23.9327 26.2138 20.5026 26.2138ZM27.0829 14.8456C26.2671 14.8456 25.6001 14.1787 25.6001 13.3628C25.6001 12.547 26.2671 11.886 27.0829 11.886C27.8988 11.886 28.5598 12.547 28.5598 13.3628C28.5598 14.1787 27.8988 14.8456 27.0829 14.8456ZM20.5026 16.0188C18.3052 16.0188 16.5187 17.8053 16.5187 19.9967C16.5187 22.1941 18.3052 23.9806 20.5026 23.9806C22.7 23.9806 24.4865 22.1941 24.4865 19.9967C24.4865 17.8053 22.7 16.0188 20.5026 16.0188ZM20.5026 16.0188C18.3052 16.0188 16.5187 17.8053 16.5187 19.9967C16.5187 22.1941 18.3052 23.9806 20.5026 23.9806C22.7 23.9806 24.4865 22.1941 24.4865 19.9967C24.4865 17.8053 22.7 16.0188 20.5026 16.0188ZM20.5026 16.0188C18.3052 16.0188 16.5187 17.8053 16.5187 19.9967C16.5187 22.1941 18.3052 23.9806 20.5026 23.9806C22.7 23.9806 24.4865 22.1941 24.4865 19.9967C24.4865 17.8053 22.7 16.0188 20.5026 16.0188ZM20.5026 16.0188C18.3052 16.0188 16.5187 17.8053 16.5187 19.9967C16.5187 22.1941 18.3052 23.9806 20.5026 23.9806C22.7 23.9806 24.4865 22.1941 24.4865 19.9967C24.4865 17.8053 22.7 16.0188 20.5026 16.0188ZM20.5026 16.0188C18.3052 16.0188 16.5187 17.8053 16.5187 19.9967C16.5187 22.1941 18.3052 23.9806 20.5026 23.9806C22.7 23.9806 24.4865 22.1941 24.4865 19.9967C24.4865 17.8053 22.7 16.0188 20.5026 16.0188ZM20.5026 16.0188C18.3052 16.0188 16.5187 17.8053 16.5187 19.9967C16.5187 22.1941 18.3052 23.9806 20.5026 23.9806C22.7 23.9806 24.4865 22.1941 24.4865 19.9967C24.4865 17.8053 22.7 16.0188 20.5026 16.0188ZM20.5026 16.0188C18.3052 16.0188 16.5187 17.8053 16.5187 19.9967C16.5187 22.1941 18.3052 23.9806 20.5026 23.9806C22.7 23.9806 24.4865 22.1941 24.4865 19.9967C24.4865 17.8053 22.7 16.0188 20.5026 16.0188ZM20.5026 16.0188C18.3052 16.0188 16.5187 17.8053 16.5187 19.9967C16.5187 22.1941 18.3052 23.9806 20.5026 23.9806C22.7 23.9806 24.4865 22.1941 24.4865 19.9967C24.4865 17.8053 22.7 16.0188 20.5026 16.0188ZM20.5026 16.0188C18.3052 16.0188 16.5187 17.8053 16.5187 19.9967C16.5187 22.1941 18.3052 23.9806 20.5026 23.9806C22.7 23.9806 24.4865 22.1941 24.4865 19.9967C24.4865 17.8053 22.7 16.0188 20.5026 16.0188ZM20.5026 16.0188C18.3052 16.0188 16.5187 17.8053 16.5187 19.9967C16.5187 22.1941 18.3052 23.9806 20.5026 23.9806C22.7 23.9806 24.4865 22.1941 24.4865 19.9967C24.4865 17.8053 22.7 16.0188 20.5026 16.0188ZM20.5026 16.0188C18.3052 16.0188 16.5187 17.8053 16.5187 19.9967C16.5187 22.1941 18.3052 23.9806 20.5026 23.9806C22.7 23.9806 24.4865 22.1941 24.4865 19.9967C24.4865 17.8053 22.7 16.0188 20.5026 16.0188ZM20.5026 16.0188C18.3052 16.0188 16.5187 17.8053 16.5187 19.9967C16.5187 22.1941 18.3052 23.9806 20.5026 23.9806C22.7 23.9806 24.4865 22.1941 24.4865 19.9967C24.4865 17.8053 22.7 16.0188 20.5026 16.0188ZM20.5026 16.0188C18.3052 16.0188 16.5187 17.8053 16.5187 19.9967C16.5187 22.1941 18.3052 23.9806 20.5026 23.9806C22.7 23.9806 24.4865 22.1941 24.4865 19.9967C24.4865 17.8053 22.7 16.0188 20.5026 16.0188ZM25.4632 9.62305H15.4528C12.5765 9.62305 10.248 11.9574 10.248 14.8337V24.8382C10.248 27.7204 12.5765 30.0488 15.4528 30.0488H25.4632C28.3395 30.0488 30.6738 27.7204 30.6738 24.8382V14.8337C30.6738 11.9574 28.3395 9.62305 25.4632 9.62305ZM20.5026 26.2138C17.0725 26.2138 14.2856 23.4268 14.2856 19.9967C14.2856 16.5726 17.0725 13.7797 20.5026 13.7797C23.9327 13.7797 26.7197 16.5726 26.7197 19.9967C26.7197 23.4268 23.9327 26.2138 20.5026 26.2138ZM27.0829 14.8456C26.2671 14.8456 25.6001 14.1787 25.6001 13.3628C25.6001 12.547 26.2671 11.886 27.0829 11.886C27.8988 11.886 28.5598 12.547 28.5598 13.3628C28.5598 14.1787 27.8988 14.8456 27.0829 14.8456ZM20.5026 16.0188C18.3052 16.0188 16.5187 17.8053 16.5187 19.9967C16.5187 22.1941 18.3052 23.9806 20.5026 23.9806C22.7 23.9806 24.4865 22.1941 24.4865 19.9967C24.4865 17.8053 22.7 16.0188 20.5026 16.0188ZM20.5026 16.0188C18.3052 16.0188 16.5187 17.8053 16.5187 19.9967C16.5187 22.1941 18.3052 23.9806 20.5026 23.9806C22.7 23.9806 24.4865 22.1941 24.4865 19.9967C24.4865 17.8053 22.7 16.0188 20.5026 16.0188ZM20.5026 16.0188C18.3052 16.0188 16.5187 17.8053 16.5187 19.9967C16.5187 22.1941 18.3052 23.9806 20.5026 23.9806C22.7 23.9806 24.4865 22.1941 24.4865 19.9967C24.4865 17.8053 22.7 16.0188 20.5026 16.0188ZM20.5026 16.0188C18.3052 16.0188 16.5187 17.8053 16.5187 19.9967C16.5187 22.1941 18.3052 23.9806 20.5026 23.9806C22.7 23.9806 24.4865 22.1941 24.4865 19.9967C24.4865 17.8053 22.7 16.0188 20.5026 16.0188ZM20.5026 16.0188C18.3052 16.0188 16.5187 17.8053 16.5187 19.9967C16.5187 22.1941 18.3052 23.9806 20.5026 23.9806C22.7 23.9806 24.4865 22.1941 24.4865 19.9967C24.4865 17.8053 22.7 16.0188 20.5026 16.0188ZM20.5026 16.0188C18.3052 16.0188 16.5187 17.8053 16.5187 19.9967C16.5187 22.1941 18.3052 23.9806 20.5026 23.9806C22.7 23.9806 24.4865 22.1941 24.4865 19.9967C24.4865 17.8053 22.7 16.0188 20.5026 16.0188ZM20.5026 16.0188C18.3052 16.0188 16.5187 17.8053 16.5187 19.9967C16.5187 22.1941 18.3052 23.9806 20.5026 23.9806C22.7 23.9806 24.4865 22.1941 24.4865 19.9967C24.4865 17.8053 22.7 16.0188 20.5026 16.0188ZM20.5026 16.0188C18.3052 16.0188 16.5187 17.8053 16.5187 19.9967C16.5187 22.1941 18.3052 23.9806 20.5026 23.9806C22.7 23.9806 24.4865 22.1941 24.4865 19.9967C24.4865 17.8053 22.7 16.0188 20.5026 16.0188ZM20.5026 16.0188C18.3052 16.0188 16.5187 17.8053 16.5187 19.9967C16.5187 22.1941 18.3052 23.9806 20.5026 23.9806C22.7 23.9806 24.4865 22.1941 24.4865 19.9967C24.4865 17.8053 22.7 16.0188 20.5026 16.0188ZM25.4632 9.62305H15.4528C12.5765 9.62305 10.248 11.9574 10.248 14.8337V24.8382C10.248 27.7204 12.5765 30.0488 15.4528 30.0488H25.4632C28.3395 30.0488 30.6738 27.7204 30.6738 24.8382V14.8337C30.6738 11.9574 28.3395 9.62305 25.4632 9.62305ZM20.5026 26.2138C17.0725 26.2138 14.2856 23.4268 14.2856 19.9967C14.2856 16.5726 17.0725 13.7797 20.5026 13.7797C23.9327 13.7797 26.7197 16.5726 26.7197 19.9967C26.7197 23.4268 23.9327 26.2138 20.5026 26.2138ZM27.0829 14.8456C26.2671 14.8456 25.6001 14.1787 25.6001 13.3628C25.6001 12.547 26.2671 11.886 27.0829 11.886C27.8988 11.886 28.5598 12.547 28.5598 13.3628C28.5598 14.1787 27.8988 14.8456 27.0829 14.8456ZM20.5026 16.0188C18.3052 16.0188 16.5187 17.8053 16.5187 19.9967C16.5187 22.1941 18.3052 23.9806 20.5026 23.9806C22.7 23.9806 24.4865 22.1941 24.4865 19.9967C24.4865 17.8053 22.7 16.0188 20.5026 16.0188ZM20.5026 16.0188C18.3052 16.0188 16.5187 17.8053 16.5187 19.9967C16.5187 22.1941 18.3052 23.9806 20.5026 23.9806C22.7 23.9806 24.4865 22.1941 24.4865 19.9967C24.4865 17.8053 22.7 16.0188 20.5026 16.0188ZM20.5026 16.0188C18.3052 16.0188 16.5187 17.8053 16.5187 19.9967C16.5187 22.1941 18.3052 23.9806 20.5026 23.9806C22.7 23.9806 24.4865 22.1941 24.4865 19.9967C24.4865 17.8053 22.7 16.0188 20.5026 16.0188ZM20.5026 16.0188C18.3052 16.0188 16.5187 17.8053 16.5187 19.9967C16.5187 22.1941 18.3052 23.9806 20.5026 23.9806C22.7 23.9806 24.4865 22.1941 24.4865 19.9967C24.4865 17.8053 22.7 16.0188 20.5026 16.0188ZM20.5026 16.0188C18.3052 16.0188 16.5187 17.8053 16.5187 19.9967C16.5187 22.1941 18.3052 23.9806 20.5026 23.9806C22.7 23.9806 24.4865 22.1941 24.4865 19.9967C24.4865 17.8053 22.7 16.0188 20.5026 16.0188ZM20.5026 16.0188C18.3052 16.0188 16.5187 17.8053 16.5187 19.9967C16.5187 22.1941 18.3052 23.9806 20.5026 23.9806C22.7 23.9806 24.4865 22.1941 24.4865 19.9967C24.4865 17.8053 22.7 16.0188 20.5026 16.0188ZM20.5026 16.0188C18.3052 16.0188 16.5187 17.8053 16.5187 19.9967C16.5187 22.1941 18.3052 23.9806 20.5026 23.9806C22.7 23.9806 24.4865 22.1941 24.4865 19.9967C24.4865 17.8053 22.7 16.0188 20.5026 16.0188ZM20.5026 16.0188C18.3052 16.0188 16.5187 17.8053 16.5187 19.9967C16.5187 22.1941 18.3052 23.9806 20.5026 23.9806C22.7 23.9806 24.4865 22.1941 24.4865 19.9967C24.4865 17.8053 22.7 16.0188 20.5026 16.0188ZM20.5026 16.0188C18.3052 16.0188 16.5187 17.8053 16.5187 19.9967C16.5187 22.1941 18.3052 23.9806 20.5026 23.9806C22.7 23.9806 24.4865 22.1941 24.4865 19.9967C24.4865 17.8053 22.7 16.0188 20.5026 16.0188ZM25.4632 9.62305H15.4528C12.5765 9.62305 10.248 11.9574 10.248 14.8337V24.8382C10.248 27.7204 12.5765 30.0488 15.4528 30.0488H25.4632C28.3395 30.0488 30.6738 27.7204 30.6738 24.8382V14.8337C30.6738 11.9574 28.3395 9.62305 25.4632 9.62305ZM20.5026 26.2138C17.0725 26.2138 14.2856 23.4268 14.2856 19.9967C14.2856 16.5726 17.0725 13.7797 20.5026 13.7797C23.9327 13.7797 26.7197 16.5726 26.7197 19.9967C26.7197 23.4268 23.9327 26.2138 20.5026 26.2138ZM27.0829 14.8456C26.2671 14.8456 25.6001 14.1787 25.6001 13.3628C25.6001 12.547 26.2671 11.886 27.0829 11.886C27.8988 11.886 28.5598 12.547 28.5598 13.3628C28.5598 14.1787 27.8988 14.8456 27.0829 14.8456ZM20.5026 16.0188C18.3052 16.0188 16.5187 17.8053 16.5187 19.9967C16.5187 22.1941 18.3052 23.9806 20.5026 23.9806C22.7 23.9806 24.4865 22.1941 24.4865 19.9967C24.4865 17.8053 22.7 16.0188 20.5026 16.0188ZM20.5026 16.0188C18.3052 16.0188 16.5187 17.8053 16.5187 19.9967C16.5187 22.1941 18.3052 23.9806 20.5026 23.9806C22.7 23.9806 24.4865 22.1941 24.4865 19.9967C24.4865 17.8053 22.7 16.0188 20.5026 16.0188ZM20.5026 16.0188C18.3052 16.0188 16.5187 17.8053 16.5187 19.9967C16.5187 22.1941 18.3052 23.9806 20.5026 23.9806C22.7 23.9806 24.4865 22.1941 24.4865 19.9967C24.4865 17.8053 22.7 16.0188 20.5026 16.0188ZM20.5026 16.0188C18.3052 16.0188 16.5187 17.8053 16.5187 19.9967C16.5187 22.1941 18.3052 23.9806 20.5026 23.9806C22.7 23.9806 24.4865 22.1941 24.4865 19.9967C24.4865 17.8053 22.7 16.0188 20.5026 16.0188ZM20.5026 16.0188C18.3052 16.0188 16.5187 17.8053 16.5187 19.9967C16.5187 22.1941 18.3052 23.9806 20.5026 23.9806C22.7 23.9806 24.4865 22.1941 24.4865 19.9967C24.4865 17.8053 22.7 16.0188 20.5026 16.0188ZM20.5026 16.0188C18.3052 16.0188 16.5187 17.8053 16.5187 19.9967C16.5187 22.1941 18.3052 23.9806 20.5026 23.9806C22.7 23.9806 24.4865 22.1941 24.4865 19.9967C24.4865 17.8053 22.7 16.0188 20.5026 16.0188ZM20.5026 16.0188C18.3052 16.0188 16.5187 17.8053 16.5187 19.9967C16.5187 22.1941 18.3052 23.9806 20.5026 23.9806C22.7 23.9806 24.4865 22.1941 24.4865 19.9967C24.4865 17.8053 22.7 16.0188 20.5026 16.0188ZM20.5026 16.0188C18.3052 16.0188 16.5187 17.8053 16.5187 19.9967C16.5187 22.1941 18.3052 23.9806 20.5026 23.9806C22.7 23.9806 24.4865 22.1941 24.4865 19.9967C24.4865 17.8053 22.7 16.0188 20.5026 16.0188ZM20.5026 16.0188C18.3052 16.0188 16.5187 17.8053 16.5187 19.9967C16.5187 22.1941 18.3052 23.9806 20.5026 23.9806C22.7 23.9806 24.4865 22.1941 24.4865 19.9967C24.4865 17.8053 22.7 16.0188 20.5026 16.0188ZM20.5026 16.0188C18.3052 16.0188 16.5187 17.8053 16.5187 19.9967C16.5187 22.1941 18.3052 23.9806 20.5026 23.9806C22.7 23.9806 24.4865 22.1941 24.4865 19.9967C24.4865 17.8053 22.7 16.0188 20.5026 16.0188ZM20.5026 16.0188C18.3052 16.0188 16.5187 17.8053 16.5187 19.9967C16.5187 22.1941 18.3052 23.9806 20.5026 23.9806C22.7 23.9806 24.4865 22.1941 24.4865 19.9967C24.4865 17.8053 22.7 16.0188 20.5026 16.0188ZM25.4632 9.62305H15.4528C12.5765 9.62305 10.248 11.9574 10.248 14.8337V24.8382C10.248 27.7204 12.5765 30.0488 15.4528 30.0488H25.4632C28.3395 30.0488 30.6738 27.7204 30.6738 24.8382V14.8337C30.6738 11.9574 28.3395 9.62305 25.4632 9.62305ZM20.5026 26.2138C17.0725 26.2138 14.2856 23.4268 14.2856 19.9967C14.2856 16.5726 17.0725 13.7797 20.5026 13.7797C23.9327 13.7797 26.7197 16.5726 26.7197 19.9967C26.7197 23.4268 23.9327 26.2138 20.5026 26.2138ZM27.0829 14.8456C26.2671 14.8456 25.6001 14.1787 25.6001 13.3628C25.6001 12.547 26.2671 11.886 27.0829 11.886C27.8988 11.886 28.5598 12.547 28.5598 13.3628C28.5598 14.1787 27.8988 14.8456 27.0829 14.8456ZM20.5026 16.0188C18.3052 16.0188 16.5187 17.8053 16.5187 19.9967C16.5187 22.1941 18.3052 23.9806 20.5026 23.9806C22.7 23.9806 24.4865 22.1941 24.4865 19.9967C24.4865 17.8053 22.7 16.0188 20.5026 16.0188ZM20.5026 16.0188C18.3052 16.0188 16.5187 17.8053 16.5187 19.9967C16.5187 22.1941 18.3052 23.9806 20.5026 23.9806C22.7 23.9806 24.4865 22.1941 24.4865 19.9967C24.4865 17.8053 22.7 16.0188 20.5026 16.0188ZM20.5026 16.0188C18.3052 16.0188 16.5187 17.8053 16.5187 19.9967C16.5187 22.1941 18.3052 23.9806 20.5026 23.9806C22.7 23.9806 24.4865 22.1941 24.4865 19.9967C24.4865 17.8053 22.7 16.0188 20.5026 16.0188ZM20.5026 16.0188C18.3052 16.0188 16.5187 17.8053 16.5187 19.9967C16.5187 22.1941 18.3052 23.9806 20.5026 23.9806C22.7 23.9806 24.4865 22.1941 24.4865 19.9967C24.4865 17.8053 22.7 16.0188 20.5026 16.0188ZM20.5026 16.0188C18.3052 16.0188 16.5187 17.8053 16.5187 19.9967C16.5187 22.1941 18.3052 23.9806 20.5026 23.9806C22.7 23.9806 24.4865 22.1941 24.4865 19.9967C24.4865 17.8053 22.7 16.0188 20.5026 16.0188ZM20.5026 16.0188C18.3052 16.0188 16.5187 17.8053 16.5187 19.9967C16.5187 22.1941 18.3052 23.9806 20.5026 23.9806C22.7 23.9806 24.4865 22.1941 24.4865 19.9967C24.4865 17.8053 22.7 16.0188 20.5026 16.0188ZM20.5026 16.0188C18.3052 16.0188 16.5187 17.8053 16.5187 19.9967C16.5187 22.1941 18.3052 23.9806 20.5026 23.9806C22.7 23.9806 24.4865 22.1941 24.4865 19.9967C24.4865 17.8053 22.7 16.0188 20.5026 16.0188ZM20.5026 16.0188C18.3052 16.0188 16.5187 17.8053 16.5187 19.9967C16.5187 22.1941 18.3052 23.9806 20.5026 23.9806C22.7 23.9806 24.4865 22.1941 24.4865 19.9967C24.4865 17.8053 22.7 16.0188 20.5026 16.0188ZM20.5026 16.0188C18.3052 16.0188 16.5187 17.8053 16.5187 19.9967C16.5187 22.1941 18.3052 23.9806 20.5026 23.9806C22.7 23.9806 24.4865 22.1941 24.4865 19.9967C24.4865 17.8053 22.7 16.0188 20.5026 16.0188ZM20.5026 16.0188C18.3052 16.0188 16.5187 17.8053 16.5187 19.9967C16.5187 22.1941 18.3052 23.9806 20.5026 23.9806C22.7 23.9806 24.4865 22.1941 24.4865 19.9967C24.4865 17.8053 22.7 16.0188 20.5026 16.0188ZM20.5026 16.0188C18.3052 16.0188 16.5187 17.8053 16.5187 19.9967C16.5187 22.1941 18.3052 23.9806 20.5026 23.9806C22.7 23.9806 24.4865 22.1941 24.4865 19.9967C24.4865 17.8053 22.7 16.0188 20.5026 16.0188ZM25.4632 9.62305H15.4528C12.5765 9.62305 10.248 11.9574 10.248 14.8337V24.8382C10.248 27.7204 12.5765 30.0488 15.4528 30.0488H25.4632C28.3395 30.0488 30.6738 27.7204 30.6738 24.8382V14.8337C30.6738 11.9574 28.3395 9.62305 25.4632 9.62305ZM20.5026 26.2138C17.0725 26.2138 14.2856 23.4268 14.2856 19.9967C14.2856 16.5726 17.0725 13.7797 20.5026 13.7797C23.9327 13.7797 26.7197 16.5726 26.7197 19.9967C26.7197 23.4268 23.9327 26.2138 20.5026 26.2138ZM27.0829 14.8456C26.2671 14.8456 25.6001 14.1787 25.6001 13.3628C25.6001 12.547 26.2671 11.886 27.0829 11.886C27.8988 11.886 28.5598 12.547 28.5598 13.3628C28.5598 14.1787 27.8988 14.8456 27.0829 14.8456ZM20.5026 16.0188C18.3052 16.0188 16.5187 17.8053 16.5187 19.9967C16.5187 22.1941 18.3052 23.9806 20.5026 23.9806C22.7 23.9806 24.4865 22.1941 24.4865 19.9967C24.4865 17.8053 22.7 16.0188 20.5026 16.0188ZM20.5026 16.0188C18.3052 16.0188 16.5187 17.8053 16.5187 19.9967C16.5187 22.1941 18.3052 23.9806 20.5026 23.9806C22.7 23.9806 24.4865 22.1941 24.4865 19.9967C24.4865 17.8053 22.7 16.0188 20.5026 16.0188ZM20.5026 16.0188C18.3052 16.0188 16.5187 17.8053 16.5187 19.9967C16.5187 22.1941 18.3052 23.9806 20.5026 23.9806C22.7 23.9806 24.4865 22.1941 24.4865 19.9967C24.4865 17.8053 22.7 16.0188 20.5026 16.0188ZM20.5026 16.0188C18.3052 16.0188 16.5187 17.8053 16.5187 19.9967C16.5187 22.1941 18.3052 23.9806 20.5026 23.9806C22.7 23.9806 24.4865 22.1941 24.4865 19.9967C24.4865 17.8053 22.7 16.0188 20.5026 16.0188ZM20.5026 16.0188C18.3052 16.0188 16.5187 17.8053 16.5187 19.9967C16.5187 22.1941 18.3052 23.9806 20.5026 23.9806C22.7 23.9806 24.4865 22.1941 24.4865 19.9967C24.4865 17.8053 22.7 16.0188 20.5026 16.0188ZM20.5026 16.0188C18.3052 16.0188 16.5187 17.8053 16.5187 19.9967C16.5187 22.1941 18.3052 23.9806 20.5026 23.9806C22.7 23.9806 24.4865 22.1941 24.4865 19.9967C24.4865 17.8053 22.7 16.0188 20.5026 16.0188ZM20.5026 16.0188C18.3052 16.0188 16.5187 17.8053 16.5187 19.9967C16.5187 22.1941 18.3052 23.9806 20.5026 23.9806C22.7 23.9806 24.4865 22.1941 24.4865 19.9967C24.4865 17.8053 22.7 16.0188 20.5026 16.0188ZM20.5026 16.0188C18.3052 16.0188 16.5187 17.8053 16.5187 19.9967C16.5187 22.1941 18.3052 23.9806 20.5026 23.9806C22.7 23.9806 24.4865 22.1941 24.4865 19.9967C24.4865 17.8053 22.7 16.0188 20.5026 16.0188ZM20.5026 16.0188C18.3052 16.0188 16.5187 17.8053 16.5187 19.9967C16.5187 22.1941 18.3052 23.9806 20.5026 23.9806C22.7 23.9806 24.4865 22.1941 24.4865 19.9967C24.4865 17.8053 22.7 16.0188 20.5026 16.0188ZM20.5026 16.0188C18.3052 16.0188 16.5187 17.8053 16.5187 19.9967C16.5187 22.1941 18.3052 23.9806 20.5026 23.9806C22.7 23.9806 24.4865 22.1941 24.4865 19.9967C24.4865 17.8053 22.7 16.0188 20.5026 16.0188ZM20.5026 16.0188C18.3052 16.0188 16.5187 17.8053 16.5187 19.9967C16.5187 22.1941 18.3052 23.9806 20.5026 23.9806C22.7 23.9806 24.4865 22.1941 24.4865 19.9967C24.4865 17.8053 22.7 16.0188 20.5026 16.0188ZM20.5026 16.0188C18.3052 16.0188 16.5187 17.8053 16.5187 19.9967C16.5187 22.1941 18.3052 23.9806 20.5026 23.9806C22.7 23.9806 24.4865 22.1941 24.4865 19.9967C24.4865 17.8053 22.7 16.0188 20.5026 16.0188ZM20.5026 16.0188C18.3052 16.0188 16.5187 17.8053 16.5187 19.9967C16.5187 22.1941 18.3052 23.9806 20.5026 23.9806C22.7 23.9806 24.4865 22.1941 24.4865 19.9967C24.4865 17.8053 22.7 16.0188 20.5026 16.0188ZM20.5026 16.0188C18.3052 16.0188 16.5187 17.8053 16.5187 19.9967C16.5187 22.1941 18.3052 23.9806 20.5026 23.9806C22.7 23.9806 24.4865 22.1941 24.4865 19.9967C24.4865 17.8053 22.7 16.0188 20.5026 16.0188ZM20.5026 16.0188C18.3052 16.0188 16.5187 17.8053 16.5187 19.9967C16.5187 22.1941 18.3052 23.9806 20.5026 23.9806C22.7 23.9806 24.4865 22.1941 24.4865 19.9967C24.4865 17.8053 22.7 16.0188 20.5026 16.0188ZM25.4632 9.62305H15.4528C12.5765 9.62305 10.248 11.9574 10.248 14.8337V24.8382C10.248 27.7204 12.5765 30.0488 15.4528 30.0488H25.4632C28.3395 30.0488 30.6738 27.7204 30.6738 24.8382V14.8337C30.6738 11.9574 28.3395 9.62305 25.4632 9.62305ZM20.5026 26.2138C17.0725 26.2138 14.2856 23.4268 14.2856 19.9967C14.2856 16.5726 17.0725 13.7797 20.5026 13.7797C23.9327 13.7797 26.7197 16.5726 26.7197 19.9967C26.7197 23.4268 23.9327 26.2138 20.5026 26.2138ZM27.0829 14.8456C26.2671 14.8456 25.6001 14.1787 25.6001 13.3628C25.6001 12.547 26.2671 11.886 27.0829 11.886C27.8988 11.886 28.5598 12.547 28.5598 13.3628C28.5598 14.1787 27.8988 14.8456 27.0829 14.8456ZM20.5026 16.0188C18.3052 16.0188 16.5187 17.8053 16.5187 19.9967C16.5187 22.1941 18.3052 23.9806 20.5026 23.9806C22.7 23.9806 24.4865 22.1941 24.4865 19.9967C24.4865 17.8053 22.7 16.0188 20.5026 16.0188ZM20.5026 16.0188C18.3052 16.0188 16.5187 17.8053 16.5187 19.9967C16.5187 22.1941 18.3052 23.9806 20.5026 23.9806C22.7 23.9806 24.4865 22.1941 24.4865 19.9967C24.4865 17.8053 22.7 16.0188 20.5026 16.0188ZM20.5026 16.0188C18.3052 16.0188 16.5187 17.8053 16.5187 19.9967C16.5187 22.1941 18.3052 23.9806 20.5026 23.9806C22.7 23.9806 24.4865 22.1941 24.4865 19.9967C24.4865 17.8053 22.7 16.0188 20.5026 16.0188ZM20.5026 16.0188C18.3052 16.0188 16.5187 17.8053 16.5187 19.9967C16.5187 22.1941 18.3052 23.9806 20.5026 23.9806C22.7 23.9806 24.4865 22.1941 24.4865 19.9967C24.4865 17.8053 22.7 16.0188 20.5026 16.0188ZM20.5026 16.0188C18.3052 16.0188 16.5187 17.8053 16.5187 19.9967C16.5187 22.1941 18.3052 23.9806 20.5026 23.9806C22.7 23.9806 24.4865 22.1941 24.4865 19.9967C24.4865 17.8053 22.7 16.0188 20.5026 16.0188ZM20.5026 16.0188C18.3052 16.0188 16.5187 17.8053 16.5187 19.9967C16.5187 22.1941 18.3052 23.9806 20.5026 23.9806C22.7 23.9806 24.4865 22.1941 24.4865 19.9967C24.4865 17.8053 22.7 16.0188 20.5026 16.0188ZM20.5026 16.0188C18.3052 16.0188 16.5187 17.8053 16.5187 19.9967C16.5187 22.1941 18.3052 23.9806 20.5026 23.9806C22.7 23.9806 24.4865 22.1941 24.4865 19.9967C24.4865 17.8053 22.7 16.0188 20.5026 16.0188ZM20.5026 16.0188C18.3052 16.0188 16.5187 17.8053 16.5187 19.9967C16.5187 22.1941 18.3052 23.9806 20.5026 23.9806C22.7 23.9806 24.4865 22.1941 24.4865 19.9967C24.4865 17.8053 22.7 16.0188 20.5026 16.0188ZM20.5026 16.0188C18.3052 16.0188 16.5187 17.8053 16.5187 19.9967C16.5187 22.1941 18.3052 23.9806 20.5026 23.9806C22.7 23.9806 24.4865 22.1941 24.4865 19.9967C24.4865 17.8053 22.7 16.0188 20.5026 16.0188ZM20.5026 16.0188C18.3052 16.0188 16.5187 17.8053 16.5187 19.9967C16.5187 22.1941 18.3052 23.9806 20.5026 23.9806C22.7 23.9806 24.4865 22.1941 24.4865 19.9967C24.4865 17.8053 22.7 16.0188 20.5026 16.0188ZM20.5026 16.0188C18.3052 16.0188 16.5187 17.8053 16.5187 19.9967C16.5187 22.1941 18.3052 23.9806 20.5026 23.9806C22.7 23.9806 24.4865 22.1941 24.4865 19.9967C24.4865 17.8053 22.7 16.0188 20.5026 16.0188ZM20.5026 16.0188C18.3052 16.0188 16.5187 17.8053 16.5187 19.9967C16.5187 22.1941 18.3052 23.9806 20.5026 23.9806C22.7 23.9806 24.4865 22.1941 24.4865 19.9967C24.4865 17.8053 22.7 16.0188 20.5026 16.0188ZM20.5026 16.0188C18.3052 16.0188 16.5187 17.8053 16.5187 19.9967C16.5187 22.1941 18.3052 23.9806 20.5026 23.9806C22.7 23.9806 24.4865 22.1941 24.4865 19.9967C24.4865 17.8053 22.7 16.0188 20.5026 16.0188ZM20.5026 16.0188C18.3052 16.0188 16.5187 17.8053 16.5187 19.9967C16.5187 22.1941 18.3052 23.9806 20.5026 23.9806C22.7 23.9806 24.4865 22.1941 24.4865 19.9967C24.4865 17.8053 22.7 16.0188 20.5026 16.0188ZM20.5026 16.0188C18.3052 16.0188 16.5187 17.8053 16.5187 19.9967C16.5187 22.1941 18.3052 23.9806 20.5026 23.9806C22.7 23.9806 24.4865 22.1941 24.4865 19.9967C24.4865 17.8053 22.7 16.0188 20.5026 16.0188ZM25.4632 9.62305H15.4528C12.5765 9.62305 10.248 11.9574 10.248 14.8337V24.8382C10.248 27.7204 12.5765 30.0488 15.4528 30.0488H25.4632C28.3395 30.0488 30.6738 27.7204 30.6738 24.8382V14.8337C30.6738 11.9574 28.3395 9.62305 25.4632 9.62305ZM20.5026 26.2138C17.0725 26.2138 14.2856 23.4268 14.2856 19.9967C14.2856 16.5726 17.0725 13.7797 20.5026 13.7797C23.9327 13.7797 26.7197 16.5726 26.7197 19.9967C26.7197 23.4268 23.9327 26.2138 20.5026 26.2138ZM27.0829 14.8456C26.2671 14.8456 25.6001 14.1787 25.6001 13.3628C25.6001 12.547 26.2671 11.886 27.0829 11.886C27.8988 11.886 28.5598 12.547 28.5598 13.3628C28.5598 14.1787 27.8988 14.8456 27.0829 14.8456ZM20.5026 16.0188C18.3052 16.0188 16.5187 17.8053 16.5187 19.9967C16.5187 22.1941 18.3052 23.9806 20.5026 23.9806C22.7 23.9806 24.4865 22.1941 24.4865 19.9967C24.4865 17.8053 22.7 16.0188 20.5026 16.0188ZM20.5026 16.0188C18.3052 16.0188 16.5187 17.8053 16.5187 19.9967C16.5187 22.1941 18.3052 23.9806 20.5026 23.9806C22.7 23.9806 24.4865 22.1941 24.4865 19.9967C24.4865 17.8053 22.7 16.0188 20.5026 16.0188ZM20.5026 16.0188C18.3052 16.0188 16.5187 17.8053 16.5187 19.9967C16.5187 22.1941 18.3052 23.9806 20.5026 23.9806C22.7 23.9806 24.4865 22.1941 24.4865 19.9967C24.4865 17.8053 22.7 16.0188 20.5026 16.0188ZM20.5026 16.0188C18.3052 16.0188 16.5187 17.8053 16.5187 19.9967C16.5187 22.1941 18.3052 23.9806 20.5026 23.9806C22.7 23.9806 24.4865 22.1941 24.4865 19.9967C24.4865 17.8053 22.7 16.0188 20.5026 16.0188ZM20.5026 16.0188C18.3052 16.0188 16.5187 17.8053 16.5187 19.9967C16.5187 22.1941 18.3052 23.9806 20.5026 23.9806C22.7 23.9806 24.4865 22.1941 24.4865 19.9967C24.4865 17.8053 22.7 16.0188 20.5026 16.0188ZM20.5026 16.0188C18.3052 16.0188 16.5187 17.8053 16.5187 19.9967C16.5187 22.1941 18.3052 23.9806 20.5026 23.9806C22.7 23.9806 24.4865 22.1941 24.4865 19.9967C24.4865 17.8053 22.7 16.0188 20.5026 16.0188ZM20.5026 16.0188C18.3052 16.0188 16.5187 17.8053 16.5187 19.9967C16.5187 22.1941 18.3052 23.9806 20.5026 23.9806C22.7 23.9806 24.4865 22.1941 24.4865 19.9967C24.4865 17.8053 22.7 16.0188 20.5026 16.0188ZM20.5026 16.0188C18.3052 16.0188 16.5187 17.8053 16.5187 19.9967C16.5187 22.1941 18.3052 23.9806 20.5026 23.9806C22.7 23.9806 24.4865 22.1941 24.4865 19.9967C24.4865 17.8053 22.7 16.0188 20.5026 16.0188ZM20.5026 16.0188C18.3052 16.0188 16.5187 17.8053 16.5187 19.9967C16.5187 22.1941 18.3052 23.9806 20.5026 23.9806C22.7 23.9806 24.4865 22.1941 24.4865 19.9967C24.4865 17.8053 22.7 16.0188 20.5026 16.0188ZM20.5026 16.0188C18.3052 16.0188 16.5187 17.8053 16.5187 19.9967C16.5187 22.1941 18.3052 23.9806 20.5026 23.9806C22.7 23.9806 24.4865 22.1941 24.4865 19.9967C24.4865 17.8053 22.7 16.0188 20.5026 16.0188ZM20.5026 16.0188C18.3052 16.0188 16.5187 17.8053 16.5187 19.9967C16.5187 22.1941 18.3052 23.9806 20.5026 23.9806C22.7 23.9806 24.4865 22.1941 24.4865 19.9967C24.4865 17.8053 22.7 16.0188 20.5026 16.0188ZM20.5026 16.0188C18.3052 16.0188 16.5187 17.8053 16.5187 19.9967C16.5187 22.1941 18.3052 23.9806 20.5026 23.9806C22.7 23.9806 24.4865 22.1941 24.4865 19.9967C24.4865 17.8053 22.7 16.0188 20.5026 16.0188ZM20.5026 16.0188C18.3052 16.0188 16.5187 17.8053 16.5187 19.9967C16.5187 22.1941 18.3052 23.9806 20.5026 23.9806C22.7 23.9806 24.4865 22.1941 24.4865 19.9967C24.4865 17.8053 22.7 16.0188 20.5026 16.0188ZM20.5026 16.0188C18.3052 16.0188 16.5187 17.8053 16.5187 19.9967C16.5187 22.1941 18.3052 23.9806 20.5026 23.9806C22.7 23.9806 24.4865 22.1941 24.4865 19.9967C24.4865 17.8053 22.7 16.0188 20.5026 16.0188ZM20.5026 16.0188C18.3052 16.0188 16.5187 17.8053 16.5187 19.9967C16.5187 22.1941 18.3052 23.9806 20.5026 23.9806C22.7 23.9806 24.4865 22.1941 24.4865 19.9967C24.4865 17.8053 22.7 16.0188 20.5026 16.0188ZM20.5026 16.0188C18.3052 16.0188 16.5187 17.8053 16.5187 19.9967C16.5187 22.1941 18.3052 23.9806 20.5026 23.9806C22.7 23.9806 24.4865 22.1941 24.4865 19.9967C24.4865 17.8053 22.7 16.0188 20.5026 16.0188ZM20.5026 16.0188C18.3052 16.0188 16.5187 17.8053 16.5187 19.9967C16.5187 22.1941 18.3052 23.9806 20.5026 23.9806C22.7 23.9806 24.4865 22.1941 24.4865 19.9967C24.4865 17.8053 22.7 16.0188 20.5026 16.0188ZM20.5026 16.0188C18.3052 16.0188 16.5187 17.8053 16.5187 19.9967C16.5187 22.1941 18.3052 23.9806 20.5026 23.9806C22.7 23.9806 24.4865 22.1941 24.4865 19.9967C24.4865 17.8053 22.7 16.0188 20.5026 16.0188ZM20.5026 16.0188C18.3052 16.0188 16.5187 17.8053 16.5187 19.9967C16.5187 22.1941 18.3052 23.9806 20.5026 23.9806C22.7 23.9806 24.4865 22.1941 24.4865 19.9967C24.4865 17.8053 22.7 16.0188 20.5026 16.0188ZM25.4632 9.62305H15.4528C12.5765 9.62305 10.248 11.9574 10.248 14.8337V24.8382C10.248 27.7204 12.5765 30.0488 15.4528 30.0488H25.4632C28.3395 30.0488 30.6738 27.7204 30.6738 24.8382V14.8337C30.6738 11.9574 28.3395 9.62305 25.4632 9.62305ZM20.5026 26.2138C17.0725 26.2138 14.2856 23.4268 14.2856 19.9967C14.2856 16.5726 17.0725 13.7797 20.5026 13.7797C23.9327 13.7797 26.7197 16.5726 26.7197 19.9967C26.7197 23.4268 23.9327 26.2138 20.5026 26.2138ZM27.0829 14.8456C26.2671 14.8456 25.6001 14.1787 25.6001 13.3628C25.6001 12.547 26.2671 11.886 27.0829 11.886C27.8988 11.886 28.5598 12.547 28.5598 13.3628C28.5598 14.1787 27.8988 14.8456 27.0829 14.8456ZM20.5026 16.0188C18.3052 16.0188 16.5187 17.8053 16.5187 19.9967C16.5187 22.1941 18.3052 23.9806 20.5026 23.9806C22.7 23.9806 24.4865 22.1941 24.4865 19.9967C24.4865 17.8053 22.7 16.0188 20.5026 16.0188ZM20.5026 16.0188C18.3052 16.0188 16.5187 17.8053 16.5187 19.9967C16.5187 22.1941 18.3052 23.9806 20.5026 23.9806C22.7 23.9806 24.4865 22.1941 24.4865 19.9967C24.4865 17.8053 22.7 16.0188 20.5026 16.0188ZM20.5026 16.0188C18.3052 16.0188 16.5187 17.8053 16.5187 19.9967C16.5187 22.1941 18.3052 23.9806 20.5026 23.9806C22.7 23.9806 24.4865 22.1941 24.4865 19.9967C24.4865 17.8053 22.7 16.0188 20.5026 16.0188ZM20.5026 16.0188C18.3052 16.0188 16.5187 17.8053 16.5187 19.9967C16.5187 22.1941 18.3052 23.9806 20.5026 23.9806C22.7 23.9806 24.4865 22.1941 24.4865 19.9967C24.4865 17.8053 22.7 16.0188 20.5026 16.0188ZM20.5026 16.0188C18.3052 16.0188 16.5187 17.8053 16.5187 19.9967C16.5187 22.1941 18.3052 23.9806 20.5026 23.9806C22.7 23.9806 24.4865 22.1941 24.4865 19.9967C24.4865 17.8053 22.7 16.0188 20.5026 16.0188ZM20.5026 16.0188C18.3052 16.0188 16.5187 17.8053 16.5187 19.9967C16.5187 22.1941 18.3052 23.9806 20.5026 23.9806C22.7 23.9806 24.4865 22.1941 24.4865 19.9967C24.4865 17.8053 22.7 16.0188 20.5026 16.0188ZM20.5026 16.0188C18.3052 16.0188 16.5187 17.8053 16.5187 19.9967C16.5187 22.1941 18.3052 23.9806 20.5026 23.9806C22.7 23.9806 24.4865 22.1941 24.4865 19.9967C24.4865 17.8053 22.7 16.0188 20.5026 16.0188ZM20.5026 16.0188C18.3052 16.0188 16.5187 17.8053 16.5187 19.9967C16.5187 22.1941 18.3052 23.9806 20.5026 23.9806C22.7 23.9806 24.4865 22.1941 24.4865 19.9967C24.4865 17.8053 22.7 16.0188 20.5026 16.0188ZM20.5026 16.0188C18.3052 16.0188 16.5187 17.8053 16.5187 19.9967C16.5187 22.1941 18.3052 23.9806 20.5026 23.9806C22.7 23.9806 24.4865 22.1941 24.4865 19.9967C24.4865 17.8053 22.7 16.0188 20.5026 16.0188ZM20.5026 16.0188C18.3052 16.0188 16.5187 17.8053 16.5187 19.9967C16.5187 22.1941 18.3052 23.9806 20.5026 23.9806C22.7 23.9806 24.4865 22.1941 24.4865 19.9967C24.4865 17.8053 22.7 16.0188 20.5026 16.0188ZM20.5026 16.0188C18.3052 16.0188 16.5187 17.8053 16.5187 19.9967C16.5187 22.1941 18.3052 23.9806 20.5026 23.9806C22.7 23.9806 24.4865 22.1941 24.4865 19.9967C24.4865 17.8053 22.7 16.0188 20.5026 16.0188ZM20.5026 16.0188C18.3052 16.0188 16.5187 17.8053 16.5187 19.9967C16.5187 22.1941 18.3052 23.9806 20.5026 23.9806C22.7 23.9806 24.4865 22.1941 24.4865 19.9967C24.4865 17.8053 22.7 16.0188 20.5026 16.0188ZM20.5026 16.0188C18.3052 16.0188 16.5187 17.8053 16.5187 19.9967C16.5187 22.1941 18.3052 23.9806 20.5026 23.9806C22.7 23.9806 24.4865 22.1941 24.4865 19.9967C24.4865 17.8053 22.7 16.0188 20.5026 16.0188ZM20.5026 16.0188C18.3052 16.0188 16.5187 17.8053 16.5187 19.9967C16.5187 22.1941 18.3052 23.9806 20.5026 23.9806C22.7 23.9806 24.4865 22.1941 24.4865 19.9967C24.4865 17.8053 22.7 16.0188 20.5026 16.0188ZM20.5026 16.0188C18.3052 16.0188 16.5187 17.8053 16.5187 19.9967C16.5187 22.1941 18.3052 23.9806 20.5026 23.9806C22.7 23.9806 24.4865 22.1941 24.4865 19.9967C24.4865 17.8053 22.7 16.0188 20.5026 16.0188ZM20.5026 16.0188C18.3052 16.0188 16.5187 17.8053 16.5187 19.9967C16.5187 22.1941 18.3052 23.9806 20.5026 23.9806C22.7 23.9806 24.4865 22.1941 24.4865 19.9967C24.4865 17.8053 22.7 16.0188 20.5026 16.0188ZM20.5026 16.0188C18.3052 16.0188 16.5187 17.8053 16.5187 19.9967C16.5187 22.1941 18.3052 23.9806 20.5026 23.9806C22.7 23.9806 24.4865 22.1941 24.4865 19.9967C24.4865 17.8053 22.7 16.0188 20.5026 16.0188ZM20.5026 16.0188C18.3052 16.0188 16.5187 17.8053 16.5187 19.9967C16.5187 22.1941 18.3052 23.9806 20.5026 23.9806C22.7 23.9806 24.4865 22.1941 24.4865 19.9967C24.4865 17.8053 22.7 16.0188 20.5026 16.0188ZM20.5026 16.0188C18.3052 16.0188 16.5187 17.8053 16.5187 19.9967C16.5187 22.1941 18.3052 23.9806 20.5026 23.9806C22.7 23.9806 24.4865 22.1941 24.4865 19.9967C24.4865 17.8053 22.7 16.0188 20.5026 16.0188ZM25.4632 9.62305H15.4528C12.5765 9.62305 10.248 11.9574 10.248 14.8337V24.8382C10.248 27.7204 12.5765 30.0488 15.4528 30.0488H25.4632C28.3395 30.0488 30.6738 27.7204 30.6738 24.8382V14.8337C30.6738 11.9574 28.3395 9.62305 25.4632 9.62305ZM20.5026 26.2138C17.0725 26.2138 14.2856 23.4268 14.2856 19.9967C14.2856 16.5726 17.0725 13.7797 20.5026 13.7797C23.9327 13.7797 26.7197 16.5726 26.7197 19.9967C26.7197 23.4268 23.9327 26.2138 20.5026 26.2138ZM27.0829 14.8456C26.2671 14.8456 25.6001 14.1787 25.6001 13.3628C25.6001 12.547 26.2671 11.886 27.0829 11.886C27.8988 11.886 28.5598 12.547 28.5598 13.3628C28.5598 14.1787 27.8988 14.8456 27.0829 14.8456ZM20.5026 16.0188C18.3052 16.0188 16.5187 17.8053 16.5187 19.9967C16.5187 22.1941 18.3052 23.9806 20.5026 23.9806C22.7 23.9806 24.4865 22.1941 24.4865 19.9967C24.4865 17.8053 22.7 16.0188 20.5026 16.0188ZM20.5026 16.0188C18.3052 16.0188 16.5187 17.8053 16.5187 19.9967C16.5187 22.1941 18.3052 23.9806 20.5026 23.9806C22.7 23.9806 24.4865 22.1941 24.4865 19.9967C24.4865 17.8053 22.7 16.0188 20.5026 16.0188ZM20.5026 16.0188C18.3052 16.0188 16.5187 17.8053 16.5187 19.9967C16.5187 22.1941 18.3052 23.9806 20.5026 23.9806C22.7 23.9806 24.4865 22.1941 24.4865 19.9967C24.4865 17.8053 22.7 16.0188 20.5026 16.0188ZM20.5026 16.0188C18.3052 16.0188 16.5187 17.8053 16.5187 19.9967C16.5187 22.1941 18.3052 23.9806 20.5026 23.9806C22.7 23.9806 24.4865 22.1941 24.4865 19.9967C24.4865 17.8053 22.7 16.0188 20.5026 16.0188ZM20.5026 16.0188C18.3052 16.0188 16.5187 17.8053 16.5187 19.9967C16.5187 22.1941 18.3052 23.9806 20.5026 23.9806C22.7 23.9806 24.4865 22.1941 24.4865 19.9967C24.4865 17.8053 22.7 16.0188 20.5026 16.0188ZM20.5026 16.0188C18.3052 16.0188 16.5187 17.8053 16.5187 19.9967C16.5187 22.1941 18.3052 23.9806 20.5026 23.9806C22.7 23.9806 24.4865 22.1941 24.4865 19.9967C24.4865 17.8053 22.7 16.0188 20.5026 16.0188ZM20.5026 16.0188C18.3052 16.0188 16.5187 17.8053 16.5187 19.9967C16.5187 22.1941 18.3052 23.9806 20.5026 23.9806C22.7 23.9806 24.4865 22.1941 24.4865 19.9967C24.4865 17.8053 22.7 16.0188 20.5026 16.0188ZM20.5026 16.0188C18.3052 16.0188 16.5187 17.8053 16.5187 19.9967C16.5187 22.1941 18.3052 23.9806 20.5026 23.9806C22.7 23.9806 24.4865 22.1941 24.4865 19.9967C24.4865 17.8053 22.7 16.0188 20.5026 16.0188ZM20.5026 16.0188C18.3052 16.0188 16.5187 17.8053 16.5187 19.9967C16.5187 22.1941 18.3052 23.9806 20.5026 23.9806C22.7 23.9806 24.4865 22.1941 24.4865 19.9967C24.4865 17.8053 22.7 16.0188 20.5026 16.0188ZM20.5026 16.0188C18.3052 16.0188 16.5187 17.8053 16.5187 19.9967C16.5187 22.1941 18.3052 23.9806 20.5026 23.9806C22.7 23.9806 24.4865 22.1941 24.4865 19.9967C24.4865 17.8053 22.7 16.0188 20.5026 16.0188ZM20.5026 16.0188C18.3052 16.0188 16.5187 17.8053 16.5187 19.9967C16.5187 22.1941 18.3052 23.9806 20.5026 23.9806C22.7 23.9806 24.4865 22.1941 24.4865 19.9967C24.4865 17.8053 22.7 16.0188 20.5026 16.0188Z" fill="white"/>
<path id="Vector_4" d="M20.335 0C9.30627 0 0.332031 8.96829 0.332031 19.997C0.332031 31.0258 9.30627 40 20.335 40C31.3637 40 40.338 31.0258 40.338 19.997C40.338 8.96829 31.3637 0 20.335 0ZM33.0431 24.8385C33.0431 29.0308 29.6487 32.4252 25.4623 32.4252H15.4519C11.2655 32.4252 7.87111 29.0308 7.87111 24.8385V14.834C7.87111 10.6417 11.2655 7.24728 15.4519 7.24728H25.4623C29.6487 7.24728 33.0431 10.6417 33.0431 14.834V24.8385Z" fill="white"/>
</g>
</g>
<defs>
<clipPath id="clip0_378_515">
<rect width="40.006" height="40" fill="white" transform="translate(0.332031)"/>
</clipPath>
</defs>
</svg>
