<svg width="41" height="40" viewBox="0 0 41 40" fill="none" xmlns="http://www.w3.org/2000/svg">
<g id="Frame" clip-path="url(#clip0_378_521)">
<g id="Group">
<g id="Group_2">
<g id="Group_3">
<path id="Vector" d="M20.668 0C9.63982 0 0.667969 8.97185 0.667969 20C0.667969 31.0281 9.63982 40 20.668 40C31.6961 40 40.668 31.0281 40.668 20C40.668 8.97185 31.6961 0 20.668 0ZM15.6665 28.9956C15.6665 29.1793 15.5183 29.3274 15.3346 29.3274H11.4828C11.2932 29.3274 11.145 29.1793 11.145 28.9956V16.0533C11.145 15.8696 11.2932 15.7215 11.4828 15.7215H15.3346C15.5183 15.7215 15.6665 15.8696 15.6665 16.0533V28.9956ZM13.2724 13.9911C11.9332 13.9911 10.8487 12.9067 10.8487 11.5674C10.8487 10.2341 11.9332 9.14963 13.2724 9.14963C14.6117 9.14963 15.6902 10.2341 15.6902 11.5674C15.6902 12.9067 14.6117 13.9911 13.2724 13.9911ZM31.9746 28.9956C31.9746 29.1793 31.8265 29.3274 31.6428 29.3274H27.785C27.6013 29.3274 27.4532 29.1793 27.4532 28.9956V22.0504C27.4532 20.2193 26.8013 18.9689 25.1657 18.9689C23.9154 18.9689 23.1687 19.8104 22.8428 20.6281C22.7243 20.9185 22.6946 21.3215 22.6946 21.7304V28.9896C22.6946 29.1793 22.5406 29.3274 22.3569 29.3274H18.505C18.3213 29.3274 18.1672 29.1793 18.1732 28.9896C18.1791 27.1407 18.2206 18.1689 18.1791 16.0593C18.1732 15.8756 18.3272 15.7215 18.5109 15.7215H22.3569C22.5465 15.7215 22.6946 15.8696 22.6946 16.0533V17.6474C23.2932 16.723 24.3657 15.4015 26.7717 15.4015C29.7465 15.4015 31.9746 17.3452 31.9746 21.523V28.9956ZM22.6946 17.6948V17.6474C22.6828 17.6652 22.6709 17.677 22.665 17.6948H22.6946Z" fill="white"/>
</g>
</g>
</g>
</g>
<defs>
<clipPath id="clip0_378_521">
<rect width="40" height="40" fill="white" transform="translate(0.667969)"/>
</clipPath>
</defs>
</svg>
