<svg width="40" height="40" viewBox="0 0 40 40" fill="none" xmlns="http://www.w3.org/2000/svg">
<g id="Frame" clip-path="url(#clip0_378_499)">
<g id="Group">
<g id="Group_2">
<path id="Vector" d="M15.9976 29.5341C15.9917 29.5282 15.9917 29.5341 15.9858 29.5341C15.9799 29.5341 15.9799 29.5341 15.9799 29.54C16.3408 29.54 16.0686 29.5104 15.9976 29.5341ZM24.1325 10.4245C24.168 10.4482 24.2035 10.4482 24.2272 10.4245H24.1325ZM24.1325 10.4245C24.168 10.4482 24.2035 10.4482 24.2272 10.4245H24.1325ZM15.9976 29.5341C15.9917 29.5282 15.9917 29.5341 15.9858 29.5341C15.9799 29.5341 15.9799 29.5341 15.9799 29.54C16.3408 29.54 16.0686 29.5104 15.9976 29.5341ZM15.9976 29.5341C15.9917 29.5282 15.9917 29.5341 15.9858 29.5341C15.9799 29.5341 15.9799 29.5341 15.9799 29.54C16.3408 29.54 16.0686 29.5104 15.9976 29.5341ZM24.1325 10.4245C24.168 10.4482 24.2035 10.4482 24.2272 10.4245H24.1325ZM24.1325 10.4245C24.168 10.4482 24.2035 10.4482 24.2272 10.4245H24.1325ZM15.9976 29.5341C15.9917 29.5282 15.9917 29.5341 15.9858 29.5341C15.9799 29.5341 15.9799 29.5341 15.9799 29.54C16.3408 29.54 16.0686 29.5104 15.9976 29.5341ZM15.9976 29.5341C15.9917 29.5282 15.9917 29.5341 15.9858 29.5341C15.9799 29.5341 15.9799 29.5341 15.9799 29.54C16.3408 29.54 16.0686 29.5104 15.9976 29.5341ZM24.1325 10.4245C24.168 10.4482 24.2035 10.4482 24.2272 10.4245H24.1325ZM24.1325 10.4245C24.168 10.4482 24.2035 10.4482 24.2272 10.4245H24.1325ZM15.9976 29.5341C15.9917 29.5282 15.9917 29.5341 15.9858 29.5341C15.9799 29.5341 15.9799 29.5341 15.9799 29.54C16.3408 29.54 16.0686 29.5104 15.9976 29.5341ZM15.9976 29.5341C15.9917 29.5282 15.9917 29.5341 15.9858 29.5341C15.9799 29.5341 15.9799 29.5341 15.9799 29.54C16.3408 29.54 16.0686 29.5104 15.9976 29.5341ZM24.1325 10.4245C24.168 10.4482 24.2035 10.4482 24.2272 10.4245H24.1325ZM24.1325 10.4245C24.168 10.4482 24.2035 10.4482 24.2272 10.4245H24.1325ZM15.9976 29.5341C15.9917 29.5282 15.9917 29.5341 15.9858 29.5341C15.9799 29.5341 15.9799 29.5341 15.9799 29.54C16.3408 29.54 16.0686 29.5104 15.9976 29.5341ZM20.003 0C8.975 0 0 8.96909 0 19.997C0 31.0309 8.975 40 20.003 40C31.0309 40 40.0059 31.0309 40.0059 19.997C40.0059 8.96909 31.0309 0 20.003 0ZM31.587 12.72C31.587 12.7792 31.593 12.9271 31.4687 13.0927C30.9244 13.8264 30.3446 14.4831 29.6169 15.0333C29.5104 15.1102 29.3329 15.193 29.3329 15.3468C29.3329 19.1983 28.3449 23.0439 25.5406 25.8364C21.9612 29.3862 16.5952 30.3565 11.8326 29.0371C10.9155 28.7827 10.0281 28.4277 9.18799 27.9781C8.90401 27.8243 8.63186 27.6705 8.35971 27.4871C8.28871 27.4338 8.24138 27.3806 8.30055 27.3451C8.35379 27.3155 8.40112 27.3155 8.61411 27.3451C9.94527 27.4811 11.3179 27.28 12.578 26.8422C13.2702 26.5996 14.7611 26.1086 15.1871 25.4578C15.1989 25.44 15.2108 25.44 15.2226 25.4223C15.0451 25.3868 14.8735 25.3868 14.702 25.3572C13.4063 24.9845 11.6787 24.3337 10.8741 22.1565C10.8268 22.0263 10.8741 21.9612 11.0102 21.9849C12.0751 22.0677 12.4597 22.0086 12.8265 21.9317C12.6194 21.8962 12.4064 21.8193 12.2112 21.7423C10.5842 21.1211 9.38914 19.5297 9.17616 17.8139C9.15249 17.6128 9.13474 17.4412 9.14658 17.2578C9.15249 17.1336 9.21165 17.0921 9.32406 17.1631C10.1583 17.595 11.0989 17.7015 11.1759 17.6838C10.9688 17.5181 10.7736 17.3406 10.5842 17.1631C9.17616 15.8261 8.62594 13.0987 9.75595 11.4066C9.85061 11.2646 9.90978 11.2646 10.0222 11.3948C12.6076 14.3411 15.7906 15.7137 19.6361 16.2875C19.7367 16.3053 19.7426 16.2875 19.7308 16.1751C19.6302 15.5007 19.6184 14.838 19.7781 14.1636C19.9497 13.4714 20.281 12.8206 20.7307 12.2645C21.1625 11.7261 21.7068 11.2824 22.3221 10.9629C22.8842 10.6671 23.4995 10.4837 24.1325 10.4245C24.1858 10.4127 24.239 10.4127 24.2923 10.4067C24.9963 10.3594 25.7181 10.4777 26.3689 10.744C26.8718 10.9451 27.3155 11.2232 27.7237 11.5723C27.8125 11.6432 27.8894 11.732 27.9722 11.8207C28.0195 11.874 28.0846 11.8917 28.1615 11.874C29.1436 11.6255 30.0666 11.2824 30.9599 10.8031C31.0013 10.7854 31.0368 10.7736 31.0842 10.7913C31.1256 10.8209 31.1078 10.8741 31.0901 10.9155C30.9303 11.4362 30.6464 11.9213 30.3032 12.3414C30.0843 12.6194 29.5223 13.3057 29.1436 13.3708C29.9423 13.2406 30.7588 13.0336 31.4983 12.7023C31.593 12.6549 31.587 12.6372 31.587 12.7023C31.587 12.7023 31.587 12.7082 31.587 12.72ZM24.2272 10.4245H24.1325C24.168 10.4482 24.2035 10.4482 24.2272 10.4245ZM15.9976 29.5341C15.9917 29.5282 15.9917 29.5341 15.9858 29.5341C15.9799 29.5341 15.9799 29.5341 15.9799 29.54C16.3408 29.54 16.0686 29.5104 15.9976 29.5341ZM15.9976 29.5341C15.9917 29.5282 15.9917 29.5341 15.9858 29.5341C15.9799 29.5341 15.9799 29.5341 15.9799 29.54C16.3408 29.54 16.0686 29.5104 15.9976 29.5341ZM24.1325 10.4245C24.168 10.4482 24.2035 10.4482 24.2272 10.4245H24.1325ZM24.1325 10.4245C24.168 10.4482 24.2035 10.4482 24.2272 10.4245H24.1325ZM15.9976 29.5341C15.9917 29.5282 15.9917 29.5341 15.9858 29.5341C15.9799 29.5341 15.9799 29.5341 15.9799 29.54C16.3408 29.54 16.0686 29.5104 15.9976 29.5341ZM15.9976 29.5341C15.9917 29.5282 15.9917 29.5341 15.9858 29.5341C15.9799 29.5341 15.9799 29.5341 15.9799 29.54C16.3408 29.54 16.0686 29.5104 15.9976 29.5341ZM24.1325 10.4245C24.168 10.4482 24.2035 10.4482 24.2272 10.4245H24.1325ZM24.1325 10.4245C24.168 10.4482 24.2035 10.4482 24.2272 10.4245H24.1325ZM15.9976 29.5341C15.9917 29.5282 15.9917 29.5341 15.9858 29.5341C15.9799 29.5341 15.9799 29.5341 15.9799 29.54C16.3408 29.54 16.0686 29.5104 15.9976 29.5341ZM15.9976 29.5341C15.9917 29.5282 15.9917 29.5341 15.9858 29.5341C15.9799 29.5341 15.9799 29.5341 15.9799 29.54C16.3408 29.54 16.0686 29.5104 15.9976 29.5341ZM24.1325 10.4245C24.168 10.4482 24.2035 10.4482 24.2272 10.4245H24.1325ZM24.1325 10.4245C24.168 10.4482 24.2035 10.4482 24.2272 10.4245H24.1325ZM15.9976 29.5341C15.9917 29.5282 15.9917 29.5341 15.9858 29.5341C15.9799 29.5341 15.9799 29.5341 15.9799 29.54C16.3408 29.54 16.0686 29.5104 15.9976 29.5341ZM15.9976 29.5341C15.9917 29.5282 15.9917 29.5341 15.9858 29.5341C15.9799 29.5341 15.9799 29.5341 15.9799 29.54C16.3408 29.54 16.0686 29.5104 15.9976 29.5341ZM24.1325 10.4245C24.168 10.4482 24.2035 10.4482 24.2272 10.4245H24.1325ZM24.1325 10.4245C24.168 10.4482 24.2035 10.4482 24.2272 10.4245H24.1325ZM15.9976 29.5341C15.9917 29.5282 15.9917 29.5341 15.9858 29.5341C15.9799 29.5341 15.9799 29.5341 15.9799 29.54C16.3408 29.54 16.0686 29.5104 15.9976 29.5341Z" fill="white"/>
</g>
<g id="Group_3">
<g id="Group_4">
<path id="Vector_2" d="M15.9805 29.5395C15.9805 29.5336 15.9805 29.5336 15.9864 29.5336C15.9923 29.5336 15.9923 29.5277 15.9982 29.5336C16.0692 29.5099 16.3414 29.5395 15.9805 29.5395Z" fill="white"/>
<path id="Vector_3" d="M24.2275 10.4238C24.2038 10.4475 24.1683 10.4475 24.1328 10.4238H24.2275Z" fill="white"/>
</g>
<g id="Group_5">
<path id="Vector_4" fill-rule="evenodd" clip-rule="evenodd" d="M15.1986 29.5156C14.8141 29.5156 15.1631 29.5215 15.1986 29.5156V29.5156Z" fill="white"/>
</g>
<g id="Group_6">
<path id="Vector_5" fill-rule="evenodd" clip-rule="evenodd" d="M15.9805 29.5395C15.9805 29.5336 15.9805 29.5336 15.9864 29.5336C15.9923 29.5336 15.9923 29.5277 15.9982 29.5336C16.0692 29.5099 16.3414 29.5395 15.9805 29.5395Z" fill="white"/>
</g>
<g id="Group_7">
<path id="Vector_6" fill-rule="evenodd" clip-rule="evenodd" d="M24.2275 10.4238C24.2038 10.4475 24.1683 10.4475 24.1328 10.4238H24.2275Z" fill="white"/>
</g>
</g>
</g>
</g>
<defs>
<clipPath id="clip0_378_499">
<rect width="40.0059" height="40" fill="white"/>
</clipPath>
</defs>
</svg>
