<svg width="24" height="24" viewBox="0 0 24 24" fill="none" xmlns="http://www.w3.org/2000/svg">
<path d="M19.8894 9.55029C19.8063 9.38537 19.6791 9.24669 19.522 9.14961C19.3649 9.05253 19.184 9.00085 18.9994 9.00029H13.9994V3.00029C14.0101 2.78097 13.9484 2.56422 13.8236 2.38349C13.6989 2.20276 13.5182 2.06809 13.3094 2.00029C13.1086 1.93423 12.8921 1.93349 12.6908 1.99817C12.4896 2.06285 12.3141 2.18962 12.1894 2.36029L4.18937 13.3603C4.08914 13.5052 4.02895 13.6739 4.0149 13.8495C4.00086 14.0251 4.03345 14.2013 4.10937 14.3603C4.1793 14.542 4.30076 14.6994 4.45886 14.8131C4.61696 14.9268 4.80482 14.9919 4.99937 15.0003H9.99937V21.0003C9.99953 21.2112 10.0663 21.4166 10.1903 21.5872C10.3142 21.7578 10.4889 21.8849 10.6894 21.9503C10.7898 21.9814 10.8942 21.9983 10.9994 22.0003C11.1572 22.0007 11.3128 21.9638 11.4536 21.8925C11.5944 21.8212 11.7163 21.7177 11.8094 21.5903L19.8094 10.5903C19.9171 10.4411 19.9816 10.265 19.9957 10.0815C20.0098 9.89805 19.973 9.71421 19.8894 9.55029ZM11.9994 17.9203V14.0003C11.9994 13.7351 11.894 13.4807 11.7065 13.2932C11.5189 13.1056 11.2646 13.0003 10.9994 13.0003H6.99937L11.9994 6.08029V10.0003C11.9994 10.2655 12.1047 10.5199 12.2923 10.7074C12.4798 10.8949 12.7342 11.0003 12.9994 11.0003H16.9994L11.9994 17.9203Z" fill="white"/>
</svg>
