<svg width="69" height="72" viewBox="0 0 69 72" fill="none" xmlns="http://www.w3.org/2000/svg">
<g id="fi_16174834">
<g id="_x34_8_Leadership_Growth">
<g id="Group">
<path id="Vector" d="M52.5268 0.705933L46.7494 7.85452L52.5268 15.003H34.0573V0.705933H52.5268Z" fill="#051324"/>
<path id="Vector_2" d="M46.7494 7.85452L52.5268 15.003H46.3484C44.5657 12.7992 44.5651 9.64934 46.3468 7.44466L49.0693 4.07595H34.0573V0.705933H52.5268L46.7494 7.85452Z" fill="#10314C"/>
<path id="Vector_3" d="M46.8338 55.2267C46.8338 61.6755 41.6059 66.9034 35.1571 66.9034H32.9468C26.5006 66.9034 21.275 61.6777 21.275 55.2316C21.275 52.6731 23.349 50.5992 25.9074 50.5992H30.3128L34.0544 55.7421L37.796 50.5992H42.2062C44.7619 50.5992 46.8338 52.6709 46.8338 55.2267Z" fill="#051324"/>
<path id="Vector_4" d="M46.8337 55.2265C46.8337 61.6768 41.6078 66.9027 35.1575 66.9027H32.9472C31.1559 66.9027 29.4611 66.4967 27.9469 65.775C28.4947 65.8589 29.0552 65.8975 29.6223 65.8975H31.8324C38.2827 65.8975 43.5086 60.6716 43.5086 54.2214C43.5086 52.7522 42.8256 51.4442 41.7623 50.6H42.207C44.7654 50.5998 46.8337 52.6683 46.8337 55.2265Z" fill="#051324"/>
<path id="Vector_5" d="M40.8129 40.7704C40.8129 44.5023 37.7839 47.5313 34.052 47.5313C30.3201 47.5313 27.296 44.5024 27.296 40.7704C27.296 37.0385 30.3201 34.0142 34.052 34.0142C37.7839 34.0142 40.8129 37.0385 40.8129 40.7704Z" fill="#051324"/>
<path id="Vector_6" d="M40.81 40.7693C40.81 44.2502 38.1838 47.1109 34.8132 47.4899C36.247 46.2493 37.1499 44.4226 37.1499 42.3823C37.1499 38.6463 34.124 35.6204 30.3949 35.6204C30.133 35.6204 29.8779 35.6342 29.6298 35.6617C30.8154 34.6346 32.3594 34.0143 34.0551 34.0143C37.784 34.0143 40.81 37.0403 40.81 40.7693Z" fill="#051324"/>
<path id="Vector_7" d="M26.2653 59.6176C26.2653 66.0665 21.0374 71.2944 14.5885 71.2944H12.3782C5.93199 71.2944 0.70639 66.0686 0.70639 59.6225C0.70639 57.064 2.78044 54.9901 5.33881 54.9901H9.74426L13.4858 60.1331L17.2274 54.9901H21.6376C24.1934 54.99 26.2653 57.0619 26.2653 59.6176Z" fill="#10314C"/>
<path id="Vector_8" d="M26.2622 59.6182C26.2622 66.0685 21.0365 71.2943 14.5862 71.2943H12.3759C9.90152 71.2943 7.60756 70.5212 5.71957 69.213C6.76351 69.5158 7.87183 69.6833 9.0124 69.6833H11.2225C17.6728 69.6833 22.8986 64.4574 22.8986 58.0071C22.8986 56.8601 22.4798 55.8033 21.7838 54.9979C24.2776 55.0753 26.2622 57.1115 26.2622 59.6182Z" fill="#051324"/>
<path id="Vector_9" d="M20.2443 45.1613C20.2443 48.8932 17.2153 51.9222 13.4834 51.9222C9.75145 51.9222 6.72736 48.8934 6.72736 45.1613C6.72736 41.4294 9.75145 38.4052 13.4834 38.4052C17.2153 38.4052 20.2443 41.4294 20.2443 45.1613Z" fill="#051324"/>
<path id="Vector_10" d="M20.2414 45.1603C20.2414 48.6412 17.6152 51.5018 14.2446 51.8809C15.6784 50.6402 16.5814 48.8136 16.5814 46.7732C16.5814 43.0373 13.5554 40.0113 9.82635 40.0113C9.56439 40.0113 9.30935 40.0251 9.06122 40.0526C10.2469 39.0255 11.7908 38.4053 13.4865 38.4053C17.2154 38.4051 20.2414 41.4312 20.2414 45.1603Z" fill="#051324"/>
<path id="Vector_11" d="M67.4023 59.6176C67.4023 66.0665 62.1744 71.2944 55.7255 71.2944H53.5153C47.069 71.2944 41.8434 66.0686 41.8434 59.6225C41.8434 57.064 43.9175 54.9901 46.4758 54.9901H50.8813L54.6228 60.1331L58.3644 54.9901H62.7746C65.3304 54.99 67.4023 57.0619 67.4023 59.6176Z" fill="#10314C"/>
<path id="Vector_12" d="M67.3994 59.6182C67.3994 66.0684 62.1735 71.2943 55.7232 71.2943H53.5129C51.7216 71.2943 50.0269 70.8883 48.5126 70.1667C49.0604 70.2505 49.6209 70.2891 50.188 70.2891H52.3981C58.8484 70.2891 64.0743 65.0632 64.0743 58.6131C64.0743 57.1439 63.3913 55.8358 62.328 54.9916H62.7727C65.331 54.9915 67.3994 57.0599 67.3994 59.6182Z" fill="#051324"/>
<path id="Vector_13" d="M61.3813 45.1613C61.3813 48.8932 58.3523 51.9222 54.6204 51.9222C50.8885 51.9222 47.8644 48.8934 47.8644 45.1613C47.8644 41.4294 50.8885 38.4052 54.6204 38.4052C58.3523 38.4052 61.3813 41.4294 61.3813 45.1613Z" fill="#051324"/>
<path id="Vector_14" d="M61.3786 45.1603C61.3786 48.6412 58.7524 51.5018 55.3818 51.8809C56.8156 50.6402 57.7185 48.8136 57.7185 46.7732C57.7185 43.0373 54.6926 40.0113 50.9635 40.0113C50.7016 40.0113 50.4465 40.0251 50.1984 40.0526C51.384 39.0255 52.928 38.4053 54.6237 38.4053C58.3525 38.4051 61.3786 41.4312 61.3786 45.1603Z" fill="#051324"/>
<g id="Group_2">
<path id="Vector_15" d="M53.164 0.401504C53.0468 0.156108 52.7994 0 52.5271 0H34.0576C34.057 0 34.0564 0.000288002 34.0558 0.000288002C34.0553 0.000288002 34.0547 0 34.0541 0C33.664 0 33.3482 0.316105 33.3482 0.705944V27.3C33.3482 27.6898 33.6638 28.0059 34.0541 28.0059C34.4442 28.0059 34.7601 27.6898 34.7601 27.3V15.7091H52.5271C52.7994 15.7091 53.0468 15.553 53.164 15.3076C53.2812 15.0622 53.2467 14.771 53.0757 14.5596L47.6576 7.85468L53.0757 1.1495C53.2467 0.938091 53.2811 0.6469 53.164 0.401504ZM46.2009 7.41098C45.9914 7.66976 45.9914 8.0393 46.2009 8.29809L51.0491 14.297H34.7635V1.41174H51.0492L46.2009 7.41098Z" fill="#2797F3"/>
<path id="Vector_16" d="M26.59 40.7705C26.59 44.8877 29.9374 48.2371 34.0521 48.2371C38.1695 48.2371 41.5189 44.8875 41.5189 40.7705C41.5189 36.6558 38.1694 33.3084 34.0521 33.3084C29.9374 33.3084 26.59 36.656 26.59 40.7705ZM34.0521 34.7202C37.3913 34.7202 40.1072 37.4345 40.1072 40.7705C40.1072 44.109 37.3911 46.8253 34.0521 46.8253C30.7156 46.8253 28.0017 44.109 28.0017 40.7705C28.0017 37.4345 30.7156 34.7202 34.0521 34.7202Z" fill="#2797F3"/>
<path id="Vector_17" d="M0 59.6222C0 66.4474 5.55265 72 12.3778 72H14.5885C19.409 72 23.5843 69.2252 25.629 65.1946C27.6813 66.7065 30.2083 67.6093 32.9471 67.6093H35.1571C37.8976 67.6093 40.4235 66.7033 42.4752 65.1883C44.5174 69.2222 48.6936 72 53.5157 72H55.7257C62.5536 72 68.1082 66.4454 68.1082 59.6175C68.1082 56.6768 65.7155 54.284 62.7748 54.284H58.3644C58.1383 54.284 57.9266 54.3919 57.7937 54.5746L54.6227 58.933L51.4517 54.5746C51.3186 54.392 51.1071 54.284 50.881 54.284H47.447C47.0003 51.7923 44.8246 49.8932 42.2063 49.8932H37.796C37.5699 49.8932 37.3582 50.0011 37.2252 50.1839L34.0541 54.5422L30.8831 50.1839C30.7501 50.0013 30.5385 49.8932 30.3124 49.8932H25.9075C23.2882 49.8932 21.1109 51.792 20.6618 54.284H17.2272C17.0011 54.284 16.7894 54.3919 16.6565 54.5746L13.4855 58.933L10.3147 54.5746C10.1816 54.392 9.97006 54.284 9.74396 54.284H5.33894C2.39477 54.284 0 56.6788 0 59.6222ZM50.5217 55.6958L54.0518 60.5481C54.318 60.9134 54.9273 60.9134 55.1934 60.5481L58.7236 55.6958H62.7748C64.9372 55.6958 66.6965 57.455 66.6965 59.6175C66.6965 65.6668 61.7753 70.5883 55.7257 70.5883H53.5157C47.4688 70.5883 42.5496 65.6688 42.5496 59.6222C42.5496 57.457 44.3109 55.6958 46.4761 55.6958H50.5217ZM25.9075 51.3051H29.9532L33.4834 56.1575C33.7495 56.5228 34.3588 56.5228 34.625 56.1575L38.1551 51.3051H42.2063C44.0512 51.3051 45.5932 52.5887 46.0082 54.3078C43.2834 54.546 41.1379 56.8368 41.1379 59.6224C41.1379 61.1093 41.415 62.5294 41.8978 63.8513C40.0356 65.3123 37.7025 66.1977 35.1572 66.1977H32.9472C30.4047 66.1977 28.0674 65.3206 26.2056 63.8631C26.6921 62.5365 26.9713 61.1107 26.9713 59.6176C26.9713 56.8314 24.8225 54.5408 22.0957 54.3073C22.5127 52.5874 24.0612 51.3051 25.9075 51.3051ZM12.9148 60.5481C13.1809 60.9134 13.7903 60.9134 14.0564 60.5481L17.5865 55.6958H21.6377C23.8002 55.6958 25.5595 57.455 25.5595 59.6175C25.5595 65.6668 20.6383 70.5883 14.5887 70.5883H12.3779C6.33104 70.5883 1.41189 65.6688 1.41189 59.6222C1.41189 57.457 3.17387 55.6958 5.33908 55.6958H9.3848L12.9148 60.5481Z" fill="#2797F3"/>
<path id="Vector_18" d="M20.9505 45.1613C20.9505 41.0466 17.6009 37.6992 13.4836 37.6992C9.36895 37.6992 6.02155 41.0466 6.02155 45.1613C6.02155 49.2784 9.36895 52.6278 13.4836 52.6278C17.6009 52.6278 20.9505 49.2784 20.9505 45.1613ZM7.43315 45.1613C7.43315 41.8252 10.147 39.1109 13.4835 39.1109C16.8227 39.1109 19.5386 41.8252 19.5386 45.1613C19.5386 48.4997 16.8226 51.2161 13.4835 51.2161C10.1472 51.2161 7.43315 48.4997 7.43315 45.1613Z" fill="#2797F3"/>
<path id="Vector_19" d="M47.1584 45.1613C47.1584 49.2784 50.5059 52.6278 54.6205 52.6278C58.738 52.6278 62.0874 49.2783 62.0874 45.1613C62.0874 41.0466 58.7378 37.6992 54.6205 37.6992C50.5059 37.6992 47.1584 41.0466 47.1584 45.1613ZM54.6205 39.1109C57.9597 39.1109 60.6757 41.8252 60.6757 45.1613C60.6757 48.4997 57.9596 51.2161 54.6205 51.2161C51.2841 51.2161 48.5702 48.4997 48.5702 45.1613C48.5702 41.8252 51.2841 39.1109 54.6205 39.1109Z" fill="#2797F3"/>
</g>
</g>
</g>
</g>
</svg>
