<svg width="72" height="72" viewBox="0 0 72 72" fill="none" xmlns="http://www.w3.org/2000/svg">
<g id="fi_13829209">
<g id="Group">
<path id="Vector" opacity="0.8" d="M36 69.75C54.6396 69.75 69.75 54.6396 69.75 36C69.75 17.3604 54.6396 2.25 36 2.25C17.3604 2.25 2.25 17.3604 2.25 36C2.25 54.6396 17.3604 69.75 36 69.75Z" fill="#17507E"/>
</g>
<g id="Group_2">
<path id="Vector_2" d="M61.3125 13.6688L2.86875 29.4188C2.475 31.5563 2.25 33.75 2.25 36C2.25 54.6188 17.3813 69.75 36 69.75H36.0563L49.3313 45L65.1375 19.0125C64.0125 17.1 62.775 15.3 61.3125 13.6688Z" fill="#051325"/>
</g>
<g id="Group_3">
<path id="Vector_3" d="M2.86918 29.9812C2.64418 29.9812 2.41918 29.8124 2.30668 29.5874C2.25043 29.3062 2.41918 28.9687 2.70043 28.9124L10.5192 26.7749C10.8004 26.7187 11.1379 26.8874 11.1942 27.1687C11.2504 27.4499 11.0817 27.7874 10.8004 27.8437L3.03793 29.9812C2.98168 29.9812 2.92543 29.9812 2.86918 29.9812Z" fill="#2797F3"/>
</g>
<g id="Group_4">
<path id="Vector_4" d="M36.0563 70.3125C35.9438 70.3125 35.8875 70.3125 35.775 70.2563C35.4938 70.0875 35.3813 69.75 35.55 69.4688L48.825 44.7188C48.9938 44.4375 49.3312 44.325 49.6125 44.4938C49.8937 44.6625 50.0063 45 49.8375 45.2813L36.5625 70.0313C36.45 70.2 36.225 70.3125 36.0563 70.3125Z" fill="#2797F3"/>
</g>
<g id="Group_5">
<g id="Group_6">
<g id="Group_7">
<g id="Group_8">
<g id="Group_9">
<path id="Vector_5" d="M40.1625 31.95L34.8188 48.3188L47.925 34.4813L54.45 36.6188L69.75 11.4188L19.125 25.0875L31.05 28.9688L34.8188 48.3188" fill="#2797F3"/>
</g>
</g>
<g id="Group_10">
<g id="Group_11">
<path id="Vector_6" d="M39.4875 19.575L49.3312 20.5875L50.175 24.9188L54.1688 22.1625L60.3 27L69.75 11.4188L39.4875 19.575Z" fill="#CDECF5"/>
</g>
</g>
<g id="Group_12" opacity="0.1">
<g id="Group_13">
<path id="Vector_7" d="M34.8188 48.3188L47.925 34.4813L40.1625 31.95L34.8188 48.3188Z" fill="#051325"/>
</g>
</g>
<g id="Group_14">
<g id="Group_15">
<path id="Vector_8" d="M69.75 11.4188L30.9937 28.8563L34.8188 48.3188L47.925 34.4813L40.1625 31.95L69.75 11.4188Z" fill="#CDECF5"/>
</g>
</g>
<g id="Group_16">
<path id="Vector_9" d="M49.3312 20.5875L50.175 24.9188L54.1688 22.1625V22.2188L69.75 11.4188L49.3312 20.5875Z" fill="#72B6D3"/>
</g>
<g id="Group_17">
<g id="Group_18">
<path id="Vector_10" d="M34.8187 48.8812C34.7062 48.8812 34.5937 48.8812 34.5375 48.825C34.3125 48.7125 34.2 48.4312 34.3125 48.15L39.6562 31.7812C39.7687 31.5 40.05 31.3312 40.3875 31.4437C40.6687 31.5562 40.8375 31.8375 40.725 32.175L36.1687 46.1812L45.1687 36.675C45.3937 36.45 45.7312 36.45 45.9562 36.675C46.1812 36.9 46.1812 37.2375 45.9562 37.4625L35.2125 48.6562C35.1 48.7687 34.9312 48.8812 34.8187 48.8812Z" fill="#2797F3"/>
</g>
<g id="Group_19">
<path id="Vector_11" d="M34.8188 48.8812C34.5375 48.8812 34.3125 48.7125 34.2563 48.4312L30.5438 29.4187L18.9563 25.65C18.7313 25.5937 18.5625 25.3687 18.5625 25.0875C18.5625 24.8625 18.7313 24.6375 18.9563 24.5812L69.5813 10.9125C69.8063 10.8563 70.0313 10.9125 70.2 11.1375C70.3125 11.3062 70.3688 11.5875 70.2563 11.7563L54.9 36.9C54.7875 37.125 54.5063 37.2375 54.225 37.125L47.7 34.9875C47.4188 34.875 47.25 34.5938 47.3625 34.2563C47.475 33.975 47.7563 33.8062 48.0938 33.9187L54.225 35.8875L68.5688 12.2625L21.0938 25.1437L31.2188 28.4625C31.3875 28.5187 31.5563 28.6875 31.6125 28.9125L35.3813 48.2625C35.4375 48.5438 35.2688 48.8812 34.9313 48.9375C34.875 48.825 34.8188 48.8812 34.8188 48.8812Z" fill="#2797F3"/>
</g>
</g>
</g>
<g id="Group_20">
<path id="Vector_12" d="M47.925 35.0437C47.8688 35.0437 47.8125 35.0437 47.7563 35.0437L39.9938 32.5125C39.7125 32.4 39.5438 32.1187 39.6563 31.7812C39.7688 31.5 40.05 31.3312 40.3875 31.4437L48.15 33.975C48.4313 34.0875 48.6 34.3687 48.4875 34.7062C48.375 34.875 48.15 35.0437 47.925 35.0437Z" fill="#2797F3"/>
</g>
</g>
<g id="Group_21">
<g id="Group_22">
<g id="Group_23">
<g id="Group_24">
<path id="Vector_13" d="M40.1625 31.95L34.8188 48.3188L47.925 34.4813L54.45 36.6188L69.75 11.4188L19.125 25.0875L31.05 28.9688L34.8188 48.3188" fill="#051325"/>
</g>
</g>
<g id="Group_25">
<g id="Group_26">
<path id="Vector_14" d="M39.4875 19.575L49.3312 20.5875L50.175 24.9188L54.1688 22.1625L60.3 27L69.75 11.4188L39.4875 19.575Z" fill="#10314C"/>
</g>
</g>
<g id="Group_27">
<g id="Group_28">
<path id="Vector_15" d="M34.8188 48.3188L47.925 34.4813L40.1625 31.95L34.8188 48.3188Z" fill="#17507E"/>
</g>
</g>
<g id="Group_29">
<path id="Vector_16" d="M49.3312 20.5875L50.175 24.9188L54.1688 22.1625V22.2188L69.75 11.4188L49.3312 20.5875Z" fill="#17507E"/>
</g>
<g id="Group_30">
<g id="Group_31">
<path id="Vector_17" d="M34.8187 48.8812C34.7062 48.8812 34.5937 48.8812 34.5375 48.825C34.3125 48.7125 34.2 48.4312 34.3125 48.15L39.6562 31.7812C39.7687 31.5 40.05 31.3312 40.3875 31.4437C40.6687 31.5562 40.8375 31.8375 40.725 32.175L36.1687 46.1812L45.1687 36.675C45.3937 36.45 45.7312 36.45 45.9562 36.675C46.1812 36.9 46.1812 37.2375 45.9562 37.4625L35.2125 48.6562C35.1 48.7687 34.9312 48.8812 34.8187 48.8812Z" fill="#2797F3"/>
</g>
<g id="Group_32">
<path id="Vector_18" d="M34.8188 48.8812C34.5375 48.8812 34.3125 48.7125 34.2563 48.4312L30.5438 29.4187L18.9563 25.65C18.7313 25.5937 18.5625 25.3687 18.5625 25.0875C18.5625 24.8625 18.7313 24.6375 18.9563 24.5812L69.5813 10.9125C69.8063 10.8563 70.0313 10.9125 70.2 11.1375C70.3125 11.3062 70.3688 11.5875 70.2563 11.7563L54.9 36.9C54.7875 37.125 54.5063 37.2375 54.225 37.125L47.7 34.9875C47.4188 34.875 47.25 34.5938 47.3625 34.2563C47.475 33.975 47.7563 33.8062 48.0938 33.9187L54.225 35.8875L68.5688 12.2625L21.0938 25.1437L31.2188 28.4625C31.3875 28.5187 31.5563 28.6875 31.6125 28.9125L35.3813 48.2625C35.4375 48.5438 35.2688 48.8812 34.9313 48.9375C34.875 48.825 34.8188 48.8812 34.8188 48.8812Z" fill="#2797F3"/>
</g>
</g>
</g>
<g id="Group_33">
<path id="Vector_19" d="M47.925 35.0437C47.8688 35.0437 47.8125 35.0437 47.7563 35.0437L39.9938 32.5125C39.7125 32.4 39.5438 32.1187 39.6563 31.7812C39.7688 31.5 40.05 31.3312 40.3875 31.4437L48.15 33.975C48.4313 34.0875 48.6 34.3687 48.4875 34.7062C48.375 34.875 48.15 35.0437 47.925 35.0437Z" fill="#2797F3"/>
</g>
</g>
</g>
</g>
</svg>
