<svg width="72" height="72" viewBox="0 0 72 72" fill="none" xmlns="http://www.w3.org/2000/svg">
<g id="fi_13829158">
<g id="Group">
<path id="Vector" opacity="0.6" d="M36 69.75C54.6396 69.75 69.75 54.6396 69.75 36C69.75 17.3604 54.6396 2.25 36 2.25C17.3604 2.25 2.25 17.3604 2.25 36C2.25 54.6396 17.3604 69.75 36 69.75Z" fill="#17507E"/>
</g>
<g id="Group_2">
<path id="Vector_2" d="M62.7187 23.7937L62.325 27.6187C61.0312 40.05 60.3562 52.5375 60.3562 65.025C60.3562 67.6125 58.275 69.6937 55.6875 69.6937H29.925L51.4687 23.7375H62.7187V23.7937Z" fill="#051728"/>
</g>
<g id="Group_3">
<g id="Group_4">
<g id="Group_5">
<g id="Group_6">
<path id="Vector_3" d="M25.2 19.125H53.325C55.9125 19.125 57.9937 21.2062 57.9937 23.7938V65.025C57.9937 67.6125 55.9125 69.6938 53.325 69.6938H25.2C22.6125 69.6938 20.5312 67.6125 20.5312 65.025V23.7938C20.5312 21.2062 22.6125 19.125 25.2 19.125Z" fill="white"/>
</g>
</g>
<g id="Group_7">
<g id="Group_8">
<path id="Vector_4" d="M53.325 70.3125H25.2C22.3313 70.3125 19.9688 67.95 19.9688 65.0812V23.7937C19.9688 20.925 22.3313 18.5625 25.2 18.5625H53.325C56.1938 18.5625 58.5563 20.925 58.5563 23.7937V65.025C58.6125 67.95 56.25 70.3125 53.325 70.3125ZM25.2 19.6875C22.95 19.6875 21.0938 21.5437 21.0938 23.7937V65.025C21.0938 67.275 22.95 69.1313 25.2 69.1313H53.325C55.575 69.1313 57.4313 67.275 57.4313 65.025V23.7937C57.4313 21.5437 55.575 19.6875 53.325 19.6875H25.2Z" fill="#2797F3"/>
</g>
<g id="Group_9">
<path id="Vector_5" d="M55.6875 70.3125H29.925C29.5875 70.3125 29.3625 70.0875 29.3625 69.75C29.3625 69.4125 29.5875 69.1875 29.925 69.1875H55.6875C57.9375 69.1875 59.7937 67.3313 59.7937 65.0813C59.7937 52.65 60.4687 39.9938 61.7625 27.6188L62.1562 23.7938C62.2125 23.5125 62.4375 23.2313 62.775 23.2875C63.0562 23.3438 63.2812 23.5688 63.2812 23.9063L62.8875 27.7313C61.5937 40.1063 60.975 52.65 60.975 65.0813C60.9187 67.95 58.5562 70.3125 55.6875 70.3125Z" fill="#2797F3"/>
</g>
<g id="Group_10">
<path id="Vector_6" d="M51.0188 30.9375H41.625C41.2875 30.9375 41.0625 30.7125 41.0625 30.375C41.0625 30.0375 41.2875 29.8125 41.625 29.8125H51.0188C51.3563 29.8125 51.5813 30.0375 51.5813 30.375C51.5813 30.7125 51.3 30.9375 51.0188 30.9375Z" fill="#2797F3"/>
</g>
<g id="Group_11">
<path id="Vector_7" d="M51.0188 59.0625H41.625C41.2875 59.0625 41.0625 58.8375 41.0625 58.5C41.0625 58.1625 41.2875 57.9375 41.625 57.9375H51.0188C51.3563 57.9375 51.5813 58.1625 51.5813 58.5C51.5813 58.8375 51.3 59.0625 51.0188 59.0625Z" fill="#2797F3"/>
</g>
<g id="Group_12">
<path id="Vector_8" d="M51.0188 45H41.625C41.2875 45 41.0625 44.775 41.0625 44.4375C41.0625 44.1 41.2875 43.875 41.625 43.875H51.0188C51.3563 43.875 51.5813 44.1 51.5813 44.4375C51.5813 44.775 51.3 45 51.0188 45Z" fill="#2797F3"/>
</g>
</g>
</g>
<g id="Group_13">
<g id="Group_14">
<path id="Vector_9" d="M32.2312 35.0437C34.8097 35.0437 36.9 32.9535 36.9 30.375C36.9 27.7965 34.8097 25.7062 32.2312 25.7062C29.6528 25.7062 27.5625 27.7965 27.5625 30.375C27.5625 32.9535 29.6528 35.0437 32.2312 35.0437Z" fill="#82CFCD"/>
</g>
<g id="Group_15">
<path id="Vector_10" d="M32.2312 49.1062C34.8097 49.1062 36.9 47.016 36.9 44.4375C36.9 41.859 34.8097 39.7687 32.2312 39.7687C29.6528 39.7687 27.5625 41.859 27.5625 44.4375C27.5625 47.016 29.6528 49.1062 32.2312 49.1062Z" fill="#82CFCD"/>
</g>
<g id="Group_16">
<path id="Vector_11" d="M32.2312 63.1687C34.8097 63.1687 36.9 61.0785 36.9 58.5C36.9 55.9215 34.8097 53.8312 32.2312 53.8312C29.6528 53.8312 27.5625 55.9215 27.5625 58.5C27.5625 61.0785 29.6528 63.1687 32.2312 63.1687Z" fill="#82CFCD"/>
</g>
</g>
</g>
<g id="Group_17">
<g id="Group_18">
<g id="Group_19">
<g id="Group_20">
<path id="Vector_12" d="M25.2402 18.7013H53.3652C55.9527 18.7013 58.0339 20.7825 58.0339 23.37V64.6013C58.0339 67.1888 55.9527 69.2701 53.3652 69.2701H25.2402C22.6527 69.2701 20.5714 67.1888 20.5714 64.6013V23.37C20.5714 20.7825 22.6527 18.7013 25.2402 18.7013Z" fill="#051728"/>
</g>
<g id="Group 1261154804">
<g id="Group_21">
<g id="Group 1261154777">
<g id="Group_22">
<path id="Vector_13" d="M50.0155 31.5719H41.2195C40.9035 31.5719 40.6928 31.3612 40.6928 31.0452C40.6928 30.7292 40.9035 30.5185 41.2195 30.5185H50.0155C50.3316 30.5185 50.5422 30.7292 50.5422 31.0452C50.5422 31.3612 50.2789 31.5719 50.0155 31.5719Z" fill="#17507E" stroke="#17507E"/>
</g>
<g id="Group_23">
<path id="Vector_14" d="M31.1801 34.3082C32.9077 34.3082 34.3082 32.9077 34.3082 31.1801C34.3082 29.4525 32.9077 28.0519 31.1801 28.0519C29.4525 28.0519 28.0519 29.4525 28.0519 31.1801C28.0519 32.9077 29.4525 34.3082 31.1801 34.3082Z" fill="#17507E"/>
</g>
</g>
<g id="Group 1261154776">
<g id="Group_24">
<path id="Vector_15" d="M50.0155 44.4055H41.2195C40.9035 44.4055 40.6928 44.1948 40.6928 43.8788C40.6928 43.5627 40.9035 43.3521 41.2195 43.3521H50.0155C50.3316 43.3521 50.5422 43.5627 50.5422 43.8788C50.5422 44.1948 50.2789 44.4055 50.0155 44.4055Z" fill="#17507E" stroke="#17507E"/>
</g>
<g id="Group_25">
<path id="Vector_16" d="M31.1801 47.142C32.9077 47.142 34.3082 45.7414 34.3082 44.0138C34.3082 42.2862 32.9077 40.8857 31.1801 40.8857C29.4525 40.8857 28.0519 42.2862 28.0519 44.0138C28.0519 45.7414 29.4525 47.142 31.1801 47.142Z" fill="#17507E"/>
</g>
</g>
<g id="Group 1261154775">
<g id="Group_26">
<path id="Vector_17" d="M50.0155 58.0617H41.2195C40.9035 58.0617 40.6928 57.851 40.6928 57.5349C40.6928 57.2189 40.9035 57.0082 41.2195 57.0082H50.0155C50.3316 57.0082 50.5422 57.2189 50.5422 57.5349C50.5422 57.851 50.2789 58.0617 50.0155 58.0617Z" fill="#17507E" stroke="#17507E"/>
</g>
<g id="Group_27">
<path id="Vector_18" d="M31.1801 59.9756C32.9077 59.9756 34.3082 58.5751 34.3082 56.8475C34.3082 55.1199 32.9077 53.7194 31.1801 53.7194C29.4525 53.7194 28.0519 55.1199 28.0519 56.8475C28.0519 58.5751 29.4525 59.9756 31.1801 59.9756Z" fill="#17507E"/>
</g>
</g>
</g>
</g>
</g>
<g id="Group_28">
<g id="Group_29">
<path id="Vector_19" d="M53.325 70.3125H25.2C22.3313 70.3125 19.9688 67.95 19.9688 65.0812V23.7937C19.9688 20.925 22.3313 18.5625 25.2 18.5625H53.325C56.1938 18.5625 58.5563 20.925 58.5563 23.7937V65.025C58.6125 67.95 56.25 70.3125 53.325 70.3125ZM25.2 19.6875C22.95 19.6875 21.0938 21.5437 21.0938 23.7937V65.025C21.0938 67.275 22.95 69.1313 25.2 69.1313H53.325C55.575 69.1313 57.4313 67.275 57.4313 65.025V23.7937C57.4313 21.5437 55.575 19.6875 53.325 19.6875H25.2Z" fill="#2797F3"/>
</g>
<g id="Group_30">
<path id="Vector_20" d="M55.6875 70.3125H29.925C29.5875 70.3125 29.3625 70.0875 29.3625 69.75C29.3625 69.4125 29.5875 69.1875 29.925 69.1875H55.6875C57.9375 69.1875 59.7937 67.3313 59.7937 65.0813C59.7937 52.65 60.4687 39.9938 61.7625 27.6188L62.1562 23.7938C62.2125 23.5125 62.4375 23.2313 62.775 23.2875C63.0562 23.3438 63.2812 23.5688 63.2812 23.9063L62.8875 27.7313C61.5937 40.1063 60.975 52.65 60.975 65.0813C60.9187 67.95 58.5562 70.3125 55.6875 70.3125Z" fill="#2797F3"/>
</g>
<g id="Group_31">
<path id="Vector_21" d="M33.1875 70.3125H7.42499C7.08749 70.3125 6.86249 70.0875 6.86249 69.75C6.86249 69.4125 7.08749 69.1875 7.42499 69.1875H33.1875C33.525 69.1875 33.75 69.4125 33.75 69.75C33.75 70.0875 33.525 70.3125 33.1875 70.3125Z" fill="#2797F3"/>
</g>
<g id="Group_32">
<path id="Vector_22" d="M1.79999 70.3125C1.63124 70.3125 1.51874 70.2562 1.40624 70.1437C1.29374 70.0312 1.23749 69.9187 1.23749 69.75C1.23749 69.5812 1.29374 69.4687 1.40624 69.3562C1.63124 69.1313 1.96874 69.1313 2.19374 69.3562C2.30624 69.4687 2.36249 69.5812 2.36249 69.75C2.36249 69.9187 2.30624 70.0312 2.19374 70.1437C2.08124 70.2562 1.91249 70.3125 1.79999 70.3125Z" fill="#2797F3"/>
</g>
</g>
</g>
</g>
</g>
</svg>
