<svg width="50" height="72" viewBox="0 0 50 72" fill="none" xmlns="http://www.w3.org/2000/svg">
<g id="fi_13828606">
<g id="Group">
<path id="Vector" d="M0.579834 9.79663H39.5312L48.974 13.9278V28.3871C48.974 47.2726 37.5247 64.2696 20.0555 71.4107L16.0424 48.453C13.6227 34.6429 8.37012 21.4821 0.579834 9.79663Z" fill="#2797F3" fill-opacity="0.08"/>
</g>
<g id="Group_2">
<g id="Group_3">
<g id="Group_4">
<path id="Vector_2" d="M23.8324 17.2314L25.898 9.20502H14.2126L16.2782 17.2314L9.07806 60.1369L20.0553 71.4092L31.0325 60.1369L23.8324 17.2314Z" fill="#2797F3" fill-opacity="0.14"/>
</g>
</g>
<g id="Group_5">
<g id="Group_6">
<path id="Vector_3" d="M23.8326 17.2309L25.9573 9.20453H14.2128L16.3375 17.2309L15.3342 37.1787C15.1571 47.3887 21.472 56.6544 31.0328 60.1955L23.8326 17.2309Z" fill="#2797F3" fill-opacity="0.3"/>
</g>
</g>
<g id="Group_7">
<g id="Group_8">
<path id="Vector_4" d="M23.8327 17.2309L25.9573 9.20453H14.2128L16.3375 17.2309C18.6391 15.9915 21.472 15.9915 23.8327 17.2309Z" fill="#2797F3" fill-opacity="0.3"/>
</g>
</g>
<g id="Group_9">
<g id="Group_10">
<path id="Vector_5" d="M20.0594 71.9999C19.8823 71.9999 19.7643 71.9409 19.6463 71.8228L8.66906 60.5505C8.55102 60.4325 8.492 60.2555 8.492 60.0194L14.7478 22.9565C14.8069 22.6615 15.1019 22.4254 15.456 22.4844C15.7511 22.5434 15.9872 22.8385 15.9282 23.1926L9.73137 60.0194L20.0594 70.6425L30.3874 60.0194L23.3053 17.763C22.184 17.4089 21.0037 17.2319 19.7643 17.2909C19.4102 17.2909 19.1741 17.0548 19.1741 16.7007C19.1741 16.3466 19.4102 16.1105 19.7643 16.1105C21.2397 16.0515 22.6562 16.2876 24.0135 16.7597C24.2496 16.8187 24.3677 16.9958 24.4267 17.2319L31.6268 60.1964C31.6858 60.3735 31.6268 60.5506 31.4497 60.7276L20.4725 71.9999C20.3545 71.9409 20.2364 71.9999 20.0594 71.9999Z" fill="#2797F3"/>
</g>
</g>
<g id="Group_11">
<g id="Group_12">
<path id="Vector_6" d="M35.8722 0.588806L20.0555 9.20533L26.0753 20.5366L39.5312 9.7955L35.8722 0.588806Z" fill="#051325"/>
</g>
</g>
<g id="Group_13">
<g id="Group_14">
<path id="Vector_7" d="M4.23796 0.588806L20.0546 9.20533L14.0348 20.5366L0.578888 9.7955L4.23796 0.588806Z" fill="#051325"/>
</g>
</g>
<g id="Group_15">
<g id="Group_16">
<path id="Vector_8" d="M26.0706 21.1259C26.0116 21.1259 26.0116 21.1259 25.9526 21.1259C25.7755 21.0669 25.6575 21.0078 25.5394 20.8308L19.5197 9.44046C19.3426 9.14538 19.4607 8.79127 19.7558 8.67324L35.5724 0.0567141C35.7494 -0.00230315 35.9265 -0.00230315 36.0445 0.0567141C36.2216 0.115731 36.3396 0.233766 36.3986 0.410818L40.0577 9.61751C40.1757 9.85358 40.0577 10.1487 39.8806 10.2667L26.4247 21.0078C26.3657 21.0669 26.1886 21.1259 26.0706 21.1259ZM20.8771 9.44046L26.3067 19.6504L38.8183 9.61751L35.5724 1.41411L20.8771 9.44046Z" fill="#2797F3"/>
</g>
</g>
<g id="Group_17">
<g id="Group_18">
<path id="Vector_9" d="M14.0346 21.1278C13.9166 21.1278 13.7985 21.0688 13.6805 21.0097L0.224564 10.2686C0.0475122 10.0915 -0.070522 9.85547 0.0475126 9.61941L3.70658 0.41271C3.7656 0.235658 3.88364 0.117624 4.06069 0.0586062C4.17872 -0.000411058 4.35578 -0.000411058 4.53283 0.0586062L20.3495 8.67513C20.6445 8.85218 20.7626 9.20629 20.5855 9.44235L14.5658 20.8327C14.5067 21.0097 14.3297 21.1278 14.1526 21.1278C14.0936 21.1278 14.0346 21.1278 14.0346 21.1278ZM1.28688 9.61941L13.7985 19.6523L19.2281 9.44235L4.53283 1.416L1.28688 9.61941Z" fill="#2797F3"/>
</g>
</g>
</g>
<g id="Group_19">
<path id="Vector_10" d="M35.8726 1.18035H20.056C19.7019 1.18035 19.4658 0.944277 19.4658 0.590173C19.4658 0.236069 19.7019 0 20.056 0H35.8726C36.2267 0 36.4628 0.236069 36.4628 0.590173C36.4628 0.944277 36.1677 1.18035 35.8726 1.18035Z" fill="#2797F3"/>
</g>
<g id="Group_20">
<path id="Vector_11" d="M48.9734 14.5184C48.9144 14.5184 48.7964 14.5184 48.7374 14.4594L39.2946 10.3282C38.9995 10.2101 38.8815 9.85605 38.9995 9.56096C39.1176 9.26587 39.4717 9.14784 39.7667 9.26587L49.2095 13.3971C49.5046 13.5151 49.6226 13.8692 49.5046 14.1643C49.3866 14.4004 49.2095 14.5184 48.9734 14.5184Z" fill="#2797F3"/>
</g>
<g id="Group_21">
<path id="Vector_12" d="M44.2516 39.9546H32.4482C32.0941 39.9546 31.858 39.7186 31.858 39.3645C31.858 39.0104 32.0941 38.7743 32.4482 38.7743H43.6615V37.0038H31.0318C30.6777 37.0038 30.4416 36.7677 30.4416 36.4136C30.4416 36.0595 30.6777 35.8234 31.0318 35.8234H44.2516C44.6057 35.8234 44.8418 36.0595 44.8418 36.4136V39.3645C44.8418 39.7186 44.5467 39.9546 44.2516 39.9546Z" fill="#2797F3"/>
</g>
<g id="Group_22">
<path id="Vector_13" d="M35.8719 55.5944C35.6358 55.5944 35.3998 55.4764 35.3407 55.2403C35.2227 54.9452 35.3998 54.5911 35.6948 54.4731L43.6622 51.3452V42.3155C43.6622 41.9614 43.8983 41.7253 44.2524 41.7253C44.6065 41.7253 44.8425 41.9614 44.8425 42.3155V51.7583C44.8425 51.9943 44.6655 52.2304 44.4884 52.2894L36.108 55.4764C35.9899 55.5354 35.9309 55.5944 35.8719 55.5944Z" fill="#2797F3"/>
</g>
</g>
</svg>
