<svg width="65" height="62" viewBox="0 0 65 62" fill="none" xmlns="http://www.w3.org/2000/svg">
<g id="fi_13154568">
<g id="Group">
<g id="Group_2">
<path id="Vector" d="M29.4376 34.1224L25.5571 36.1624C23.5837 37.1999 21.2774 35.524 21.6543 33.3267L22.3955 29.0059C22.5451 28.1332 22.2557 27.243 21.6219 26.625L18.4825 23.5649C16.886 22.0086 17.7669 19.2973 19.9733 18.9767L24.3118 18.3463C25.1879 18.2189 25.9454 17.6686 26.3371 16.8749L28.2774 12.9436C29.2641 10.9444 32.1151 10.9444 33.1015 12.9436L35.0417 16.8749C35.4336 17.6688 36.1908 18.2191 37.0669 18.3463L41.4053 18.9767C43.6117 19.2973 44.4926 22.0086 42.8962 23.5649L39.7567 26.625C39.1229 27.243 38.8335 28.1335 38.9833 29.0059L39.7244 33.3267C40.1012 35.524 37.7947 37.1998 35.8216 36.1624L31.9412 34.1224C31.1574 33.7102 30.2212 33.7102 29.4376 34.1224Z" fill="#17507E"/>
<path id="Vector_2" d="M30.0052 29.5323L27.8776 30.6509C26.7957 31.2196 25.5312 30.3009 25.7378 29.0963L26.1441 26.7272C26.2262 26.2489 26.0676 25.7609 25.72 25.4219L23.9987 23.7442C23.1235 22.8909 23.6064 21.4044 24.8161 21.2286L27.1948 20.8831C27.6752 20.8133 28.0904 20.5115 28.3053 20.0762L29.3691 17.9208C29.9102 16.8246 31.4732 16.8246 32.0141 17.9208L33.0778 20.0762C33.2927 20.5114 33.708 20.8131 34.1882 20.8831L36.567 21.2286C37.7768 21.4044 38.2596 22.8909 37.3842 23.7442L35.6631 25.4219C35.3156 25.7607 35.1569 26.2488 35.2391 26.7272L35.6454 29.0963C35.8521 30.3012 34.5875 31.2196 33.5055 30.6509L31.3782 29.5323C30.948 29.3064 30.4347 29.3064 30.0052 29.5323Z" fill="#051829"/>
</g>
<g id="Group 1261154805">
<path id="Vector_3" d="M31.072 7.94536C30.5198 7.93396 30.0815 7.47713 30.0928 6.92499L30.2153 0.979418C30.2267 0.427282 30.6835 -0.0111788 31.2355 0.000217205C31.7878 0.0116132 32.2258 0.468449 32.2147 1.02059L32.0922 6.9663C32.0809 7.5183 31.6241 7.95661 31.072 7.94536Z" fill="#2797F3"/>
<g id="Group_3">
<g id="Group_4">
<path id="Vector_4" d="M19.3959 12.3137C19.7943 11.9314 19.8074 11.2984 19.4251 10.8999L15.3076 6.60906C14.9253 6.21062 14.2922 6.19752 13.8938 6.57985C13.4953 6.96233 13.4822 7.59524 13.8646 7.99367L17.9821 12.2845C18.3644 12.683 18.9975 12.6961 19.3959 12.3137Z" fill="#2797F3"/>
</g>
<g id="Group_5">
<path id="Vector_5" d="M42.9144 12.3137C42.5159 11.9314 42.5028 11.2983 42.8853 10.8999L47.0028 6.609C47.3853 6.21056 48.0182 6.19746 48.4166 6.57979C48.8154 6.96227 48.8285 7.59518 48.4457 7.99361L44.3285 12.2845C43.9458 12.6829 43.3128 12.696 42.9144 12.3137Z" fill="#2797F3"/>
</g>
</g>
</g>
</g>
<g id="Group_6">
<path id="Vector_6" d="M51.2243 59.657L47.7092 61.5046C45.9217 62.4443 43.8325 60.9265 44.1739 58.9362L44.8452 55.0223C44.9807 54.2319 44.7187 53.4251 44.1446 52.8654L41.3008 50.0938C39.8547 48.6843 40.6526 46.2283 42.6513 45.9379L46.581 45.3668C47.3746 45.2514 48.0606 44.7528 48.4155 44.0338L50.1729 40.473C51.0668 38.6621 53.6492 38.6621 54.5428 40.473L56.3002 44.0338C56.6551 44.7528 57.3413 45.2514 58.1349 45.3668L62.0646 45.9379C64.0631 46.2283 64.8612 48.6843 63.4151 50.0938L60.5714 52.8654C59.9971 53.4251 59.735 54.2316 59.8707 55.0223L60.542 58.9362C60.8834 60.9269 58.7942 62.4443 57.0067 61.5046L53.4918 59.657C52.7819 59.2839 51.934 59.2839 51.2243 59.657Z" fill="#10314C"/>
<path id="Vector_7" d="M14.2986 59.6572L10.7836 61.5049C8.9961 62.4445 6.90687 60.9267 7.24829 58.9365L7.91958 55.0225C8.05507 54.2322 7.79302 53.4254 7.21892 52.8656L4.37518 50.0941C2.9291 48.6845 3.72696 46.2285 5.72564 45.9382L9.65533 45.367C10.449 45.2517 11.135 44.7531 11.4899 44.0341L13.2473 40.4732C14.1411 38.6623 16.7235 38.6623 17.6172 40.4732L19.3746 44.0341C19.7295 44.7531 20.4156 45.2517 21.2093 45.367L25.139 45.9382C27.1375 46.2285 27.9355 48.6845 26.4894 50.0941L23.6457 52.8656C23.0714 53.4254 22.8094 54.2318 22.945 55.0225L23.6163 58.9365C23.9578 60.9271 21.8685 62.4445 20.081 61.5049L16.5662 59.6572C15.8562 59.2842 15.0084 59.2842 14.2986 59.6572Z" fill="#051729"/>
<path id="Vector_8" d="M11.6619 58.96L8.14688 60.8076C6.35938 61.7472 4.27015 60.2295 4.61157 58.2392L5.28286 54.3252C5.41835 53.5349 5.1563 52.7281 4.5822 52.1684L1.73846 49.3968C0.292383 47.9873 1.09024 45.5313 3.08892 45.2409L7.01862 44.6698C7.81228 44.5544 8.49826 44.0558 8.85314 43.3368L10.6106 39.776C11.5044 37.9651 14.0868 37.9651 14.9804 39.776L16.7379 43.3368C17.0928 44.0558 17.7789 44.5544 18.5726 44.6698L22.5023 45.2409C24.5008 45.5313 25.2988 47.9873 23.8527 49.3968L21.009 52.1684C20.4347 52.7281 20.1727 53.5345 20.3083 54.3252L20.9796 58.2392C21.321 60.2298 19.2318 61.7472 17.4443 60.8076L13.9295 58.96C13.2195 58.5869 12.3717 58.5869 11.6619 58.96Z" stroke="#2797F3" stroke-width="1.2"/>
<path id="Vector_9" d="M48.37 58.9598L44.8553 60.8074C43.0676 61.7471 40.9787 60.2293 41.3198 58.239L41.9913 54.3251C42.1268 53.5347 41.8645 52.7279 41.2903 52.1682L38.4467 49.3966C37.0005 47.9871 37.7985 45.5311 39.7972 45.2407L43.7269 44.6696C44.5205 44.5542 45.2065 44.0556 45.5614 43.3366L47.319 39.7758C48.2125 37.9649 50.795 37.9649 51.6887 39.7758L53.4463 43.3366C53.8012 44.0556 54.4872 44.5542 55.2808 44.6696L59.2105 45.2407C61.209 45.5311 62.0069 47.9871 60.561 49.3966L57.7171 52.1682C57.1431 52.7279 56.8809 53.5344 57.0162 54.3251L57.6875 58.239C58.0289 60.2296 55.9399 61.7471 54.1522 60.8074L50.6377 58.9598C49.9279 58.5867 49.0797 58.5867 48.37 58.9598Z" stroke="#2797F3" stroke-width="1.2"/>
</g>
</g>
</svg>
