<svg width="68" height="68" viewBox="0 0 68 68" fill="none" xmlns="http://www.w3.org/2000/svg">
<g id="fi_11568796">
<path id="Vector" fill-rule="evenodd" clip-rule="evenodd" d="M36.3375 13.8125C40.324 13.8125 43.5625 17.051 43.5625 21.0375V35.9125C43.5625 38.5762 41.7265 40.7288 39.3125 41.2951V61.625C39.3029 62.3794 39.1542 63.1178 38.8418 63.8063C38.5592 64.4289 38.1554 64.9942 37.6603 65.4659C37.196 65.909 36.6531 66.2671 36.0623 66.5178C35.496 66.759 34.8872 66.8992 34.272 66.9301C32.0652 67.0437 29.9699 65.7199 29.1072 63.6873C28.8288 63.0328 28.6971 62.3358 28.6875 61.625V41.2898C26.2735 40.7001 24.4375 38.4604 24.4375 35.9125V21.0375C24.4375 17.051 27.676 13.8125 31.6625 13.8125H36.3375Z" fill="#14446B"/>
<path id="Vector_2" d="M39.3125 2.125C39.3125 1.5385 38.8365 1.0625 38.25 1.0625H34C32.538 1.0625 31.2046 1.71806 30.2738 2.64881C29.3431 3.57956 28.6875 4.913 28.6875 6.375V6.69375C28.6875 6.72775 28.6896 6.76069 28.6928 6.79469C28.9574 9.57631 31.2173 11.6875 34 11.6875C36.7827 11.6875 39.0426 9.57631 39.3072 6.79469C39.3104 6.76069 39.3125 6.72775 39.3125 6.69375V2.125Z" fill="#17507E"/>
<g id="Group">
<path id="Vector_3" fill-rule="evenodd" clip-rule="evenodd" d="M32.9375 17V29.75C32.9375 30.3365 33.4135 30.8125 34 30.8125C34.5865 30.8125 35.0625 30.3365 35.0625 29.75V17C35.0625 16.4135 34.5865 15.9375 34 15.9375C33.4135 15.9375 32.9375 16.4135 32.9375 17Z" fill="#2797F3"/>
</g>
<g id="Group_2">
<path id="Vector_4" fill-rule="evenodd" clip-rule="evenodd" d="M11.9064 16.5208L9.13006 13.8306C7.85081 12.5513 7.85081 10.6324 9.13006 9.35319L12.2113 6.27194C13.4906 4.99269 15.4094 4.99269 16.6887 6.27194L19.3662 8.94944C21.1831 7.77537 23.1604 6.78194 25.2418 6.04137C25.7943 5.84481 26.4031 6.13488 26.5997 6.68738C26.7962 7.23988 26.5062 7.84762 25.9537 8.04419C23.7628 8.823 21.6973 9.90675 19.8347 11.1913C19.4119 11.4824 18.8424 11.4304 18.4801 11.0681L15.1863 7.77431C14.7656 7.35356 14.1344 7.35356 13.7137 7.77431L10.6324 10.8556C10.2117 11.2763 10.2117 11.9074 10.6208 12.3165L14.0208 15.6102C14.3937 15.9715 14.4511 16.5495 14.1557 16.9766C12.1167 19.9325 10.5846 23.3973 9.97262 27.0661C9.88762 27.5793 9.44456 27.9544 8.925 27.9544H4.25C3.66563 27.9544 3.1875 28.4325 3.1875 29.0169V33.2669C3.1875 33.8512 3.66563 34.3294 4.25 34.3294H8.81875C9.33938 34.3294 9.78456 34.7076 9.86744 35.2219C10.4794 38.9916 12.0116 42.3523 14.0494 45.3071C14.3406 45.73 14.2885 46.2995 13.9262 46.6618L10.6324 49.9556C10.2117 50.3763 10.2117 51.0074 10.6324 51.4282L13.7137 54.5094C14.1344 54.9302 14.7656 54.9302 15.1863 54.5094L18.4801 51.2157C18.8487 50.8459 19.4321 50.8002 19.8549 51.1062C21.709 52.4492 23.7649 53.5096 25.9452 54.264C26.4998 54.4563 26.7941 55.0619 26.6029 55.6155C26.4106 56.1701 25.8049 56.4644 25.2514 56.2721C23.1604 55.5496 21.1767 54.5679 19.3534 53.3471L16.6887 56.0118C15.4094 57.2911 13.4906 57.2911 12.2113 56.0118L9.13006 52.9306C7.85081 51.6513 7.85081 49.7324 9.13006 48.4532L11.8076 45.7757C9.99813 42.9898 8.61794 39.882 7.93263 36.4544H4.25C2.49688 36.4544 1.0625 35.02 1.0625 33.2669V29.0169C1.0625 27.2637 2.49688 25.8294 4.25 25.8294H8.04313C8.72844 22.4814 10.1054 19.3109 11.9064 16.5208Z" fill="#2797F3" stroke="#051829" stroke-width="0.4"/>
<path id="Vector_5" fill-rule="evenodd" clip-rule="evenodd" d="M48.6338 8.94837L51.3113 6.27194C52.5906 4.99269 54.5094 4.99269 55.7887 6.27194L58.8699 9.35319C60.1492 10.6324 60.1492 12.5513 58.8699 13.8306L56.2041 16.4964C58.0794 19.2939 59.3895 22.4729 60.0652 25.8294H63.75C65.5031 25.8294 66.9375 27.2637 66.9375 29.0169V33.2669C66.9375 35.02 65.5031 36.4544 63.75 36.4544H59.9632C59.2886 39.8862 57.9774 42.9972 56.0989 45.7884L58.7637 48.4532C60.0429 49.7324 60.0429 51.6513 58.7637 52.9306L55.6824 56.0118C54.4032 57.2911 52.4843 57.2911 51.2051 56.0118L48.5361 53.3428C46.8722 54.4446 45.0585 55.3626 43.1131 56.0819C42.5627 56.2849 41.9507 56.0033 41.7477 55.4529C41.5448 54.9026 41.8264 54.2916 42.3767 54.0876C44.4348 53.3279 46.3324 52.326 48.0452 51.102C48.4681 50.8002 49.0461 50.8481 49.4137 51.2157L52.7074 54.5094C53.1282 54.9302 53.7593 54.9302 54.1801 54.5094L57.2613 51.4282C57.6821 51.0074 57.6821 50.3763 57.2613 49.9556L53.9676 46.6618C53.5978 46.2931 53.5521 45.7098 53.8581 45.2869C55.9937 42.3385 57.4164 38.9831 58.0263 35.2219C58.1092 34.7076 58.5544 34.3294 59.075 34.3294H63.75C64.3344 34.3294 64.8125 33.8512 64.8125 33.2669V29.0169C64.8125 28.4325 64.3344 27.9544 63.75 27.9544H59.1812C58.6617 27.9544 58.2186 27.5793 58.1336 27.0661C57.5227 23.4047 56.1 19.9463 53.9644 16.9968C53.6584 16.5739 53.7041 15.9906 54.0738 15.6219L57.3676 12.3282C57.7883 11.9074 57.7883 11.2763 57.3676 10.8556L54.2863 7.77431C53.8656 7.35356 53.2344 7.35356 52.8137 7.77431L49.5199 11.0681C49.1576 11.4304 48.5881 11.4824 48.1652 11.1913C46.3834 9.962 44.4539 8.91756 42.3757 8.14725C41.8253 7.94325 41.5448 7.33125 41.7488 6.78087C41.9528 6.23156 42.5637 5.95 43.1141 6.154C45.0766 6.88181 46.9168 7.83381 48.6338 8.94837Z" fill="#2797F3" stroke="#051829" stroke-width="0.4"/>
<path id="Vector_6" fill-rule="evenodd" clip-rule="evenodd" d="M45.6333 21.2904C47.8497 23.9307 49.1863 27.3339 49.1863 31.0484C49.1863 36.4214 46.3887 41.1474 42.1717 43.8472C41.6776 44.1628 41.5342 44.8205 41.8497 45.3146C42.1664 45.8086 42.8241 45.9531 43.3181 45.6365C48.1238 42.5595 51.3113 37.1726 51.3113 31.0484C51.3113 26.8143 49.7877 22.933 47.26 19.924C46.8828 19.4746 46.2124 19.4161 45.7629 19.7933C45.3135 20.1705 45.2561 20.842 45.6333 21.2904Z" fill="#2797F3" stroke="#051829" stroke-width="0.4"/>
<path id="Vector_7" fill-rule="evenodd" clip-rule="evenodd" d="M26.1492 44.047C21.7536 41.3844 18.8137 36.5564 18.8137 31.0484C18.8137 27.3339 20.1503 23.9307 22.3667 21.2904C22.7439 20.842 22.6865 20.1705 22.2371 19.7933C21.7876 19.4161 21.1172 19.4746 20.74 19.924C18.2123 22.933 16.6887 26.8143 16.6887 31.0484C16.6887 37.3267 20.0388 42.8294 25.0474 45.8639C25.5489 46.1677 26.2034 46.0073 26.5073 45.5058C26.8111 45.0043 26.6507 44.3509 26.1492 44.047Z" fill="#2797F3" stroke="#051829" stroke-width="0.4"/>
</g>
</g>
</svg>
