<svg width="63" height="63" viewBox="0 0 63 63" fill="none" xmlns="http://www.w3.org/2000/svg">
<g id="Group 1261154696">
<circle id="Ellipse 70" cx="31.5" cy="31.5" r="31" stroke="#2797F3"/>
<g id="fi-rr-briefcase">
<path id="Vector" d="M39.2859 22.6015H38.0623C37.8042 21.3462 37.1212 20.2182 36.1284 19.4078C35.1356 18.5974 33.8937 18.154 32.6121 18.1523H30.3876C29.106 18.154 27.8641 18.5974 26.8713 19.4078C25.8785 20.2182 25.1955 21.3462 24.9373 22.6015H23.7138C22.2394 22.6033 20.8258 23.1898 19.7832 24.2324C18.7407 25.2749 18.1542 26.6885 18.1524 28.1629V39.2858C18.1542 40.7603 18.7407 42.1738 19.7832 43.2164C20.8258 44.259 22.2394 44.8455 23.7138 44.8473H39.2859C40.7603 44.8455 42.1739 44.259 43.2164 43.2164C44.259 42.1738 44.8455 40.7603 44.8473 39.2858V28.1629C44.8455 26.6885 44.259 25.2749 43.2164 24.2324C42.1739 23.1898 40.7603 22.6033 39.2859 22.6015ZM30.3876 20.3769H32.6121C33.2998 20.3798 33.9698 20.595 34.5305 20.9932C35.0912 21.3914 35.5151 21.9531 35.7443 22.6015H27.2554C27.4846 21.9531 27.9085 21.3914 28.4692 20.9932C29.0299 20.595 29.6999 20.3798 30.3876 20.3769ZM23.7138 24.8261H39.2859C40.1709 24.8261 41.0196 25.1776 41.6454 25.8034C42.2712 26.4292 42.6227 27.2779 42.6227 28.1629V31.4998H20.377V28.1629C20.377 27.2779 20.7285 26.4292 21.3543 25.8034C21.9801 25.1776 22.8288 24.8261 23.7138 24.8261ZM39.2859 42.6227H23.7138C22.8288 42.6227 21.9801 42.2711 21.3543 41.6453C20.7285 41.0196 20.377 40.1708 20.377 39.2858V33.7244H30.3876V34.8367C30.3876 35.1317 30.5047 35.4146 30.7133 35.6232C30.9219 35.8318 31.2049 35.949 31.4998 35.949C31.7948 35.949 32.0778 35.8318 32.2864 35.6232C32.4949 35.4146 32.6121 35.1317 32.6121 34.8367V33.7244H42.6227V39.2858C42.6227 40.1708 42.2712 41.0196 41.6454 41.6453C41.0196 42.2711 40.1709 42.6227 39.2859 42.6227Z" fill="#2797F3" stroke="#1C2630" stroke-width="0.3"/>
</g>
</g>
</svg>
