<svg width="24" height="14" viewBox="0 0 24 14" fill="none" xmlns="http://www.w3.org/2000/svg">
<g id="Clip path group">
<mask id="mask0_1_609" style="mask-type:luminance" maskUnits="userSpaceOnUse" x="0" y="0" width="24" height="14">
<g id="F">
<path id="Vector" d="M17.3731 4.644L22.5061 0.892982C22.9542 0.527751 23.2958 0.612643 23.2958 1.28783V12.7264C23.2958 13.4845 22.8693 13.3977 22.5061 13.1213L17.3731 9.37028V4.644ZM0 1.31546V9.84409C0.00470117 10.77 0.376893 11.6561 1.03475 12.3077C1.69261 12.9593 2.58228 13.3229 3.50819 13.3187H15.9458C16.114 13.3192 16.2756 13.253 16.3952 13.1346C16.5147 13.0162 16.5824 12.8552 16.5834 12.687V4.15834C16.5787 3.23244 16.2065 2.3463 15.5487 1.69474C14.8908 1.04317 14.0012 0.679516 13.0753 0.683715H0.637673C0.469415 0.683189 0.307812 0.749391 0.188281 0.867812C0.068751 0.986232 0.00104426 1.14721 0 1.31546Z" fill="white"/>
</g>
</mask>
<g mask="url(#mask0_1_609)">
<g id="Group">
<path id="Vector_2" d="M-0.986404 -0.303223H24.2836V14.306H-0.986404V-0.303223Z" fill="white"/>
</g>
</g>
</g>
</svg>
