<svg width="34" height="33" viewBox="0 0 34 33" fill="none" xmlns="http://www.w3.org/2000/svg">
<g id="Icon">
<path id="5" fill-rule="evenodd" clip-rule="evenodd" d="M27.9849 19.2939C28.4832 19.7922 28.4832 20.6001 27.9849 21.0984L17.4161 31.6672C16.9178 32.1655 16.1099 32.1655 15.6116 31.6672C15.1134 31.169 15.1134 30.3611 15.6116 29.8628L26.1805 19.2939C26.6788 18.7957 27.4866 18.7957 27.9849 19.2939Z" fill="white"/>
<path id="4" fill-rule="evenodd" clip-rule="evenodd" d="M26.6094 13.7938C27.1077 14.2921 27.1077 15.1 26.6094 15.5983L16.0405 26.1671C15.5422 26.6654 14.7344 26.6654 14.2361 26.1671C13.7378 25.6688 13.7378 24.861 14.2361 24.3627L24.8049 13.7938C25.3032 13.2955 26.1111 13.2955 26.6094 13.7938Z" fill="white"/>
<path id="3" fill-rule="evenodd" clip-rule="evenodd" d="M25.7487 7.77808C26.2469 8.27636 26.2469 9.08423 25.7487 9.58252L15.1798 20.1514C14.6815 20.6496 13.8737 20.6496 13.3754 20.1514C12.8771 19.6531 12.8771 18.8452 13.3754 18.3469L23.9442 7.77808C24.4425 7.2798 25.2504 7.2798 25.7487 7.77808Z" fill="white"/>
<path id="2" fill-rule="evenodd" clip-rule="evenodd" d="M19.7307 6.92041C20.2289 7.41869 20.2289 8.22657 19.7307 8.72485L9.1618 19.2937C8.66352 19.792 7.85565 19.792 7.35737 19.2937C6.85909 18.7954 6.85909 17.9875 7.35737 17.4893L17.9262 6.92041C18.4245 6.42213 19.2324 6.42213 19.7307 6.92041Z" fill="white"/>
<path id="1" fill-rule="evenodd" clip-rule="evenodd" d="M14.2322 5.54285C14.7305 6.04113 14.7305 6.84901 14.2322 7.34729L3.66333 17.9161C3.16505 18.4144 2.35717 18.4144 1.85889 17.9161C1.36061 17.4179 1.36061 16.61 1.85889 16.1117L12.4277 5.54285C12.926 5.04457 13.7339 5.04457 14.2322 5.54285Z" fill="white"/>
</g>
</svg>
