<svg width="86" height="86" viewBox="0 0 86 86" fill="none" xmlns="http://www.w3.org/2000/svg">
<g id="Group 1261154808">
<ellipse id="Ellipse 1304" opacity="0.2" cx="43" cy="42.9756" rx="43" ry="42.5" fill="white"/>
<g id="Group 20">
<path id="Line 4 (Stroke)" fill-rule="evenodd" clip-rule="evenodd" d="M54.3133 30.7889C55.0075 31.4831 55.0075 32.6087 54.3133 33.3029L39.5885 48.0277C38.8942 48.722 37.7687 48.722 37.0745 48.0277C36.3802 47.3335 36.3802 46.208 37.0745 45.5137L51.7993 30.7889C52.4935 30.0947 53.6191 30.0947 54.3133 30.7889Z" fill="white"/>
<path id="Line 5 (Stroke)" fill-rule="evenodd" clip-rule="evenodd" d="M55.3885 39.7645C56.0827 40.4587 56.0827 41.5843 55.3885 42.2785L40.6637 57.0033C39.9694 57.6975 38.8439 57.6975 38.1497 57.0033C37.4554 56.3091 37.4554 55.1835 38.1497 54.4893L52.8745 39.7645C53.5687 39.0703 54.6943 39.0703 55.3885 39.7645Z" fill="white"/>
<path id="Line 7 (Stroke)" fill-rule="evenodd" clip-rule="evenodd" d="M45.3309 29.7137C46.0251 30.4079 46.0251 31.5335 45.3309 32.2277L30.606 46.9525C29.9118 47.6468 28.7863 47.6468 28.092 46.9525C27.3978 46.2583 27.3978 45.1328 28.092 44.4385L42.8169 29.7137C43.5111 29.0195 44.6367 29.0195 45.3309 29.7137Z" fill="white"/>
<path id="Line 6 (Stroke)" fill-rule="evenodd" clip-rule="evenodd" d="M57.1815 48.0282C57.8757 48.7224 57.8757 49.8479 57.1815 50.5422L42.4566 65.267C41.7624 65.9612 40.6369 65.9612 39.9426 65.267C39.2484 64.5728 39.2484 63.4472 39.9426 62.753L54.6675 48.0282C55.3617 47.3339 56.4873 47.3339 57.1815 48.0282Z" fill="white"/>
<path id="Line 8 (Stroke)" fill-rule="evenodd" clip-rule="evenodd" d="M37.0701 27.9188C37.7644 28.613 37.7644 29.7386 37.0701 30.4328L22.3453 45.1576C21.6511 45.8518 20.5255 45.8518 19.8313 45.1576C19.1371 44.4634 19.1371 43.3378 19.8313 42.6436L34.5562 27.9188C35.2504 27.2246 36.3759 27.2246 37.0701 27.9188Z" fill="white"/>
</g>
</g>
</svg>
