<svg width="38" height="37" viewBox="0 0 38 37" fill="none" xmlns="http://www.w3.org/2000/svg">
<path d="M18.541 10.8632C15.5461 10.8632 13.1094 8.42644 13.1094 5.4316C13.1094 2.43676 15.5461 0 18.541 0C21.5358 0 23.9726 2.43676 23.9726 5.4316C23.9726 8.42644 21.5358 10.8632 18.541 10.8632Z" fill="#F83A59"/>
<path d="M0.72612 31.0335C-0.770756 28.4397 0.121402 25.1117 2.71524 23.6138C5.36231 22.0868 8.6598 23.0485 10.1349 25.6019C11.6356 28.1996 10.7461 31.5199 8.14684 33.0215C5.54257 34.5233 2.22589 33.6296 0.72612 31.0335Z" fill="#F83A59"/>
<path d="M28.9322 33.0215C26.3346 31.5209 25.4426 28.2011 26.9441 25.6019C28.4191 23.0486 31.7166 22.0868 34.3638 23.6139C36.9575 25.1118 37.8498 28.4397 36.3529 31.0335C34.855 33.6263 31.5401 34.5255 28.9322 33.0215Z" fill="#F83A59"/>
<path d="M4.44571 19.9231L2.27734 19.8042C2.5595 14.6654 5.30506 9.9085 9.62057 7.07812L10.813 8.89431C7.07134 11.3482 4.6918 15.4717 4.44571 19.9231Z" fill="#F83A59"/>
<path d="M32.6446 19.923C32.3985 15.4716 30.019 11.3481 26.2773 8.89431L27.4698 7.07812C31.7853 9.90849 34.5308 14.6654 34.813 19.8042L32.6446 19.923Z" fill="#F83A59"/>
<path d="M18.5446 36.9969C15.9603 36.9969 13.4896 36.4092 11.1992 35.2517L12.1794 33.3125C16.147 35.3197 20.9421 35.3197 24.9097 33.3125L25.8899 35.2517C23.5996 36.4092 21.1289 36.9969 18.5446 36.9969Z" fill="#F83A59"/>
</svg>
