<svg width="26" height="32" viewBox="0 0 26 32" fill="none" xmlns="http://www.w3.org/2000/svg">
<rect width="25.9048" height="32" rx="5" fill="#446DFE"/>
<path opacity="0.2" fill-rule="evenodd" clip-rule="evenodd" d="M6.85547 14.4807C6.85547 14.0599 7.22986 13.7188 7.69171 13.7188H17.4478C17.9096 13.7188 18.284 14.0599 18.284 14.4807C18.284 14.9014 17.9096 15.2426 17.4478 15.2426H7.69171C7.22986 15.2426 6.85547 14.9014 6.85547 14.4807Z" fill="#181222"/>
<path opacity="0.2" fill-rule="evenodd" clip-rule="evenodd" d="M6.85547 18.2932C6.85547 17.8724 7.22986 17.5312 7.69171 17.5312H17.4478C17.9096 17.5312 18.284 17.8724 18.284 18.2932C18.284 18.7139 17.9096 19.0551 17.4478 19.0551H7.69171C7.22986 19.0551 6.85547 18.7139 6.85547 18.2932Z" fill="#181222"/>
<path opacity="0.2" d="M8.64211 6.09449C8.64211 7.5015 7.5015 8.64211 6.09449 8.64211C4.68748 8.64211 3.54688 7.5015 3.54688 6.09449C3.54688 4.68748 4.68748 3.54688 6.09449 3.54688C7.5015 3.54688 8.64211 4.68748 8.64211 6.09449Z" fill="#181222" stroke="#04101B"/>
<path fill-rule="evenodd" clip-rule="evenodd" d="M16.47 27.4025C16.5411 27.8718 16.6889 28.2632 16.9099 28.5123C16.9922 28.605 16.9921 28.7552 16.9097 28.8478C16.8273 28.9403 16.6938 28.9402 16.6115 28.8475C16.3056 28.5027 16.1333 28.0039 16.0543 27.4822C15.9748 26.9569 15.9859 26.3835 16.0662 25.8616C16.146 25.3429 16.2975 24.8541 16.5136 24.5089C16.7285 24.1655 17.0483 23.911 17.4426 24.0295C17.8645 24.1562 18.0782 24.5294 18.1661 24.9598C18.2521 25.3816 18.2275 25.8926 18.1594 26.3901C18.0563 27.1428 17.8442 27.9233 17.7011 28.4226C17.8987 28.2854 18.1822 27.9677 18.4127 27.2581C18.4872 27.0287 18.5971 26.8468 18.7427 26.734C18.8931 26.6175 19.0665 26.5872 19.2334 26.6371C19.5526 26.7323 19.7995 27.0964 19.9139 27.5556C19.9498 27.6991 20.0219 27.8383 20.0968 27.8904C20.1248 27.9099 20.1521 27.9172 20.19 27.9072C20.2346 27.8954 20.3105 27.8545 20.4163 27.7334C20.5501 27.5801 20.6541 27.3995 20.746 27.2164C20.7758 27.1569 20.8065 27.0923 20.8373 27.0276C20.8933 26.9097 20.9496 26.7912 21.0015 26.702C21.0777 26.5711 21.2112 26.3775 21.4305 26.3826C21.5354 26.385 21.6289 26.4339 21.7095 26.4992C21.7899 26.5644 21.87 26.656 21.9523 26.7692C22.0261 26.8706 22.0128 27.0201 21.9227 27.103C21.8326 27.186 21.6998 27.1711 21.626 27.0697C21.5555 26.9729 21.5019 26.9157 21.4629 26.8841C21.4463 26.8707 21.4347 26.8637 21.4276 26.8601C21.4168 26.8698 21.3928 26.8958 21.3543 26.9619C21.3111 27.0361 21.2716 27.1196 21.2241 27.2201C21.192 27.2881 21.1563 27.3637 21.1132 27.4496C21.0141 27.6471 20.8888 27.8692 20.7171 28.0659C20.5783 28.2249 20.4352 28.3298 20.2862 28.3691C20.1306 28.4102 19.9898 28.3737 19.8751 28.294C19.6649 28.1478 19.5536 27.8668 19.5079 27.6837L19.5079 27.6837C19.4132 27.3037 19.2393 27.1296 19.1253 27.0956C19.0756 27.0808 19.0293 27.088 18.9818 27.1248C18.9296 27.1653 18.8635 27.2523 18.8087 27.421C18.5533 28.2076 18.2172 28.6226 17.9206 28.8277C17.7739 28.9292 17.638 28.9781 17.5306 28.994C17.4788 29.0016 17.4252 29.0028 17.3766 28.9926C17.3553 28.988 17.3161 28.9776 17.2775 28.9489C17.2575 28.9341 17.2256 28.9055 17.2025 28.8567C17.1764 28.8013 17.1688 28.7337 17.1871 28.6683C17.2029 28.6116 17.2229 28.5426 17.2459 28.4632C17.384 27.9863 17.6307 27.1345 17.7426 26.3178C17.808 25.84 17.8232 25.3998 17.7551 25.066C17.6887 24.7409 17.5543 24.5541 17.3338 24.4878C17.1877 24.4439 17.0271 24.5125 16.8584 24.782C16.6908 25.0498 16.5554 25.4639 16.4817 25.9426C16.4085 26.4181 16.3995 26.9367 16.47 27.4025Z" fill="#181222" stroke="#04101B" stroke-width="0.05" stroke-linecap="round"/>
</svg>
