<svg width="63" height="63" viewBox="0 0 63 63" fill="none" xmlns="http://www.w3.org/2000/svg">
<g id="Group 1261154696">
<circle id="Ellipse 70" cx="31.5" cy="31.5" r="31" stroke="#2797F3"/>
<g id="fi_25228">
<g id="Group">
<path id="Vector" d="M38.2451 34.3828C38.1163 33.9469 37.9601 33.5674 37.7766 33.2452C37.5932 32.9226 37.3306 32.608 36.9882 32.3002C36.6462 31.9926 36.3386 31.7449 36.0658 31.5566C35.7932 31.3681 35.4187 31.1574 34.9425 30.9241C34.4667 30.691 34.0898 30.5174 33.8123 30.4033C33.5345 30.2894 33.1325 30.1331 32.6068 29.9348C32.1407 29.7563 31.7937 29.6199 31.5653 29.5258C31.3373 29.4315 31.0373 29.2977 30.6654 29.124C30.2936 28.9506 30.0158 28.7968 29.8323 28.6629C29.6488 28.5291 29.453 28.3655 29.2447 28.1721C29.0364 27.9788 28.8901 27.7729 28.8057 27.5548C28.7216 27.3365 28.6794 27.0984 28.6794 26.8406C28.6794 26.1663 28.9768 25.6156 29.5719 25.1893C30.167 24.7629 30.9358 24.5497 31.878 24.5497C32.2944 24.5497 32.7189 24.6066 33.15 24.7208C33.5812 24.835 33.9507 24.9636 34.2581 25.1075C34.5659 25.2514 34.8559 25.4101 35.1287 25.5836C35.4015 25.7572 35.5948 25.8885 35.709 25.9778C35.8231 26.0671 35.8953 26.1266 35.9248 26.1564C36.0539 26.2555 36.1875 26.2902 36.3263 26.2605C36.4751 26.2506 36.5892 26.1712 36.6687 26.0226L37.874 23.8505C37.993 23.6522 37.9684 23.4637 37.7997 23.2851C37.74 23.2256 37.6659 23.1562 37.5761 23.0768C37.4871 22.9974 37.2936 22.8536 36.9958 22.6452C36.6983 22.437 36.3834 22.251 36.0514 22.0874C35.719 21.9239 35.2874 21.7576 34.7567 21.5891C34.2264 21.4203 33.6782 21.3064 33.1127 21.2469V18.6284C33.1127 18.4896 33.0682 18.3755 32.9792 18.2862C32.89 18.1971 32.7759 18.1523 32.6368 18.1523H30.6282C30.4993 18.1523 30.3877 18.1994 30.2935 18.2937C30.1993 18.3879 30.1522 18.4994 30.1522 18.6284V21.3063C28.595 21.6038 27.3304 22.2683 26.3584 23.2998C25.3866 24.3313 24.9004 25.5312 24.9004 26.9001C24.9004 27.3067 24.9428 27.6935 25.0271 28.0603C25.1113 28.4274 25.2155 28.7572 25.3395 29.0497C25.4634 29.3424 25.6396 29.63 25.8676 29.9127C26.0957 30.1954 26.3115 30.4384 26.5148 30.6416C26.7181 30.8448 26.9835 31.0556 27.3107 31.2737C27.6381 31.4921 27.9183 31.6683 28.1514 31.8021C28.3846 31.9355 28.6945 32.0897 29.0812 32.2629C29.468 32.4365 29.7731 32.5678 29.9962 32.6573C30.2194 32.7464 30.5244 32.8706 30.9113 33.0289C31.4468 33.2372 31.8436 33.3984 32.1015 33.5125C32.3595 33.6267 32.6867 33.7853 33.0837 33.9886C33.4803 34.1918 33.7703 34.3778 33.9539 34.5465C34.1374 34.7151 34.3034 34.9234 34.4523 35.1713C34.6012 35.4192 34.6757 35.682 34.6757 35.9599C34.6757 36.7434 34.3708 37.3483 33.7606 37.7744C33.1507 38.201 32.4438 38.4143 31.6406 38.4143C31.2739 38.4143 30.9067 38.3748 30.5398 38.2955C29.2505 38.0373 28.0455 37.4174 26.9247 36.4356L26.895 36.4059C26.8056 36.2971 26.6866 36.2523 26.538 36.2723C26.3792 36.2921 26.2651 36.3517 26.1958 36.451L24.6634 38.4593C24.5145 38.6576 24.5246 38.8609 24.6932 39.0692C24.7428 39.1287 24.8296 39.2182 24.9535 39.337C25.0777 39.4563 25.3084 39.642 25.6454 39.8954C25.9825 40.1484 26.3495 40.3861 26.7463 40.6096C27.1431 40.8326 27.6464 41.0532 28.2564 41.2715C28.8665 41.4894 29.4987 41.6431 30.1533 41.7323V44.3358C30.1533 44.4649 30.2005 44.5764 30.2946 44.6707C30.3889 44.7651 30.5004 44.812 30.6293 44.812H32.6379C32.777 44.812 32.8911 44.7674 32.9802 44.6782C33.0694 44.5891 33.1138 44.475 33.1138 44.3358V41.7323C34.6911 41.4745 35.973 40.7976 36.9597 39.7016C37.9465 38.6056 38.4401 37.2988 38.4401 35.7815C38.4396 35.2857 38.3752 34.8195 38.2451 34.3828Z" fill="#2797F3" stroke="#1C2630" stroke-width="0.5"/>
</g>
</g>
</g>
</svg>
