<svg width="30" height="24" viewBox="0 0 30 24" fill="none" xmlns="http://www.w3.org/2000/svg">
<path d="M17.5072 15.8114C16.7608 16.3214 15.8938 16.591 15 16.591C14.1062 16.591 13.2393 16.3214 12.4929 15.8114L0.199746 7.41085C0.131543 7.36424 0.0650977 7.31565 0 7.26569V21.0309C0 22.6092 1.24951 23.8617 2.7617 23.8617H27.2382C28.778 23.8617 29.9999 22.5809 29.9999 21.0309V7.26562C29.9347 7.31571 29.8682 7.36442 29.7998 7.41109L17.5072 15.8114Z" fill="#EB608C"/>
<path d="M1.1748 5.91641L13.4679 14.317C13.9333 14.6351 14.4666 14.794 14.9999 14.794C15.5333 14.794 16.0667 14.635 16.5321 14.317L28.8252 5.91641C29.5608 5.41402 30 4.5732 30 3.66572C30 2.10534 28.7615 0.835938 27.2392 0.835938H2.76076C1.2385 0.835998 0 2.1054 0 3.66722C0 4.5732 0.439219 5.41402 1.1748 5.91641Z" fill="#EB608C"/>
</svg>
