<svg width="45" height="37" viewBox="0 0 45 37" fill="none" xmlns="http://www.w3.org/2000/svg">
<path fill-rule="evenodd" clip-rule="evenodd" d="M22.9473 0.00977421C19.3493 -0.110048 15.7141 0.871594 12.5757 2.96652C9.05076 5.3219 6.58737 8.80012 5.45271 12.6884C5.13938 12.6502 4.76416 12.6671 4.31862 12.7931C2.65517 13.2651 1.40407 14.6281 0.841523 15.8286C0.111901 17.393 -0.195812 19.4621 0.128777 21.598C0.451116 23.7273 1.35063 25.4824 2.47572 26.5721C3.60419 27.6623 4.87836 28.0167 6.14408 27.7506C8.02861 27.3484 8.963 27.0474 8.69917 25.2917L7.42163 16.781C7.67927 12.1748 10.0639 7.83873 14.0524 5.17226C19.3909 1.60628 26.3901 1.83467 31.4823 5.74381C35.0246 8.45978 37.0813 12.5292 37.3187 16.8012L36.4254 22.7546C34.4328 28.2074 29.4931 31.9843 23.7771 32.5204H19.9709C18.9887 32.5204 18.1978 33.3114 18.1978 34.2925V35.2274C18.1978 36.2091 18.9887 37 19.9709 37H24.77C25.7516 37 26.5392 36.2091 26.5392 35.2274V34.7386C30.8494 33.6866 34.6117 31.0376 37.0616 27.3433L38.5991 27.7512C39.8502 28.0758 41.1395 27.6623 42.2674 26.5726C43.3925 25.4824 44.2915 23.7278 44.6144 21.5986C44.9401 19.4626 44.6234 17.397 43.9022 15.8291C43.1782 14.2613 42.0998 13.2656 40.8549 12.9084C40.3334 12.7582 39.7675 12.7031 39.282 12.6884C38.2559 9.17253 36.1436 5.97502 33.099 3.64045C30.1057 1.34357 26.5454 0.127909 22.9473 0.00977421Z" fill="#AC6BDE"/>
<path fill-rule="evenodd" clip-rule="evenodd" d="M28.5653 15.3169C29.8338 15.3169 30.8622 16.3453 30.865 17.6172C30.8622 18.8857 29.8338 19.9169 28.5653 19.9169C27.2934 19.9169 26.2622 18.8857 26.2622 17.6172C26.2622 16.3458 27.2939 15.3169 28.5653 15.3169ZM22.3717 15.3169C23.643 15.3169 24.6713 16.3453 24.6713 17.6172C24.6713 18.8857 23.643 19.9169 22.3717 19.9169C21.0992 19.9169 20.0708 18.8857 20.0708 17.6172C20.0708 16.3458 21.0992 15.3169 22.3717 15.3169ZM16.1803 15.3169C17.4488 15.3169 18.48 16.3453 18.48 17.6172C18.48 18.8857 17.4488 19.9169 16.1803 19.9169C14.9089 19.9169 13.88 18.8857 13.88 17.6172C13.88 16.3458 14.9089 15.3169 16.1803 15.3169ZM22.3717 5.4375C15.6267 5.4375 10.1914 10.6939 10.1914 17.6172C10.1914 20.9424 11.4487 23.8811 13.4969 26.0374L12.7701 29.2956C12.5305 30.3679 13.2742 31.089 14.2378 30.5524L17.4196 28.7775C18.9317 29.434 20.6041 29.7969 22.3717 29.7969C29.1188 29.7969 34.5508 24.5438 34.5508 17.6172C34.5508 10.6939 29.1188 5.4375 22.3717 5.4375Z" fill="#AC6BDE"/>
</svg>
