<svg width="31" height="36" viewBox="0 0 31 36" fill="none" xmlns="http://www.w3.org/2000/svg">
<path d="M0 5.97643V27.47C0.00429831 29.0537 0.646192 30.5714 1.78538 31.6913C2.92457 32.8111 4.46842 33.4422 6.07947 33.4464H14.3075C14.4246 32.6155 14.6674 31.8065 15.0278 31.0462C16.0136 28.9087 17.7965 27.2248 20.0085 26.3419C19.2114 25.7997 18.5604 25.075 18.1117 24.2304C17.6629 23.3857 17.4299 22.4464 17.4327 21.4935C17.4343 19.9185 18.0715 18.4085 19.2044 17.2948C20.3373 16.181 21.8734 15.5547 23.4755 15.5531C24.059 15.5509 24.6394 15.6359 25.1968 15.8051C26.1119 16.0713 26.949 16.5486 27.6384 17.1972V5.97643C27.6382 4.39142 26.9977 2.87138 25.8576 1.75061C24.7175 0.629847 23.1712 0.000143204 21.5589 0H6.07947C4.46777 0.00218117 2.92273 0.632539 1.78309 1.75286C0.643445 2.87319 0.00221877 4.39205 0 5.97643ZM7.37349 5.95243H20.2649C20.5887 5.95243 20.8992 6.07886 21.1281 6.30392C21.3571 6.52898 21.4857 6.83423 21.4857 7.15251C21.4857 7.47079 21.3571 7.77604 21.1281 8.0011C20.8992 8.22616 20.5887 8.3526 20.2649 8.3526H7.37349C7.04972 8.3526 6.73921 8.22616 6.51027 8.0011C6.28133 7.77604 6.15272 7.47079 6.15272 7.15251C6.15272 6.83423 6.28133 6.52898 6.51027 6.30392C6.73921 6.07886 7.04972 5.95243 7.37349 5.95243ZM7.37349 12.3369H20.2649C20.5887 12.3369 20.8992 12.4633 21.1281 12.6884C21.3571 12.9134 21.4857 13.2187 21.4857 13.537C21.4857 13.8552 21.3571 14.1605 21.1281 14.3856C20.8992 14.6106 20.5887 14.7371 20.2649 14.7371H7.37349C7.04972 14.7371 6.73921 14.6106 6.51027 14.3856C6.28133 14.1605 6.15272 13.8552 6.15272 13.537C6.15272 13.2187 6.28133 12.9134 6.51027 12.6884C6.73921 12.4633 7.04972 12.3369 7.37349 12.3369ZM7.37349 18.7093H13.2332C13.557 18.7093 13.8675 18.8358 14.0964 19.0608C14.3254 19.2859 14.454 19.5911 14.454 19.9094C14.454 20.2277 14.3254 20.533 14.0964 20.758C13.8675 20.9831 13.557 21.1095 13.2332 21.1095H7.37349C7.04972 21.1095 6.73921 20.9831 6.51027 20.758C6.28133 20.533 6.15272 20.2277 6.15272 19.9094C6.15272 19.5911 6.28133 19.2859 6.51027 19.0608C6.73921 18.8358 7.04972 18.7093 7.37349 18.7093Z" fill="#4A9DFB"/>
<path d="M23.4773 25.6322C25.8034 25.6322 27.689 23.7785 27.689 21.4919C27.689 19.2052 25.8034 17.3516 23.4773 17.3516C21.1513 17.3516 19.2656 19.2052 19.2656 21.4919C19.2656 23.7785 21.1513 25.6322 23.4773 25.6322Z" fill="#4A9DFB"/>
<path d="M17.252 35.9954H29.7162C30.0396 35.9944 30.3496 35.8677 30.5783 35.6428C30.807 35.418 30.936 35.1133 30.9369 34.7953C30.9369 32.8522 30.1517 30.9886 28.754 29.6146C27.3564 28.2406 25.4607 27.4688 23.4841 27.4688C21.5075 27.4688 19.6118 28.2406 18.2141 29.6146C16.8165 30.9886 16.0312 32.8522 16.0312 34.7953C16.0322 35.1133 16.1611 35.418 16.3898 35.6428C16.6186 35.8677 16.9285 35.9944 17.252 35.9954Z" fill="#4A9DFB"/>
</svg>
