<svg width="232" height="46" viewBox="0 0 232 46" fill="none" xmlns="http://www.w3.org/2000/svg">
<g id="Logo">
<g id="Mask">
<mask id="mask0_1_377" style="mask-type:alpha" maskUnits="userSpaceOnUse" x="0" y="-1" width="233" height="47">
<rect id="Frame" y="-0.000244141" width="232.001" height="45.2684" fill="#D9D9D9"/>
</mask>
<g mask="url(#mask0_1_377)">
<g id="Logo_2">
<g id="Name">
<g id="ai">
<path id="." d="M229.171 17.9977C228.684 17.9977 228.277 17.8392 227.96 17.5224C227.643 17.1942 227.473 16.7867 227.473 16.3001C227.473 15.8135 227.632 15.4174 227.96 15.1005C228.277 14.7723 228.684 14.6025 229.171 14.6025C229.658 14.6025 230.065 14.7723 230.382 15.1005C230.699 15.4174 230.869 15.8135 230.869 16.3001C230.869 16.7867 230.71 17.1942 230.382 17.5224C230.065 17.8392 229.658 17.9977 229.171 17.9977Z" fill="url(#paint0_linear_1_377)"/>
<path id="i" d="M229.16 31.0089C228.741 31.0089 228.402 30.895 228.13 30.6671C227.87 30.4165 227.745 30.0747 227.745 29.6304V20.721C227.745 20.2767 227.87 19.9349 228.13 19.707C228.402 19.4792 228.752 19.3652 229.16 19.3652C229.567 19.3652 229.918 19.4792 230.19 19.707C230.461 19.9349 230.597 20.2767 230.597 20.721V29.6304C230.597 30.0747 230.461 30.4279 230.19 30.6671C229.918 30.895 229.567 31.0089 229.16 31.0089Z" fill="white"/>
<path id="a" d="M221.441 19.2617C223.003 19.2617 224.157 19.6491 224.904 20.4352C225.674 21.2099 226.047 22.3834 226.047 23.9671V29.5952C226.047 30.0054 225.923 30.3358 225.685 30.5864C225.436 30.8143 225.108 30.9282 224.678 30.9282C224.282 30.9282 223.954 30.8029 223.693 30.5636C223.444 30.313 223.331 29.994 223.331 29.5952V29.0825C223.071 29.6864 222.664 30.1535 222.098 30.4953C221.543 30.8371 220.909 31.008 220.174 31.008C219.438 31.008 218.748 30.8485 218.137 30.5522C217.526 30.2446 217.05 29.8231 216.688 29.2876C216.337 28.7521 216.156 28.1483 216.156 27.4875C216.156 26.6558 216.36 26.0064 216.779 25.5279C217.209 25.0494 217.899 24.7076 218.838 24.4911C219.789 24.2747 221.091 24.1721 222.754 24.1721H223.331V23.6367C223.331 22.8847 223.173 22.3378 222.845 21.9961C222.528 21.6429 222.007 21.4606 221.283 21.4606C220.842 21.4606 220.389 21.5289 219.925 21.6657C219.472 21.791 218.929 21.9733 218.295 22.2239C217.899 22.429 217.605 22.5201 217.424 22.5201C217.152 22.5201 216.915 22.4176 216.733 22.2239C216.564 22.0188 216.484 21.7568 216.484 21.4378C216.484 21.1758 216.541 20.9479 216.666 20.7656C216.801 20.5605 217.028 20.3782 217.333 20.2073C217.865 19.9111 218.499 19.6833 219.235 19.5124C219.981 19.3415 220.717 19.2617 221.43 19.2617H221.441ZM220.728 28.923C221.498 28.923 222.109 28.6724 222.584 28.1597C223.071 27.6356 223.32 26.9634 223.32 26.1545V25.6646H222.913C221.894 25.6646 221.091 25.7102 220.525 25.8013C219.959 25.8925 219.551 26.052 219.314 26.2912C219.065 26.5191 218.952 26.8381 218.952 27.2369C218.952 27.7268 219.121 28.1369 219.461 28.4559C219.812 28.7635 220.242 28.9116 220.74 28.9116L220.728 28.923Z" fill="white"/>
</g>
<g id="Booster">
<path id="._2" d="M213.333 30.8502C212.846 30.8502 212.437 30.687 212.116 30.3714C211.795 30.045 211.629 29.6314 211.629 29.1526C211.629 28.6738 211.795 28.2712 212.116 27.9556C212.437 27.6292 212.846 27.4551 213.333 27.4551C213.819 27.4551 214.228 27.6183 214.549 27.9556C214.87 28.2712 215.025 28.6738 215.025 29.1526C215.025 29.6314 214.87 30.045 214.549 30.3714C214.228 30.687 213.819 30.8502 213.333 30.8502Z" fill="white"/>
<path id="r" d="M210.373 19.0695C210.781 19.0353 211.098 19.1265 211.335 19.3316C211.573 19.5366 211.686 19.8442 211.686 20.2544C211.686 20.6645 211.584 20.9949 211.38 21.2C211.177 21.4051 210.803 21.5418 210.283 21.5988L209.581 21.6671C208.653 21.7583 207.974 22.0773 207.544 22.6128C207.125 23.1482 206.91 23.8204 206.91 24.6179V29.5853C206.91 30.041 206.774 30.3942 206.491 30.6449C206.209 30.8841 205.858 30.9981 205.439 30.9981C205.02 30.9981 204.669 30.8841 204.386 30.6449C204.115 30.3942 203.99 30.041 203.99 29.5853V20.4481C203.99 20.0038 204.126 19.6734 204.386 19.4341C204.669 19.1948 205.009 19.0809 205.416 19.0809C205.824 19.0809 206.152 19.1948 206.401 19.4341C206.65 19.6506 206.774 19.981 206.774 20.4025V21.3481C207.069 20.6532 207.51 20.1177 208.087 19.7417C208.687 19.3657 209.343 19.1493 210.056 19.1037L210.385 19.0809L210.373 19.0695Z" fill="white"/>
<path id="e" d="M201.365 27.6486C201.636 27.6486 201.84 27.7512 201.998 27.9562C202.168 28.1613 202.259 28.4348 202.259 28.7879C202.259 29.2778 201.964 29.688 201.387 30.0184C200.855 30.3146 200.256 30.5653 199.577 30.7475C198.909 30.9184 198.264 31.0096 197.653 31.0096C195.808 31.0096 194.337 30.4741 193.262 29.4032C192.186 28.3322 191.643 26.8625 191.643 25.0054C191.643 23.8206 191.881 22.7724 192.345 21.861C192.82 20.9495 193.477 20.2431 194.314 19.7305C195.174 19.2292 196.147 18.9785 197.223 18.9785C198.298 18.9785 199.158 19.2064 199.927 19.6621C200.697 20.1178 201.285 20.7672 201.715 21.5989C202.134 22.4306 202.349 23.4218 202.349 24.5497C202.349 25.2219 202.055 25.5637 201.455 25.5637H194.529C194.62 26.646 194.925 27.455 195.446 27.979C195.966 28.4803 196.713 28.731 197.698 28.731C198.196 28.731 198.637 28.6626 199.011 28.5373C199.395 28.412 199.837 28.2411 200.323 28.0132C200.799 27.7626 201.138 27.6372 201.353 27.6372L201.365 27.6486ZM197.302 21.0521C196.51 21.0521 195.865 21.3027 195.378 21.804C194.903 22.3053 194.631 23.0344 194.529 23.9801H199.837C199.803 23.0231 199.565 22.2939 199.135 21.804C198.694 21.3027 198.083 21.0521 197.302 21.0521Z" fill="white"/>
<path id="t" d="M184.83 21.5531V17.1553C184.83 16.7338 184.966 16.392 185.226 16.1414C185.498 15.8907 185.849 15.7654 186.302 15.7654C186.754 15.7654 187.094 15.8907 187.354 16.1414C187.614 16.392 187.75 16.7338 187.75 17.1553V19.3314H189.742C190.161 19.3314 190.489 19.4226 190.704 19.6162C190.942 19.8099 191.055 20.0834 191.055 20.4479C191.055 20.8125 190.942 21.0859 190.704 21.2796C190.489 21.4733 190.161 21.5644 189.742 21.5644H187.75V26.9306C187.75 28.0927 188.282 28.7193 189.346 28.799L189.98 28.8446C190.76 28.8902 191.157 29.2434 191.157 29.9042C191.157 30.2801 190.998 30.5764 190.681 30.7814C190.387 30.9751 189.957 31.0549 189.391 31.0207L188.757 30.9751C186.132 30.7814 184.808 29.3687 184.808 26.7255V21.5531" fill="white"/>
<path id="s" d="M178.278 31.0093C176.569 31.0093 175.199 30.6675 174.147 29.9953C173.649 29.6991 173.4 29.2661 173.4 28.7193C173.4 28.4002 173.49 28.1496 173.66 27.9673C173.83 27.7622 174.045 27.6597 174.294 27.6597C174.566 27.6597 174.928 27.785 175.392 28.0357C175.89 28.2749 176.342 28.4572 176.75 28.5825C177.169 28.7079 177.7 28.7762 178.346 28.7762C178.991 28.7762 179.511 28.6623 179.873 28.4458C180.247 28.2294 180.439 27.9217 180.439 27.523C180.439 27.2495 180.36 27.0445 180.202 26.885C180.066 26.7255 179.794 26.5888 179.398 26.4634C179.025 26.3267 178.447 26.1672 177.655 25.9963C176.263 25.7115 175.256 25.3127 174.656 24.7887C174.056 24.2646 173.762 23.5468 173.762 22.6354C173.762 21.9404 173.966 21.3252 174.373 20.7669C174.781 20.1972 175.335 19.7643 176.037 19.4681C176.761 19.1491 177.576 19.001 178.481 19.001C179.138 19.001 179.771 19.0921 180.383 19.263C180.994 19.4225 181.537 19.6618 182.024 19.9694C182.522 20.2884 182.77 20.6985 182.77 21.2226C182.77 21.5416 182.68 21.8037 182.51 22.0315C182.34 22.2366 182.125 22.3391 181.876 22.3391C181.707 22.3391 181.537 22.305 181.356 22.248C181.197 22.1682 180.994 22.0543 180.745 21.9176C180.292 21.6783 179.896 21.5074 179.568 21.3935C179.24 21.2682 178.832 21.1998 178.346 21.1998C177.768 21.1998 177.304 21.3138 176.965 21.553C176.637 21.7923 176.467 22.1113 176.467 22.5214C176.467 22.9316 176.637 23.2164 176.987 23.4215C177.338 23.6266 177.995 23.8316 178.979 24.0367C180.032 24.2532 180.847 24.5038 181.446 24.7887C182.046 25.0735 182.465 25.4267 182.714 25.8482C182.986 26.2697 183.11 26.8166 183.11 27.4774C183.11 28.5484 182.669 29.4028 181.775 30.0522C180.903 30.7016 179.726 31.0207 178.255 31.0207L178.278 31.0093Z" fill="white"/>
<path id="o" d="M166.202 31.0096C165.025 31.0096 163.995 30.7703 163.101 30.2804C162.23 29.7905 161.54 29.0956 161.064 28.1727C160.578 27.2613 160.34 26.1903 160.34 24.9827C160.34 23.775 160.578 22.7154 161.064 21.8154C161.551 20.9039 162.23 20.1976 163.101 19.7077C163.995 19.2178 165.025 18.9785 166.202 18.9785C167.379 18.9785 168.398 19.2178 169.28 19.7077C170.175 20.1976 170.854 20.8925 171.318 21.8154C171.804 22.7154 172.042 23.7636 172.042 24.9827C172.042 26.2017 171.804 27.2613 171.318 28.1727C170.854 29.0842 170.163 29.7905 169.28 30.2804C168.409 30.7703 167.379 31.0096 166.202 31.0096ZM166.18 28.7196C167.13 28.7196 167.866 28.4006 168.364 27.774C168.862 27.1473 169.111 26.2131 169.111 24.9827C169.111 23.7522 168.862 22.8522 168.364 22.2141C167.866 21.5647 167.142 21.2457 166.202 21.2457C165.263 21.2457 164.539 21.5647 164.018 22.2141C163.52 22.8408 163.271 23.7636 163.271 24.9827C163.271 26.2017 163.52 27.1359 164.018 27.774C164.516 28.4006 165.24 28.7196 166.18 28.7196Z" fill="white"/>
<path id="o_2" d="M152.792 31.0096C151.615 31.0096 150.585 30.7703 149.691 30.2804C148.82 29.7905 148.129 29.0956 147.654 28.1727C147.167 27.2613 146.93 26.1903 146.93 24.9827C146.93 23.775 147.167 22.7154 147.654 21.8154C148.141 20.9039 148.82 20.1976 149.691 19.7077C150.585 19.2178 151.615 18.9785 152.792 18.9785C153.969 18.9785 154.987 19.2178 155.87 19.7077C156.764 20.1976 157.443 20.8925 157.907 21.8154C158.394 22.7154 158.632 23.7636 158.632 24.9827C158.632 26.2017 158.394 27.2613 157.907 28.1727C157.443 29.0842 156.753 29.7905 155.87 30.2804C154.999 30.7703 153.969 31.0096 152.792 31.0096ZM152.769 28.7196C153.72 28.7196 154.455 28.4006 154.953 27.774C155.451 27.1473 155.7 26.2131 155.7 24.9827C155.7 23.7522 155.451 22.8522 154.953 22.2141C154.455 21.5647 153.731 21.2457 152.792 21.2457C151.853 21.2457 151.128 21.5647 150.608 22.2141C150.11 22.8408 149.861 23.7636 149.861 24.9827C149.861 26.2017 150.11 27.1359 150.608 27.774C151.106 28.4006 151.83 28.7196 152.769 28.7196Z" fill="white"/>
<path id="B" d="M142.016 22.36C142.914 22.6353 143.608 23.1285 144.1 23.8511C144.602 24.5737 144.859 25.4569 144.859 26.5007C144.859 27.9459 144.378 29.0815 143.416 29.8958C142.465 30.7102 141.161 31.1231 139.494 31.1231H133.777C133.35 31.1231 133.008 30.9969 132.762 30.7331C132.527 30.4808 132.41 30.1138 132.41 29.655V15.6156C132.41 15.1454 132.527 14.7898 132.762 14.5374C133.019 14.2851 133.35 14.1475 133.777 14.1475H139.27C140.894 14.1475 142.166 14.5374 143.085 15.3289C144.014 16.0974 144.485 17.187 144.485 18.5749C144.485 19.4696 144.26 20.2495 143.822 20.9148C143.395 21.5686 142.796 22.0503 142.027 22.36H142.016ZM135.188 21.3048H138.8C140.766 21.3048 141.749 20.5133 141.749 18.919C141.749 18.1161 141.503 17.5197 141.022 17.1411C140.531 16.7512 139.794 16.5676 138.81 16.5676H135.199V21.2933L135.188 21.3048ZM139.174 28.7259C140.21 28.7259 140.958 28.5309 141.439 28.1294C141.909 27.728 142.144 27.0971 142.144 26.2484C142.144 25.3996 141.899 24.7687 141.418 24.3443C140.948 23.9314 140.2 23.7135 139.174 23.7135H135.188V28.7259H139.174Z" fill="white"/>
</g>
<g id="Career">
<path id="r_2" d="M127.894 19.0695C128.302 19.0353 128.619 19.1265 128.856 19.3316C129.094 19.5366 129.207 19.8442 129.207 20.2544C129.207 20.6645 129.105 20.9949 128.902 21.2C128.698 21.4051 128.336 21.5418 127.804 21.5988L127.102 21.6671C126.174 21.7583 125.495 22.0773 125.065 22.6128C124.646 23.1482 124.431 23.8204 124.431 24.6179V29.5853C124.431 30.041 124.295 30.3942 124.013 30.6449C123.73 30.8841 123.379 30.9981 122.96 30.9981C122.541 30.9981 122.191 30.8841 121.908 30.6449C121.636 30.3942 121.511 30.041 121.511 29.5853V20.4367C121.511 19.9924 121.647 19.662 121.908 19.4227C122.191 19.1835 122.53 19.0695 122.937 19.0695C123.345 19.0695 123.673 19.1835 123.922 19.4227C124.171 19.6392 124.295 19.9696 124.295 20.3911V21.3367C124.59 20.6418 125.031 20.1063 125.608 19.7303C126.208 19.3543 126.864 19.1379 127.577 19.0923L127.906 19.0695H127.894Z" fill="white"/>
<path id="e_2" d="M118.795 27.6486C119.067 27.6486 119.27 27.7512 119.429 27.9562C119.599 28.1613 119.689 28.4348 119.689 28.7879C119.689 29.2778 119.395 29.688 118.818 30.0184C118.286 30.3146 117.686 30.5653 117.007 30.7475C116.339 30.9184 115.694 31.0096 115.083 31.0096C113.238 31.0096 111.767 30.4741 110.692 29.4032C109.617 28.3322 109.074 26.8625 109.074 25.0054C109.074 23.8206 109.311 22.7724 109.775 21.861C110.239 20.9495 110.907 20.2431 111.745 19.7305C112.605 19.2292 113.578 18.9785 114.653 18.9785C115.728 18.9785 116.588 19.2064 117.358 19.6621C118.127 20.1178 118.716 20.7672 119.146 21.5989C119.565 22.4306 119.78 23.4218 119.78 24.5497C119.78 25.2219 119.485 25.5637 118.886 25.5637H111.96C112.05 26.646 112.356 27.455 112.876 27.979C113.397 28.4803 114.144 28.731 115.128 28.731C115.626 28.731 116.068 28.6626 116.441 28.5373C116.837 28.412 117.267 28.2411 117.754 28.0132C118.218 27.7626 118.569 27.6372 118.784 27.6372L118.795 27.6486ZM114.732 21.0521C113.929 21.0521 113.295 21.3027 112.808 21.804C112.344 22.3053 112.061 23.0344 111.96 23.9801H117.267C117.233 23.0231 116.996 22.2939 116.566 21.804C116.124 21.3027 115.513 21.0521 114.732 21.0521Z" fill="white"/>
<path id="e_3" d="M106.392 27.6486C106.663 27.6486 106.867 27.7512 107.025 27.9562C107.195 28.1613 107.286 28.4348 107.286 28.7879C107.286 29.2778 106.991 29.688 106.414 30.0184C105.882 30.3146 105.283 30.5653 104.603 30.7475C103.936 30.9184 103.291 31.0096 102.68 31.0096C100.835 31.0096 99.3637 30.4741 98.2885 29.4032C97.2134 28.3322 96.6702 26.8625 96.6702 25.0054C96.6702 23.8206 96.9079 22.7724 97.3719 21.861C97.8472 20.9495 98.5036 20.2431 99.341 19.7305C100.201 19.2292 101.174 18.9785 102.25 18.9785C103.325 18.9785 104.185 19.2064 104.954 19.6621C105.724 20.1178 106.312 20.7672 106.742 21.5989C107.161 22.4306 107.376 23.4218 107.376 24.5497C107.376 25.2219 107.082 25.5637 106.482 25.5637H99.5561C99.6466 26.646 99.9522 27.455 100.473 27.979C100.993 28.4803 101.74 28.731 102.725 28.731C103.223 28.731 103.664 28.6626 104.038 28.5373C104.434 28.412 104.864 28.2411 105.35 28.0132C105.814 27.7626 106.165 27.6372 106.38 27.6372L106.392 27.6486ZM102.329 21.0521C101.525 21.0521 100.891 21.3027 100.405 21.804C99.9408 22.3053 99.6579 23.0344 99.5561 23.9801H104.864C104.83 23.0231 104.592 22.2939 104.162 21.804C103.721 21.3027 103.11 21.0521 102.329 21.0521Z" fill="white"/>
<path id="r_3" d="M94.7921 19.0695C95.1995 19.0353 95.5163 19.1265 95.754 19.3316C95.9917 19.5366 96.1048 19.8442 96.1048 20.2544C96.1048 20.6645 96.003 20.9949 95.7993 21.2C95.5956 21.4051 95.2334 21.5418 94.6902 21.5988L93.9885 21.6671C93.0605 21.7583 92.3815 22.0773 91.9515 22.6128C91.5327 23.1482 91.3177 23.8204 91.3177 24.6179V29.5853C91.3177 30.041 91.1819 30.3942 90.899 30.6449C90.616 30.8841 90.2652 30.9981 89.8465 30.9981C89.4277 30.9981 89.0769 30.8841 88.794 30.6449C88.5224 30.3942 88.3979 30.041 88.3979 29.5853V20.4367C88.3979 19.9924 88.5337 19.662 88.794 19.4227C89.0769 19.1835 89.4164 19.0695 89.8238 19.0695C90.2313 19.0695 90.5595 19.1835 90.8084 19.4227C91.0574 19.6392 91.1819 19.9696 91.1819 20.3911V21.3367C91.4761 20.6418 91.9175 20.1063 92.4947 19.7303C93.0945 19.3543 93.7509 19.1379 94.4639 19.0923L94.7921 19.0695Z" fill="white"/>
<path id="a_2" d="M81.969 18.9785C83.5647 18.9785 84.7417 19.3773 85.5112 20.1862C86.2921 20.9723 86.6882 22.18 86.6882 23.7978V29.5627C86.6882 29.9842 86.5637 30.326 86.3148 30.5766C86.0658 30.8159 85.715 30.9298 85.2849 30.9298C84.8775 30.9298 84.538 30.8045 84.2777 30.5539C84.0287 30.3032 83.9042 29.9728 83.9042 29.5627V29.0386C83.6326 29.6538 83.2139 30.1323 82.6367 30.4855C82.0708 30.8273 81.4145 31.0096 80.6675 31.0096C79.9206 31.0096 79.2076 30.8501 78.5739 30.5425C77.9401 30.2349 77.4535 29.7905 77.0913 29.2437C76.7292 28.6968 76.5481 28.0816 76.5481 27.398C76.5481 26.5435 76.7631 25.8827 77.1819 25.3928C77.6232 24.9029 78.3249 24.5497 79.2982 24.3333C80.2714 24.1168 81.6068 24.0029 83.3157 24.0029H83.9042V23.456C83.9042 22.6813 83.7345 22.123 83.4063 21.7812C83.0781 21.4166 82.5462 21.2343 81.8105 21.2343C81.3579 21.2343 80.8939 21.3027 80.4299 21.4508C79.9659 21.5761 79.4 21.7698 78.7662 22.0205C78.3588 22.2255 78.0646 22.3281 77.8722 22.3281C77.5893 22.3281 77.3516 22.2255 77.1705 22.0205C77.0008 21.8154 76.9102 21.5533 76.9102 21.2116C76.9102 20.9381 76.9781 20.7103 77.1026 20.528C77.2384 20.3229 77.4648 20.1292 77.7817 19.9583C78.3249 19.6621 78.9813 19.4228 79.7282 19.2519C80.4978 19.0811 81.2447 18.9899 81.9803 18.9899L81.969 18.9785ZM81.2447 28.8791C82.0256 28.8791 82.6593 28.617 83.146 28.1044C83.6439 27.5689 83.8929 26.8853 83.8929 26.0536V25.5523H83.4742C82.4217 25.5523 81.6068 25.5979 81.0297 25.689C80.4525 25.7802 80.0338 25.9511 79.7848 26.1903C79.5358 26.4296 79.4113 26.7486 79.4113 27.1587C79.4113 27.66 79.5811 28.0816 79.9319 28.412C80.2941 28.731 80.7354 28.8791 81.2447 28.8791Z" fill="white"/>
<path id="C" d="M68.9075 31.1231C67.3349 31.1231 65.9533 30.7818 64.7626 30.0877C63.5944 29.4051 62.6845 28.4152 62.0555 27.1295C61.4265 25.8438 61.1119 24.342 61.1119 22.6239C61.1119 20.9059 61.4265 19.4154 62.0555 18.1411C62.6845 16.8554 63.5944 15.8769 64.7626 15.1828C65.9533 14.5002 67.3349 14.1475 68.9075 14.1475C69.9297 14.1475 70.8845 14.3067 71.7832 14.614C72.6818 14.9098 73.4681 15.3535 74.1645 15.9224C74.3667 16.0817 74.5015 16.241 74.5801 16.4116C74.6588 16.5823 74.6925 16.7985 74.6925 17.0488C74.6925 17.3901 74.6026 17.686 74.4116 17.9135C74.2319 18.1524 74.0073 18.2662 73.7377 18.2662C73.4344 18.2662 73.1086 18.1524 72.7829 17.9363C72.1201 17.4356 71.5023 17.0943 70.9295 16.9009C70.3566 16.6961 69.7275 16.5937 69.0311 16.5937C67.4248 16.5937 66.2117 17.1057 65.3692 18.1183C64.5492 19.1309 64.1448 20.6328 64.1448 22.6012C64.1448 24.5695 64.5492 26.0828 65.3692 27.1068C66.2004 28.1194 67.4248 28.6314 69.0311 28.6314C69.6938 28.6314 70.3004 28.529 70.8621 28.3242C71.4349 28.1194 72.0752 27.778 72.7829 27.2888C72.9401 27.1978 73.0862 27.1181 73.2434 27.0499C73.4007 26.993 73.5579 26.9588 73.7264 26.9588C73.9848 26.9588 74.2094 27.0726 74.4004 27.3116C74.5801 27.5505 74.6812 27.8349 74.6812 28.1763C74.6812 28.4152 74.6475 28.62 74.5689 28.8134C74.4903 28.9841 74.3555 29.1548 74.1533 29.3027C73.4568 29.8829 72.6593 30.3267 71.7719 30.6339C70.8733 30.9297 69.9297 31.1231 68.9075 31.1231Z" fill="white"/>
</g>
</g>
<g id="Icon">
<path id="5" fill-rule="evenodd" clip-rule="evenodd" d="M44.7792 23.8407C45.5994 24.661 45.5994 25.9909 44.7792 26.8112L27.3806 44.2097C26.5604 45.03 25.2304 45.03 24.4102 44.2097C23.5899 43.3894 23.5899 42.0595 24.4102 41.2392L41.8087 23.8407C42.629 23.0204 43.9589 23.0204 44.7792 23.8407Z" fill="url(#paint1_linear_1_377)"/>
<path id="4" fill-rule="evenodd" clip-rule="evenodd" d="M42.5146 14.786C43.3349 15.6063 43.3349 16.9362 42.5146 17.7565L25.1161 35.155C24.2958 35.9753 22.9659 35.9753 22.1456 35.155C21.3254 34.3347 21.3254 33.0048 22.1456 32.1845L39.5442 14.786C40.3644 13.9657 41.6944 13.9657 42.5146 14.786Z" fill="url(#paint2_linear_1_377)"/>
<path id="3" fill-rule="evenodd" clip-rule="evenodd" d="M41.0978 4.88341C41.918 5.70369 41.918 7.03362 41.0978 7.85389L23.6993 25.2524C22.879 26.0727 21.549 26.0727 20.7288 25.2524C19.9085 24.4321 19.9085 23.1022 20.7288 22.2819L38.1273 4.88341C38.9476 4.06314 40.2775 4.06314 41.0978 4.88341Z" fill="url(#paint3_linear_1_377)"/>
<path id="2" fill-rule="evenodd" clip-rule="evenodd" d="M31.1908 3.47057C32.0111 4.29085 32.0111 5.62077 31.1908 6.44105L13.7923 23.8396C12.9721 24.6598 11.6421 24.6598 10.8218 23.8396C10.0016 23.0193 10.0016 21.6894 10.8219 20.8691L28.2204 3.47057C29.0406 2.6503 30.3706 2.6503 31.1908 3.47057Z" fill="url(#paint4_linear_1_377)"/>
<path id="1" fill-rule="evenodd" clip-rule="evenodd" d="M22.1394 1.20324C22.9597 2.02351 22.9597 3.35344 22.1394 4.17372L4.74088 21.5722C3.9206 22.3925 2.59067 22.3925 1.7704 21.5722C0.950122 20.752 0.950124 19.422 1.7704 18.6018L19.1689 1.20324C19.9892 0.382962 21.3191 0.382962 22.1394 1.20324Z" fill="url(#paint5_linear_1_377)"/>
</g>
</g>
</g>
</g>
</g>
<defs>
<linearGradient id="paint0_linear_1_377" x1="229.171" y1="14.6025" x2="229.171" y2="17.9977" gradientUnits="userSpaceOnUse">
<stop stop-color="#AC6BDE"/>
<stop offset="1" stop-color="#5533AF"/>
</linearGradient>
<linearGradient id="paint1_linear_1_377" x1="33.1094" y1="32.5399" x2="36.0799" y2="35.5104" gradientUnits="userSpaceOnUse">
<stop stop-color="#2797F3"/>
<stop offset="1" stop-color="#0552A5"/>
</linearGradient>
<linearGradient id="paint2_linear_1_377" x1="30.8449" y1="23.4853" x2="33.8154" y2="26.4557" gradientUnits="userSpaceOnUse">
<stop stop-color="#2797F3"/>
<stop offset="1" stop-color="#0552A5"/>
</linearGradient>
<linearGradient id="paint3_linear_1_377" x1="29.428" y1="13.5827" x2="32.3985" y2="16.5531" gradientUnits="userSpaceOnUse">
<stop stop-color="#2797F3"/>
<stop offset="1" stop-color="#0552A5"/>
</linearGradient>
<linearGradient id="paint4_linear_1_377" x1="19.5211" y1="12.1698" x2="22.4916" y2="15.1403" gradientUnits="userSpaceOnUse">
<stop stop-color="#2797F3"/>
<stop offset="1" stop-color="#0552A5"/>
</linearGradient>
<linearGradient id="paint5_linear_1_377" x1="10.4697" y1="9.90249" x2="13.4401" y2="12.873" gradientUnits="userSpaceOnUse">
<stop stop-color="#2797F3"/>
<stop offset="1" stop-color="#0552A5"/>
</linearGradient>
</defs>
</svg>
