<svg width="63" height="63" viewBox="0 0 63 63" fill="none" xmlns="http://www.w3.org/2000/svg">
<g id="Group 1261154696">
<circle id="Ellipse 70" cx="31.5" cy="31.5" r="31" stroke="white"/>
<g id="fi_482979">
<g id="Group">
<g id="Group_2">
<g id="Group_3">
<path id="Vector" d="M31.5 32.7273C35.5668 32.7273 38.8636 29.4304 38.8636 25.3636C38.8636 21.2968 35.5668 18 31.5 18C27.4332 18 24.1364 21.2968 24.1364 25.3636C24.1364 29.4304 27.4332 32.7273 31.5 32.7273Z" fill="white"/>
<path id="Vector_2" d="M41.9797 36.7219C40.8195 36.1268 38.9714 35.2921 36.7614 34.6958C36.4546 34.6095 36.131 34.7803 36.0243 35.0811L33.5091 42.0981L32.7476 38.2895L33.9234 34.7623C33.9857 34.5753 33.9546 34.3692 33.8383 34.2091C33.7232 34.0492 33.5387 33.9545 33.3409 33.9545H29.6591C29.4613 33.9545 29.2768 34.0492 29.1617 34.2091C29.0454 34.3691 29.0143 34.5753 29.0766 34.7623L30.2524 38.2895L29.4909 42.0981L26.9757 35.0811C26.869 34.7803 26.5442 34.6101 26.2386 34.6958C24.0285 35.2921 22.1804 36.1268 21.0203 36.7219C19.1578 37.6783 18 39.5659 18 41.6471V42.5454C18 43.8991 19.1014 45 20.4546 45H29.6591H33.3409H42.5454C43.8986 45 45 43.8992 45 42.5454V41.6471C44.9999 39.5659 43.8422 37.6783 41.9797 36.7219Z" fill="white"/>
</g>
</g>
</g>
</g>
</g>
</svg>
