<svg width="34" height="34" viewBox="0 0 34 34" fill="none" xmlns="http://www.w3.org/2000/svg">
<g clip-path="url(#clip0_273_1196)">
<path d="M8.69828 23.3692C11.6577 23.3692 14.0567 20.9702 14.0567 18.0108C14.0567 15.0514 11.6577 12.6523 8.69828 12.6523C5.7389 12.6523 3.33984 15.0514 3.33984 18.0108C3.33984 20.9702 5.7389 23.3692 8.69828 23.3692Z" fill="#349D3F"/>
<path d="M25.2998 10.7247C28.2592 10.7247 30.6583 8.32563 30.6583 5.36625C30.6583 2.40687 28.2592 0.0078125 25.2998 0.0078125C22.3405 0.0078125 19.9414 2.40687 19.9414 5.36625C19.9414 8.32563 22.3405 10.7247 25.2998 10.7247Z" fill="#349D3F"/>
<path fill-rule="evenodd" clip-rule="evenodd" d="M31.6285 24.9007C31.6285 24.2463 32.1612 23.7168 32.814 23.7168C33.4684 23.7168 33.9995 24.2494 33.9995 24.9038L33.9947 29.649C33.9916 32.0469 32.0474 33.991 29.6479 33.991H20.9511C20.2967 33.991 19.7656 33.4599 19.7656 32.8055C19.7656 32.1511 20.2967 31.62 20.9511 31.62H29.6479C30.7386 31.62 31.6222 30.7364 31.6237 29.6458L31.6285 24.9007Z" fill="#349D3F"/>
<path fill-rule="evenodd" clip-rule="evenodd" d="M2.3788 9.09822C2.3788 9.75261 1.84615 10.2822 1.19176 10.2822C0.537365 10.2822 0.0078125 9.74951 0.0078125 9.09512L0.0125855 4.34998C0.0141351 1.95202 1.9599 0.0078125 4.35934 0.0078125H16.2095C16.8639 0.0078125 17.395 0.538914 17.395 1.19331C17.395 1.8477 16.8639 2.3788 16.2095 2.3788H4.35934C3.26868 2.3788 2.38513 3.26236 2.38351 4.35308L2.3788 9.09822Z" fill="#349D3F"/>
<path fill-rule="evenodd" clip-rule="evenodd" d="M13.8324 22.6777C15.9916 24.2616 17.3952 26.8175 17.3952 29.6975C17.3952 30.9288 16.6191 32.0021 15.1918 32.7402C13.6159 33.5558 11.1595 33.9921 8.6984 33.9921C6.23573 33.9921 3.77939 33.5558 2.20344 32.7402C0.776135 32.0021 0 30.9288 0 29.6975C0 26.8175 1.40363 24.2616 3.56281 22.6777C4.83366 24.075 6.66406 24.9507 8.6984 24.9507C10.7311 24.9508 12.5631 24.0751 13.8324 22.6777Z" fill="#349D3F"/>
<path fill-rule="evenodd" clip-rule="evenodd" d="M30.4379 10.0332C32.597 11.617 34.0007 14.173 34.0007 17.0529C34.0007 18.2842 33.2245 19.3575 31.7972 20.0956C30.2213 20.9112 27.7649 21.3475 25.3023 21.3475C22.8412 21.3475 20.3848 20.9112 18.8089 20.0956C17.3816 19.3575 16.6055 18.2842 16.6055 17.0529C16.6055 14.1729 18.0091 11.617 20.1683 10.0332C21.4376 11.4305 23.2695 12.3062 25.3023 12.3062C27.3366 12.3062 29.167 11.4305 30.4379 10.0332Z" fill="#349D3F"/>
</g>
<defs>
<clipPath id="clip0_273_1196">
<rect width="34" height="34" fill="white"/>
</clipPath>
</defs>
</svg>
