<svg width="40" height="40" viewBox="0 0 40 40" fill="none" xmlns="http://www.w3.org/2000/svg">
<circle cx="20" cy="20" r="19" stroke="white" stroke-width="0.7"/>
<path d="M26.0822 18.1094L18.7218 13.3268C18.4814 13.1685 18.2089 13.0865 17.9321 13.0889C17.6552 13.0914 17.3839 13.1782 17.1456 13.3406C16.9135 13.4935 16.7207 13.7144 16.5867 13.9809C16.4527 14.2475 16.3824 14.5501 16.3828 14.858V24.4233C16.3824 24.7312 16.4527 25.0338 16.5867 25.3004C16.7207 25.5669 16.9135 25.7878 17.1456 25.9407C17.3839 26.103 17.6552 26.1898 17.9321 26.1923C18.2089 26.1947 18.4814 26.1127 18.7218 25.9546L26.0822 21.1719C26.3195 21.0205 26.5174 20.7986 26.6552 20.5293C26.7929 20.26 26.8656 19.9532 26.8656 19.6407C26.8656 19.3281 26.7929 19.0213 26.6552 18.752C26.5174 18.4827 26.3195 18.2608 26.0822 18.1094Z" fill="white"/>
</svg>
