<svg width="11" height="11" viewBox="0 0 11 11" fill="none" xmlns="http://www.w3.org/2000/svg">
<g id="Group 1261154737">
<g id="fi_8369316">
<path id="sparkle" d="M7.38055 7.31715L6.37474 7.02972C5.9218 6.90203 5.50921 6.66023 5.17644 6.32746C4.84368 5.9947 4.60188 5.58211 4.47418 5.12916L4.18676 4.12336C4.1723 4.08817 4.14771 4.05807 4.11611 4.03689C4.08451 4.0157 4.04733 4.00439 4.00928 4.00439C3.97124 4.00439 3.93406 4.0157 3.90246 4.03689C3.87085 4.05807 3.84626 4.08817 3.83181 4.12336L3.54438 5.12916C3.41669 5.58211 3.17489 5.9947 2.84212 6.32746C2.50936 6.66023 2.09677 6.90203 1.64383 7.02972L0.638017 7.31715C0.599397 7.32811 0.565407 7.35137 0.541204 7.3834C0.517001 7.41543 0.503906 7.45448 0.503906 7.49462C0.503906 7.53477 0.517001 7.57382 0.541204 7.60585C0.565407 7.63788 0.599397 7.66114 0.638017 7.6721L1.64383 7.95952C2.09677 8.08722 2.50936 8.32902 2.84212 8.66178C3.17489 8.99455 3.41669 9.40714 3.54438 9.86008L3.83181 10.8659C3.84277 10.9045 3.86603 10.9385 3.89806 10.9627C3.93009 10.9869 3.96914 11 4.00928 11C4.04943 11 4.08848 10.9869 4.12051 10.9627C4.15254 10.9385 4.1758 10.9045 4.18676 10.8659L4.47418 9.86008C4.60188 9.40714 4.84368 8.99455 5.17644 8.66178C5.50921 8.32902 5.9218 8.08722 6.37474 7.95952L7.38055 7.6721C7.41917 7.66114 7.45316 7.63788 7.47736 7.60585C7.50156 7.57382 7.51466 7.53477 7.51466 7.49462C7.51466 7.45448 7.50156 7.41543 7.47736 7.3834C7.45316 7.35137 7.41917 7.32811 7.38055 7.31715Z" fill="#F2EDF9"/>
</g>
<g id="fi_8369316_2">
<path id="sparkle_2" d="M10.9044 2.36262L10.187 2.15763C9.86399 2.06656 9.56973 1.89411 9.33241 1.65679C9.09508 1.41947 8.92263 1.12521 8.83156 0.802175L8.62657 0.0848423C8.61626 0.0597453 8.59873 0.0382795 8.57619 0.0231727C8.55365 0.00806586 8.52713 0 8.5 0C8.47287 0 8.44635 0.00806586 8.42381 0.0231727C8.40127 0.0382795 8.38374 0.0597453 8.37343 0.0848423L8.16844 0.802175C8.07737 1.12521 7.90492 1.41947 7.66759 1.65679C7.43027 1.89411 7.13601 2.06656 6.81298 2.15763L6.09565 2.36262C6.0681 2.37044 6.04386 2.38703 6.0266 2.40987C6.00934 2.43271 6 2.46056 6 2.4892C6 2.51783 6.00934 2.54568 6.0266 2.56852C6.04386 2.59136 6.0681 2.60795 6.09565 2.61577L6.81298 2.82076C7.13601 2.91183 7.43027 3.08428 7.66759 3.3216C7.90492 3.55893 8.07737 3.85318 8.16844 4.17622L8.37343 4.89355C8.38125 4.92109 8.39783 4.94533 8.42068 4.96259C8.44352 4.97986 8.47137 4.9892 8.5 4.9892C8.52863 4.9892 8.55648 4.97986 8.57932 4.96259C8.60217 4.94533 8.61875 4.92109 8.62657 4.89355L8.83156 4.17622C8.92263 3.85318 9.09508 3.55893 9.33241 3.3216C9.56973 3.08428 9.86399 2.91183 10.187 2.82076L10.9044 2.61577C10.9319 2.60795 10.9561 2.59136 10.9734 2.56852C10.9907 2.54568 11 2.51783 11 2.4892C11 2.46056 10.9907 2.43271 10.9734 2.40987C10.9561 2.38703 10.9319 2.37044 10.9044 2.36262Z" fill="#F2EDF9"/>
</g>
</g>
</svg>
