<svg width="132" height="165" viewBox="0 0 132 165" fill="none" xmlns="http://www.w3.org/2000/svg">
<path d="M27.833 96.8477V69.9954H62.3243C69.5775 69.9954 75.1332 68.1435 78.9913 64.4397C83.0037 60.736 85.0098 55.7205 85.0098 49.3932C85.0098 43.5289 83.0808 38.6677 79.2227 34.8096C75.3647 30.9515 69.809 29.0225 62.5558 29.0225H27.833V0.78125H66.7225C77.5252 0.78125 87.0161 2.86462 95.1953 7.03136C103.374 11.0438 109.779 16.6766 114.409 23.9298C119.038 31.183 121.353 39.5165 121.353 48.9302C121.353 58.4983 119.038 66.9089 114.409 74.1621C109.779 81.261 103.297 86.8167 94.9637 90.8291C86.6302 94.8415 76.8307 96.8477 65.5651 96.8477H27.833ZM0.0546875 164.21V0.78125H36.398V164.21H0.0546875ZM88.9452 164.21L38.0183 93.8384L71.3522 84.8105L132.001 164.21H88.9452Z" fill="white"/>
</svg>
