<svg width="125" height="169" viewBox="0 0 125 169" fill="none" xmlns="http://www.w3.org/2000/svg">
<path d="M62.0106 168.756C48.5845 168.756 37.0102 166.595 27.2878 162.274C17.7197 157.799 8.92327 151.086 0.898438 142.135L24.5099 118.755C29.757 124.774 35.5441 129.48 41.8714 132.876C48.353 136.116 55.8376 137.737 64.3254 137.737C72.0416 137.737 77.9831 136.348 82.1498 133.57C86.4709 130.792 88.6314 126.934 88.6314 121.996C88.6314 117.52 87.2426 113.894 84.4647 111.116C81.6869 108.338 77.9831 105.946 73.3534 103.94C68.878 101.934 63.8625 100.005 58.3069 98.1527C52.9055 96.3008 47.5042 94.2175 42.1028 91.9026C36.7015 89.4334 31.686 86.4241 27.0563 82.8747C22.5809 79.1709 18.9543 74.6184 16.1765 69.2171C13.3987 63.6614 12.0098 56.7168 12.0098 48.3834C12.0098 38.3523 14.4018 29.7102 19.1858 22.457C24.1242 15.2038 30.9144 9.72528 39.5565 6.02151C48.1986 2.16342 58.1525 0.234375 69.4181 0.234375C80.8381 0.234375 91.255 2.24059 100.669 6.253C110.237 10.2654 118.107 15.7439 124.28 22.6885L100.669 46.0685C95.7304 40.9758 90.7148 37.1949 85.6221 34.7257C80.6838 32.2565 75.0509 31.0219 68.7237 31.0219C62.3964 31.0219 57.3809 32.2565 53.6772 34.7257C49.9734 37.0406 48.1215 40.4357 48.1215 44.9111C48.1215 49.0778 49.5104 52.4729 52.2882 55.0964C55.066 57.5656 58.6926 59.7261 63.168 61.578C67.7977 63.4299 72.8133 65.2818 78.2146 67.1337C83.7703 68.9856 89.2487 71.1461 94.6501 73.6153C100.051 76.0844 104.99 79.2481 109.465 83.1062C114.095 86.8099 117.799 91.594 120.576 97.4583C123.354 103.168 124.743 110.267 124.743 118.755C124.743 134.342 119.188 146.61 108.076 155.561C96.9649 164.358 81.6097 168.756 62.0106 168.756Z" fill="white"/>
</svg>
