<svg width="173" height="169" viewBox="0 0 173 169" fill="none" xmlns="http://www.w3.org/2000/svg">
<path d="M87.0668 168.984C74.7209 168.984 63.3009 166.824 52.8069 162.503C42.4672 158.182 33.3621 152.163 25.4916 144.447C17.6211 136.731 11.5253 127.78 7.20427 117.595C2.88321 107.255 0.722656 96.1436 0.722656 84.2607C0.722656 72.2235 2.88321 61.1122 7.20427 50.9268C11.5253 40.7415 17.544 31.8678 25.2601 24.306C32.9763 16.5898 42.0043 10.6483 52.3439 6.48159C62.8379 2.16053 74.2579 0 86.6038 0C98.7954 0 110.061 2.16053 120.401 6.48159C130.895 10.6483 140 16.5898 147.716 24.306C155.586 31.8678 161.682 40.8186 166.003 51.1583C170.324 61.3437 172.485 72.4549 172.485 84.4922C172.485 96.3751 170.324 107.486 166.003 117.826C161.682 128.011 155.664 136.962 147.947 144.678C140.231 152.24 131.126 158.182 120.632 162.503C110.292 166.824 99.104 168.984 87.0668 168.984ZM86.6038 135.882C96.3262 135.882 104.814 133.721 112.067 129.4C119.475 125.079 125.185 119.061 129.197 111.345C133.21 103.474 135.216 94.4461 135.216 84.2607C135.216 76.5445 134.058 69.6 131.743 63.427C129.429 57.0998 126.111 51.6984 121.79 47.2231C117.468 42.5933 112.299 39.121 106.28 36.8062C100.416 34.337 93.857 33.1024 86.6038 33.1024C76.8814 33.1024 68.3164 35.263 60.9089 39.584C53.6557 43.7508 48.0229 49.6922 44.0104 57.4084C39.998 64.9703 37.9918 73.921 37.9918 84.2607C37.9918 91.9769 39.1493 98.9986 41.4641 105.326C43.779 111.653 47.0198 117.132 51.1865 121.761C55.5076 126.237 60.6774 129.709 66.696 132.178C72.7146 134.647 79.3506 135.882 86.6038 135.882Z" fill="white"/>
</svg>
