<svg width="173" height="169" viewBox="0 0 173 169" fill="none" xmlns="http://www.w3.org/2000/svg">
<path d="M87.3089 168.984C74.963 168.984 63.5431 166.824 53.0491 162.503C42.7094 158.182 33.6043 152.163 25.7338 144.447C17.8633 136.731 11.7675 127.78 7.44642 117.595C3.12536 107.255 0.964844 96.1436 0.964844 84.2607C0.964844 72.2235 3.12536 61.1122 7.44642 50.9268C11.7675 40.7415 17.7861 31.8678 25.5023 24.306C33.2185 16.5898 42.2464 10.6483 52.5861 6.48159C63.0801 2.16053 74.5001 0 86.8459 0C99.0375 0 110.303 2.16053 120.643 6.48159C131.137 10.6483 140.242 16.5898 147.958 24.306C155.829 31.8678 161.924 40.8186 166.245 51.1583C170.567 61.3437 172.727 72.4549 172.727 84.4922C172.727 96.3751 170.567 107.486 166.245 117.826C161.924 128.011 155.906 136.962 148.19 144.678C140.473 152.24 131.368 158.182 120.874 162.503C110.535 166.824 99.3462 168.984 87.3089 168.984ZM86.8459 135.882C96.5683 135.882 105.056 133.721 112.309 129.4C119.717 125.079 125.427 119.061 129.439 111.345C133.452 103.474 135.458 94.4461 135.458 84.2607C135.458 76.5445 134.3 69.6 131.986 63.427C129.671 57.0998 126.353 51.6984 122.032 47.2231C117.711 42.5933 112.541 39.121 106.522 36.8062C100.658 34.337 94.0992 33.1024 86.8459 33.1024C77.1236 33.1024 68.5586 35.263 61.1511 39.584C53.8978 43.7508 48.265 49.6922 44.2526 57.4084C40.2402 64.9703 38.234 73.921 38.234 84.2607C38.234 91.9769 39.3914 98.9986 41.7063 105.326C44.0211 111.653 47.2619 117.132 51.4287 121.761C55.7497 126.237 60.9196 129.709 66.9382 132.178C72.9568 134.647 79.5927 135.882 86.8459 135.882Z" fill="white"/>
</svg>
