<svg width="125" height="165" viewBox="0 0 125 165" fill="none" xmlns="http://www.w3.org/2000/svg">
<path d="M27.7783 164.21V135.969H66.2048C73.3037 135.969 78.8594 133.885 82.8718 129.719C86.8842 125.552 88.8904 120.459 88.8904 114.441C88.8904 110.274 87.9645 106.57 86.1126 103.329C84.2607 100.089 81.6372 97.5422 78.2421 95.6903C75.0013 93.8384 70.9889 92.9125 66.2048 92.9125H27.7783V65.3657H63.1955C69.2142 65.3657 74.0754 63.8996 77.7791 60.9675C81.4829 57.881 83.3348 53.2513 83.3348 47.0783C83.3348 41.0597 81.4829 36.5843 77.7791 33.6522C74.0754 30.5657 69.2142 29.0225 63.1955 29.0225H27.7783V0.78125H70.1401C80.6341 0.78125 89.5077 2.7103 96.7609 6.56838C104.168 10.4265 109.801 15.5963 113.659 22.0779C117.517 28.5595 119.447 35.7356 119.447 43.6061C119.447 53.6371 116.206 62.1249 109.724 69.0695C103.243 76.014 93.6744 80.7981 81.0199 83.4216L81.9459 71.1528C95.6807 73.7763 106.252 79.1005 113.659 87.1253C121.221 95.1502 125.002 105.027 125.002 116.755C125.002 125.706 122.764 133.808 118.289 141.061C113.968 148.16 107.641 153.793 99.3073 157.96C91.1281 162.127 81.2514 164.21 69.6771 164.21H27.7783ZM0 164.21V0.78125H35.8802V164.21H0Z" fill="white"/>
</svg>
