<svg width="34" height="34" viewBox="0 0 34 34" fill="none" xmlns="http://www.w3.org/2000/svg">
<path fill-rule="evenodd" clip-rule="evenodd" d="M17 0C26.3892 0 34 7.61082 34 17C34 26.3892 26.3892 34 17 34C7.61082 34 0 26.3892 0 17C0 7.61082 7.61082 0 17 0ZM8.71914 12.9592V19.0241C8.72445 20.396 9.84473 21.4997 11.2107 21.4937H20.052C20.303 21.4937 20.5049 21.2918 20.5049 21.0461V14.9806C20.4996 13.6093 19.3793 12.5056 18.0134 12.5109H9.1727C8.92102 12.5109 8.71914 12.7135 8.71914 12.9592ZM21.068 15.3252L24.7184 12.6584C25.0352 12.3961 25.2809 12.4618 25.2809 12.9373V21.068C25.2809 21.6086 24.9807 21.5435 24.7184 21.3463L21.068 18.6854V15.3252Z" fill="#A0A7FF"/>
</svg>
